0
SECTION
2
HEADER
9
$INSUNITS
70
4
9
$ACADVER
1
AC1014
9
$HANDSEED
5
FFFF
0
ENDSEC
0
SECTION
2
TABLES
0
TABLE
2
VPORT
5
8
100
AcDbSymbolTable
0
ENDTAB
0
TABLE
2
LTYPE
5
5
100
AcDbSymbolTable
0
LTYPE
5
14
100
AcDbSymbolTableRecord
100
AcDbLinetypeTableRecord
2
BYBLOCK
70
0
0
LTYPE
5
15
100
AcDbSymbolTableRecord
100
AcDbLinetypeTableRecord
2
BYLAYER
70
0
0
ENDTAB
0
TABLE
2
LAYER
5
2
100
AcDbSymbolTable
70
2
0
LAYER
5
50
100
AcDbSymbolTableRecord
100
AcDbLayerTableRecord
2
0
70
0
6
CONTINUOUS
0
ENDTAB
0
TABLE
2
STYLE
5
3
100
AcDbSymbolTable
70
1
0
STYLE
5
11
100
AcDbSymbolTableRecord
100
AcDbTextStyleTableRecord
2
STANDARD
70
0
0
ENDTAB
0
TABLE
2
VIEW
5
6
100
AcDbSymbolTable
70
0
0
ENDTAB
0
TABLE
2
UCS
5
7
100
AcDbSymbolTable
70
0
0
ENDTAB
0
TABLE
2
APPID
5
9
100
AcDbSymbolTable
70
2
0
APPID
5
12
100
AcDbSymbolTableRecord
100
AcDbRegAppTableRecord
2
ACAD
70
0
0
ENDTAB
0
TABLE
2
DIMSTYLE
5
A
100
AcDbSymbolTable
70
1
0
ENDTAB
0
TABLE
2
BLOCK_RECORD
5
1
100
AcDbSymbolTable
70
1
0
BLOCK_RECORD
5
1F
100
AcDbSymbolTableRecord
100
AcDbBlockTableRecord
2
*MODEL_SPACE
0
BLOCK_RECORD
5
1B
100
AcDbSymbolTableRecord
100
AcDbBlockTableRecord
2
*PAPER_SPACE
0
ENDTAB
0
ENDSEC
0
SECTION
2
BLOCKS
0
BLOCK
5
20
100
AcDbEntity
100
AcDbBlockBegin
2
*MODEL_SPACE
0
ENDBLK
5
21
100
AcDbEntity
100
AcDbBlockEnd
0
BLOCK
5
1C
100
AcDbEntity
100
AcDbBlockBegin
2
*PAPER_SPACE
0
ENDBLK
5
1D
100
AcDbEntity
100
AcDbBlockEnd
0
ENDSEC
0
SECTION
2
ENTITIES
0
LWPOLYLINE
5
100
100
AcDbEntity
8
0
100
AcDbPolyline
90
4
70
1
43
0.0
10
83.116975300563894
20
-62.666255363326457
10
86.413283623674303
20
-62.666255363326442
42
-0.13041759376200471
10
83.643604874982344
20
-59.771640075022781
10
82.54468662982184
20
-61.675022309005186
0
LINE
5
101
100
AcDbEntity
8
0
100
AcDbLine
10
-0.56105314342524837
20
-49.175022309005186
30
0
11
0.21455961089965392
21
-49.1750223090052
31
0
0
LINE
5
102
100
AcDbEntity
8
0
100
AcDbLine
10
0.21455961089965392
20
-49.1750223090052
30
0
11
1.0686539684578691
21
-50.654357130753915
31
0
0
SPLINE
5
103
100
AcDbEntity
8
0
100
AcDbSpline
70
4
71
5
72
13
73
7
74
0
42
0.000000001
43
0.0000000001
44
0.0000000001
40
-1
40
-1
40
-1
40
-1
40
-1
40
-1
40
-0.80000000000000004
40
-0.79763076485153284
40
-0.79763076485153284
40
-0.79763076485153284
40
-0.79763076485153284
40
-0.79763076485153284
40
-0.79763076485153284
41
1
41
1
41
1
41
1
41
1
41
1
41
1
10
-0.42237105288949667
20
-50.692382041172515
30
0
10
-0.11522595907226232
20
-50.733480646840626
30
0
10
0.18914660760669003
20
-50.749920948233431
30
0
10
0.4870380654885112
20
-50.740941868667271
30
0
10
0.77890590610226051
20
-50.708486137537861
30
0
10
1.0653017421239084
20
-50.654986359197338
30
0
10
1.0686539684578702
20
-50.654357130753915
30
0
0
SPLINE
5
104
100
AcDbEntity
8
0
100
AcDbSpline
70
4
71
5
72
12
73
6
74
0
42
0.000000001
43
0.0000000001
44
0.0000000001
40
-1
40
-1
40
-1
40
-1
40
-1
40
-1
40
-0.94863400393176067
40
-0.94863400393176067
40
-0.94863400393176067
40
-0.94863400393176067
40
-0.94863400393176067
40
-0.94863400393176067
41
1
41
1
41
1
41
1
41
1
41
1
10
-1.5950547713119168
20
-50.616718719568809
30
0
10
-1.3513999566606369
20
-50.616718719568809
30
0
10
-1.1123194387410664
20
-50.624310107321207
30
0
10
-0.87781200684323046
20
-50.639490883133476
30
0
10
-0.64784742093552117
20
-50.662211400246321
30
0
10
-0.42237105288940174
20
-50.692382041172543
30
0
0
SPLINE
5
105
100
AcDbEntity
8
0
100
AcDbSpline
70
4
71
5
72
13
73
7
74
0
42
0.000000001
43
0.0000000001
44
0.0000000001
40
0.62734374682433891
40
0.62734374682433891
40
0.62734374682433891
40
0.62734374682433891
40
0.62734374682433891
40
0.62734374682433891
40
0.80000000000000004
40
1
40
1
40
1
40
1
40
1
40
1
41
1
41
1
41
1
41
1
41
1
41
1
41
1
10
-5.7254120759240941
20
-49.463355066104555
30
0
10
-5.3836033388457878
20
-49.603124674163098
30
0
10
-4.6204814719269933
20
-49.884402851760782
30
0
10
-3.809594048697877
20
-50.127282095068196
30
0
10
-2.9616360298394517
20
-50.340360128557855
30
0
10
-2.0788614900054316
20
-50.525449012450458
30
0
10
-1.5950547713119168
20
-50.616718719568809
30
0
0
LINE
5
106
100
AcDbEntity
8
0
100
AcDbLine
10
-5.7254120759240941
20
-49.463355066104555
30
0
11
-5.558943080996599
21
-49.175022309005186
31
0
0
LINE
5
107
100
AcDbEntity
8
0
100
AcDbLine
10
-5.558943080996599
20
-49.175022309005186
30
0
11
-4.7833303266717095
21
-49.175022309005186
31
0
0
ARC
5
108
100
AcDbEntity
8
0
100
AcDbCircle
10
-2.672191735048477
20
-42.50096103816275
30
0
40
6.9999999999999973
210
0
220
0
230
1
100
AcDbArc
50
252.44679897996983
51
287.55320102003009
0
LWPOLYLINE
5
109
100
AcDbEntity
8
0
100
AcDbPolyline
90
6
70
1
43
0.0
10
-8.4456944269447298
20
-9.1750223090051986
10
-5.5589430809966078
20
-14.175022309005199
10
0.21455961089965392
20
-14.175022309005199
10
3.1013109568477759
20
-9.1750223090051986
10
0.21455961089965392
20
-4.1750223090051986
10
-5.5589430809966078
20
-4.1750223090051941
0
LWPOLYLINE
5
110
100
AcDbEntity
8
0
100
AcDbPolyline
90
4
70
1
43
0.0
10
-7.3695480106104219
20
-37.311082039531009
42
-0.38534888460248151
10
2.0251645405134857
20
-37.311082039531023
10
0.21455961089965392
20
-34.1750223090052
10
-5.5589430809966078
20
-34.175022309005193
0
LWPOLYLINE
5
111
100
AcDbEntity
8
0
100
AcDbPolyline
90
6
70
1
43
0.0
10
17.55430557305527
20
-9.1750223090051986
10
20.441056919003394
20
-14.175022309005199
10
26.214559610899656
20
-14.175022309005199
10
29.101310956847776
20
-9.1750223090051986
10
26.214559610899656
20
-4.1750223090051986
10
20.441056919003394
20
-4.1750223090051941
0
LWPOLYLINE
5
112
100
AcDbEntity
8
0
100
AcDbPolyline
90
6
70
1
43
0.0
10
17.55430557305527
20
-39.1750223090052
10
20.441056919003394
20
-44.1750223090052
10
26.214559610899656
20
-44.1750223090052
10
29.101310956847776
20
-39.1750223090052
10
26.214559610899656
20
-34.1750223090052
10
20.441056919003394
20
-34.175022309005193
0
LWPOLYLINE
5
113
100
AcDbEntity
8
0
100
AcDbPolyline
90
6
70
1
43
0.0
10
69.554305573055274
20
-9.1750223090051986
10
72.441056919003387
20
-14.175022309005199
10
78.214559610899656
20
-14.175022309005199
10
81.101310956847783
20
-9.1750223090051986
10
78.214559610899656
20
-4.1750223090051986
10
72.441056919003387
20
-4.1750223090051941
0
LWPOLYLINE
5
114
100
AcDbEntity
8
0
100
AcDbPolyline
90
6
70
1
43
0.0
10
69.554305573055274
20
-39.1750223090052
10
72.441056919003387
20
-44.1750223090052
10
78.214559610899656
20
-44.1750223090052
10
81.101310956847783
20
-39.1750223090052
10
78.214559610899656
20
-34.1750223090052
10
72.441056919003387
20
-34.175022309005193
0
LWPOLYLINE
5
115
100
AcDbEntity
8
0
100
AcDbPolyline
90
6
70
1
43
0.0
10
55.101310956847769
20
-9.1750223090052039
10
52.214559610899649
20
-4.1750223090052074
10
46.441056919003387
20
-4.1750223090052074
10
43.55430557305526
20
-9.1750223090052074
10
46.441056919003394
20
-14.175022309005204
10
52.214559610899656
20
-14.175022309005207
0
LWPOLYLINE
5
116
100
AcDbEntity
8
0
100
AcDbPolyline
90
6
70
1
43
0.0
10
52.214559610899656
20
-19.175022309005197
10
46.441056919003401
20
-19.175022309005193
10
43.554305573055281
20
-24.175022309005204
10
46.441056919003415
20
-29.175022309005207
10
52.214559610899663
20
-29.175022309005204
10
55.101310956847797
20
-24.1750223090052
0
LWPOLYLINE
5
117
100
AcDbEntity
8
0
100
AcDbPolyline
90
6
70
1
43
0.0
10
43.554305573055274
20
-39.1750223090052
10
46.441056919003394
20
-44.1750223090052
10
52.214559610899656
20
-44.1750223090052
10
55.101310956847776
20
-39.1750223090052
10
52.214559610899656
20
-34.1750223090052
10
46.441056919003394
20
-34.175022309005193
0
LWPOLYLINE
5
118
100
AcDbEntity
8
0
100
AcDbPolyline
90
6
70
1
43
0.0
10
39.224178554133076
20
-26.67502230900519
10
33.431437975769974
20
-26.67502230900519
10
30.544686629821843
20
-31.67502230900519
10
33.431437975769974
20
-36.675022309005186
10
39.224178554133069
20
-36.675022309005186
10
42.110929900081203
20
-31.6750223090052
0
LWPOLYLINE
5
119
100
AcDbEntity
8
0
100
AcDbPolyline
90
5
70
1
43
0.0
10
99.657935132378626
20
30.824977690994789
42
-0.36204992815866205
10
99.657935132378611
20
40.8249776909948
10
98.441056919003401
20
40.824977690994814
10
95.554305573055274
20
35.8249776909948
10
98.441056919003415
20
30.824977690994793
0
LWPOLYLINE
5
120
100
AcDbEntity
8
0
100
AcDbPolyline
90
6
70
1
43
0.0
10
78.214559610899656
20
-49.1750223090052
10
72.441056919003415
20
-49.175022309005186
10
69.554305573055274
20
-54.175022309005207
10
72.441056919003415
20
-59.175022309005207
10
78.21455961089967
20
-59.175022309005207
10
81.101310956847797
20
-54.1750223090052
0
LWPOLYLINE
5
121
100
AcDbEntity
8
0
100
AcDbPolyline
90
6
70
1
43
0.0
10
78.214559610899656
20
-19.175022309005197
10
72.441056919003415
20
-19.175022309005193
10
69.554305573055274
20
-24.175022309005204
10
72.441056919003415
20
-29.175022309005207
10
78.21455961089967
20
-29.175022309005204
10
81.101310956847797
20
-24.1750223090052
0
LWPOLYLINE
5
122
100
AcDbEntity
8
0
100
AcDbPolyline
90
6
70
1
43
0.0
10
78.214559610899656
20
10.824977690994803
10
72.441056919003415
20
10.824977690994807
10
69.554305573055274
20
5.824977690994797
10
72.441056919003415
20
0.82497769099479257
10
78.21455961089967
20
0.82497769099479701
10
81.101310956847797
20
5.8249776909948014
0
LWPOLYLINE
5
123
100
AcDbEntity
8
0
100
AcDbPolyline
90
6
70
1
43
0.0
10
52.214559610899656
20
-49.1750223090052
10
46.441056919003401
20
-49.175022309005186
10
43.554305573055281
20
-54.175022309005207
10
46.441056919003415
20
-59.175022309005207
10
52.214559610899663
20
-59.175022309005207
10
55.101310956847797
20
-54.1750223090052
0
LWPOLYLINE
5
124
100
AcDbEntity
8
0
100
AcDbPolyline
90
6
70
1
43
0.0
10
26.214559610899656
20
-49.1750223090052
10
20.441056919003401
20
-49.175022309005186
10
17.554305573055281
20
-54.175022309005207
10
20.441056919003412
20
-59.175022309005207
10
26.214559610899663
20
-59.175022309005207
10
29.101310956847794
20
-54.1750223090052
0
LWPOLYLINE
5
125
100
AcDbEntity
8
0
100
AcDbPolyline
90
6
70
1
43
0.0
10
26.214559610899656
20
-19.175022309005197
10
20.441056919003401
20
-19.175022309005193
10
17.554305573055281
20
-24.175022309005204
10
20.441056919003412
20
-29.175022309005207
10
26.214559610899663
20
-29.175022309005204
10
29.101310956847794
20
-24.1750223090052
0
LWPOLYLINE
5
126
100
AcDbEntity
8
0
100
AcDbPolyline
90
6
70
1
43
0.0
10
0.21455961089965392
20
-19.175022309005197
10
-5.558943080996599
20
-19.175022309005193
10
-8.4456944269447209
20
-24.175022309005204
10
-5.5589430809965901
20
-29.175022309005207
10
0.2145596108996628
20
-29.175022309005204
10
3.1013109568477937
20
-24.1750223090052
0
LWPOLYLINE
5
127
100
AcDbEntity
8
0
100
AcDbPolyline
90
6
70
1
43
0.0
10
0.4352142236997314
20
10.442792690700625
42
-0.23412395665092955
10
-5.7795976937966795
20
10.442792690700621
10
-8.4456944269447209
20
5.824977690994797
10
-5.5589430809965901
20
0.82497769099479257
10
0.2145596108996628
20
0.82497769099479701
10
3.1013109568477937
20
5.8249776909948014
0
LWPOLYLINE
5
128
100
AcDbEntity
8
0
100
AcDbPolyline
90
6
70
1
43
0.0
10
59.431437975769974
20
-21.6750223090052
10
65.224178554133076
20
-21.6750223090052
10
68.110929900081203
20
-16.675022309005204
10
65.224178554133076
20
-11.6750223090052
10
59.431437975769974
20
-11.675022309005199
10
56.54468662982184
20
-16.6750223090052
0
LWPOLYLINE
5
129
100
AcDbEntity
8
0
100
AcDbPolyline
90
6
70
1
43
0.0
10
91.224178554133061
20
18.3249776909948
10
85.431437975769967
20
18.3249776909948
10
82.54468662982184
20
13.324977690994801
10
85.431437975769967
20
8.3249776909948014
10
91.224178554133061
20
8.3249776909948014
10
94.110929900081217
20
13.324977690994796
0
LWPOLYLINE
5
130
100
AcDbEntity
8
0
100
AcDbPolyline
90
6
70
1
43
0.0
10
65.224178554133076
20
-41.6750223090052
10
59.431437975769974
20
-41.6750223090052
10
56.54468662982184
20
-46.6750223090052
10
59.431437975769974
20
-51.6750223090052
10
65.224178554133076
20
-51.6750223090052
10
68.110929900081203
20
-46.675022309005207
0
LWPOLYLINE
5
131
100
AcDbEntity
8
0
100
AcDbPolyline
90
6
70
1
43
0.0
10
39.224178554133076
20
-41.6750223090052
10
33.431437975769974
20
-41.6750223090052
10
30.544686629821843
20
-46.6750223090052
10
33.431437975769974
20
-51.6750223090052
10
39.224178554133076
20
-51.6750223090052
10
42.110929900081203
20
-46.675022309005207
0
LWPOLYLINE
5
132
100
AcDbEntity
8
0
100
AcDbPolyline
90
6
70
1
43
0.0
10
39.224178554133076
20
-11.6750223090052
10
33.431437975769974
20
-11.675022309005199
10
30.544686629821843
20
-16.6750223090052
10
33.431437975769974
20
-21.6750223090052
10
39.224178554133076
20
-21.6750223090052
10
42.110929900081203
20
-16.675022309005204
0
LWPOLYLINE
5
133
100
AcDbEntity
8
0
100
AcDbPolyline
90
6
70
1
43
0.0
10
13.224178554133076
20
-11.6750223090052
10
7.4314379757699722
20
-11.675022309005199
10
4.5446866298218414
20
-16.6750223090052
10
7.4314379757699722
20
-21.6750223090052
10
13.224178554133076
20
-21.6750223090052
10
16.110929900081207
20
-16.675022309005204
0
LWPOLYLINE
5
134
100
AcDbEntity
8
0
100
AcDbPolyline
90
6
70
1
43
0.0
10
85.431437975769967
20
-36.675022309005186
10
91.224178554133061
20
-36.675022309005186
10
94.110929900081217
20
-31.6750223090052
10
91.224178554133061
20
-26.67502230900519
10
85.431437975769967
20
-26.67502230900519
10
82.54468662982184
20
-31.67502230900519
0
LWPOLYLINE
5
135
100
AcDbEntity
8
0
100
AcDbPolyline
90
6
70
1
43
0.0
10
85.431437975769967
20
-6.6750223090051852
10
91.224178554133061
20
-6.6750223090051897
10
94.110929900081217
20
-1.6750223090051986
10
91.224178554133061
20
3.3249776909948103
10
85.431437975769967
20
3.3249776909948103
10
82.54468662982184
20
-1.6750223090051897
0
LWPOLYLINE
5
136
100
AcDbEntity
8
0
100
AcDbPolyline
90
6
70
1
43
0.0
10
85.431437975769967
20
23.324977690994814
10
91.224178554133061
20
23.32497769099481
10
94.110929900081217
20
28.3249776909948
10
91.224178554133061
20
33.324977690994814
10
85.431437975769967
20
33.324977690994814
10
82.54468662982184
20
28.32497769099481
0
LWPOLYLINE
5
137
100
AcDbEntity
8
0
100
AcDbPolyline
90
6
70
1
43
0.0
10
59.431437975769974
20
-36.675022309005186
10
65.224178554133076
20
-36.675022309005186
10
68.110929900081203
20
-31.6750223090052
10
65.224178554133076
20
-26.67502230900519
10
59.431437975769974
20
-26.67502230900519
10
56.54468662982184
20
-31.67502230900519
0
LWPOLYLINE
5
138
100
AcDbEntity
8
0
100
AcDbPolyline
90
6
70
1
43
0.0
10
59.431437975769974
20
-6.6750223090051852
10
65.224178554133076
20
-6.6750223090051897
10
68.110929900081203
20
-1.6750223090051986
10
65.224178554133076
20
3.3249776909948103
10
59.431437975769974
20
3.3249776909948103
10
56.54468662982184
20
-1.6750223090051897
0
LWPOLYLINE
5
139
100
AcDbEntity
8
0
100
AcDbPolyline
90
6
70
1
43
0.0
10
33.431437975769974
20
-6.6750223090051852
10
39.224178554133069
20
-6.6750223090051897
10
42.110929900081203
20
-1.6750223090051986
10
39.224178554133076
20
3.3249776909948103
10
33.431437975769974
20
3.3249776909948103
10
30.544686629821843
20
-1.6750223090051897
0
LWPOLYLINE
5
140
100
AcDbEntity
8
0
100
AcDbPolyline
90
6
70
1
43
0.0
10
7.4314379757699722
20
-36.675022309005186
10
13.22417855413307
20
-36.675022309005186
10
16.110929900081207
20
-31.6750223090052
10
13.224178554133076
20
-26.67502230900519
10
7.4314379757699722
20
-26.67502230900519
10
4.5446866298218414
20
-31.67502230900519
0
LWPOLYLINE
5
141
100
AcDbEntity
8
0
100
AcDbPolyline
90
6
70
1
43
0.0
10
7.4314379757699722
20
-6.6750223090051852
10
13.22417855413307
20
-6.6750223090051897
10
16.110929900081207
20
-1.6750223090051986
10
13.224178554133076
20
3.3249776909948103
10
7.4314379757699722
20
3.3249776909948103
10
4.5446866298218414
20
-1.6750223090051897
0
LWPOLYLINE
5
142
100
AcDbEntity
8
0
100
AcDbPolyline
90
7
70
1
43
0.0
10
102.16428008783964
20
15.824977690994801
10
105.88189891057483
20
18.71289407148851
10
107.10131095684778
20
20.8249776909948
10
104.21455961089964
20
25.8249776909948
10
98.441056919003387
20
25.824977690994807
10
95.554305573055274
20
20.8249776909948
10
98.441056919003387
20
15.824977690994801
0
LWPOLYLINE
5
143
100
AcDbEntity
8
0
100
AcDbPolyline
90
7
70
1
43
0.0
10
91.442698801842141
20
-21.296534137490561
42
-0.59023867382375605
10
91.727262147402712
20
-12.546388653002525
10
91.224178554133061
20
-11.6750223090052
10
85.431437975769967
20
-11.675022309005199
10
82.54468662982184
20
-16.6750223090052
10
85.431437975769967
20
-21.6750223090052
10
91.224178554133061
20
-21.6750223090052
0
ARC
5
144
100
AcDbEntity
8
0
100
AcDbCircle
10
9.0000001341104436
20
-52.000000774860389
30
0
40
5.000000000000008
210
0
220
-0
230
1
100
AcDbArc
50
15.641046295736205
51
124.28777176697639
0
SPLINE
5
145
100
AcDbEntity
8
0
100
AcDbSpline
70
4
71
5
72
12
73
6
74
0
42
0.000000001
43
0.0000000001
44
0.0000000001
40
-0.11213780710548489
40
-0.11213780710548489
40
-0.11213780710548489
40
-0.11213780710548489
40
-0.11213780710548489
40
-0.11213780710548489
40
0
40
0
40
0
40
0
40
0
40
0
41
1
41
1
41
1
41
1
41
1
41
1
10
5.5025635103353157
20
-48.334113733450117
30
0
10
5.6394713561620033
20
-48.240471260493209
30
0
10
5.7759833724248129
20
-48.147032818114681
30
0
10
5.912114266057797
20
-48.053924974156089
30
0
10
6.0478703303011505
20
-47.961216486392772
30
0
10
6.1832514951704844
20
-47.868908049559984
30
0
0
LINE
5
146
100
AcDbEntity
8
0
100
AcDbLine
10
5.5025635103353157
20
-48.334113733450117
30
0
11
4.5446866298218414
21
-46.6750223090052
31
0
0
LINE
5
147
100
AcDbEntity
8
0
100
AcDbLine
10
4.5446866298218414
20
-46.6750223090052
30
0
11
7.4314379757699722
21
-41.6750223090052
31
0
0
LINE
5
148
100
AcDbEntity
8
0
100
AcDbLine
10
7.4314379757699722
20
-41.6750223090052
30
0
11
13.224178554133076
21
-41.6750223090052
31
0
0
LINE
5
149
100
AcDbEntity
8
0
100
AcDbLine
10
13.224178554133076
20
-41.6750223090052
30
0
11
16.110929900081207
21
-46.675022309005207
31
0
0
LINE
5
150
100
AcDbEntity
8
0
100
AcDbLine
10
16.110929900081207
20
-46.675022309005207
30
0
11
13.814848471004231
21
-50.651952002481877
31
0
0
LWPOLYLINE
5
151
100
AcDbEntity
8
0
100
AcDbPolyline
90
6
70
1
43
0.0
10
30.544686629821843
20
-61.675022309005186
10
31.950989889744989
20
-64.1108110060418
10
40.245065894701355
20
-64.906793566337072
10
42.110929900081203
20
-61.6750223090052
10
39.224178554133076
20
-56.675022309005186
10
33.431437975769974
20
-56.675022309005186
0
ARC
5
152
100
AcDbEntity
8
0
100
AcDbCircle
10
15.000000223517384
20
9.0000001341104863
30
0
40
5.000000000000048
210
0
220
0
230
1
100
AcDbArc
50
307.17592917114604
51
329.01083827220953
0
SPLINE
5
153
100
AcDbEntity
8
0
100
AcDbSpline
70
4
71
5
72
16
73
10
74
0
42
0.000000001
43
0.0000000001
44
0.0000000001
40
-0.83634814645859279
40
-0.83634814645859279
40
-0.83634814645859279
40
-0.83634814645859279
40
-0.83634814645859279
40
-0.83634814645859279
40
-0.80000000000000004
40
-0.60000000000000009
40
-0.40000000000000002
40
-0.20000000000000001
40
0
40
0
40
0
40
0
40
0
40
0
41
1
41
1
41
1
41
1
41
1
41
1
41
1
41
1
41
1
41
1
10
24.082265762471081
20
10.824977690994732
30
0
10
24.02736011373733
20
10.809361261480898
30
0
10
23.672760610427204
20
10.702601148190553
30
0
10
23.046744444908516
20
10.443875469548393
30
0
10
22.204460026752724
20
9.9191775692149911
30
0
10
21.207602373414058
20
9.0265457650005949
30
0
10
20.365563743216008
20
8.0336719801057086
30
0
10
19.798804524576749
20
7.2445448188091692
30
0
10
19.451978006574024
20
6.7014336234618979
30
0
10
19.286323782460652
20
6.4256205296138225
30
0
0
LINE
5
154
100
AcDbEntity
8
0
100
AcDbLine
10
24.082265762471081
20
10.824977690994732
30
0
11
26.214559610899656
21
10.824977690994803
31
0
0
LINE
5
155
100
AcDbEntity
8
0
100
AcDbLine
10
26.214559610899656
20
10.824977690994803
30
0
11
29.101310956847794
21
5.8249776909948014
31
0
0
LINE
5
156
100
AcDbEntity
8
0
100
AcDbLine
10
29.101310956847794
20
5.8249776909948014
30
0
11
26.214559610899663
21
0.82497769099479701
31
0
0
LINE
5
157
100
AcDbEntity
8
0
100
AcDbLine
10
26.214559610899663
20
0.82497769099479701
30
0
11
20.441056919003412
21
0.82497769099479257
31
0
0
LINE
5
158
100
AcDbEntity
8
0
100
AcDbLine
10
20.441056919003412
20
0.82497769099479257
30
0
11
18.021322359406465
21
5.0160808890470134
31
0
0
CIRCLE
5
159
100
AcDbEntity
8
0
100
AcDbCircle
10
15.000000223517384
20
9.0000001341104863
30
0
40
1.9999999999999996
210
-0
220
0
230
1
0
LWPOLYLINE
5
160
100
AcDbEntity
8
0
100
AcDbPolyline
90
7
70
1
43
0.0
10
66.240145147302741
20
16.56527193283225
42
-0.26852085229800943
10
58.415471382600302
20
16.565271932832253
10
56.560086184019447
20
13.351650501278826
42
-0.0021784166943451685
10
56.554211420161423
20
13.308480270195201
10
59.431437975769974
20
8.3249776909948014
10
65.224178554133076
20
8.3249776909948014
10
68.110929900081203
20
13.324977690994796
0
LINE
5
161
100
AcDbEntity
8
0
100
AcDbLine
10
53.128149085248246
20
9.2425943041629157
30
0
11
55.101310956847797
21
5.8249776909948014
31
0
0
LINE
5
162
100
AcDbEntity
8
0
100
AcDbLine
10
55.101310956847797
20
5.8249776909948014
30
0
11
52.214559610899663
21
0.82497769099479701
31
0
0
LINE
5
163
100
AcDbEntity
8
0
100
AcDbLine
10
52.214559610899663
20
0.82497769099479701
30
0
11
46.441056919003415
21
0.82497769099479257
31
0
0
LINE
5
164
100
AcDbEntity
8
0
100
AcDbLine
10
46.441056919003415
20
0.82497769099479257
30
0
11
43.554305573055281
21
5.824977690994797
31
0
0
LINE
5
165
100
AcDbEntity
8
0
100
AcDbLine
10
43.554305573055281
20
5.824977690994797
30
0
11
46.441056919003401
21
10.824977690994807
31
0
0
LINE
5
166
100
AcDbEntity
8
0
100
AcDbLine
10
46.441056919003401
20
10.824977690994807
30
0
11
47.642436568028721
21
10.824977690994803
31
0
0
SPLINE
5
167
100
AcDbEntity
8
0
100
AcDbSpline
70
4
71
5
72
12
73
6
74
0
42
0.000000001
43
0.0000000001
44
0.0000000001
40
0
40
0
40
0
40
0
40
0
40
0
40
0.077407026683247185
40
0.077407026683247185
40
0.077407026683247185
40
0.077407026683247185
40
0.077407026683247185
40
0.077407026683247185
41
1
41
1
41
1
41
1
41
1
41
1
10
48.163363271726269
20
10.375232330139204
30
0
10
48.061602106579933
20
10.47167877688446
30
0
10
47.958622311968924
20
10.56486394581162
30
0
10
47.854424319190755
20
10.654788874228274
30
0
10
47.749021558700406
20
10.741479644143798
30
0
10
47.64243656802855
20
10.824977690994938
30
0
0
ARC
5
168
100
AcDbEntity
8
0
100
AcDbCircle
10
51.602859485979884
20
14.0042633014281
30
0
40
4.9999999998439018
210
0
220
0
230
1
100
AcDbArc
50
226.53595506819298
51
287.76164853604473
0
LINE
5
169
100
AcDbEntity
8
0
100
AcDbLine
10
97.276707768443174
20
2.8416895775148254
30
0
11
95.554305573055274
21
5.824977690994797
31
0
0
LINE
5
170
100
AcDbEntity
8
0
100
AcDbLine
10
95.554305573055274
20
5.824977690994797
30
0
11
98.441056919003401
21
10.824977690994807
31
0
0
LINE
5
171
100
AcDbEntity
8
0
100
AcDbLine
10
98.441056919003401
20
10.824977690994807
30
0
11
98.514849641713127
21
10.824977690994807
31
0
0
SPLINE
5
172
100
AcDbEntity
8
0
100
AcDbSpline
70
4
71
5
72
14
73
8
74
0
42
0.000000001
43
0.0000000001
44
0.0000000001
40
-0.93891185893615736
40
-0.93891185893615736
40
-0.93891185893615736
40
-0.93891185893615736
40
-0.93891185893615736
40
-0.93891185893615736
40
-0.80000000000000004
40
-0.60000000000000009
40
-0.40634644075214271
40
-0.40634644075214271
40
-0.40634644075214271
40
-0.40634644075214271
40
-0.40634644075214271
40
-0.40634644075214271
41
1
41
1
41
1
41
1
41
1
41
1
41
1
41
1
10
97.276707768443174
20
2.8416895775148312
30
0
10
97.258968341075743
20
3.2670666033389772
30
0
10
97.242407972223091
20
4.3056402160812182
30
0
10
97.317751842567674
20
5.9392685220836094
30
0
10
97.54520714425729
20
7.5652231967911163
30
0
10
97.92577280377229
20
9.1507957885300435
30
0
10
98.30354209581715
20
10.281333101901357
30
0
10
98.514849641713127
20
10.824977690994807
30
0
0
LINE
5
173
100
AcDbEntity
8
0
100
AcDbLine
10
96.716722079628397
20
-11.188386757946539
30
0
11
95.554305573055274
21
-9.1750223090051986
31
0
0
LINE
5
174
100
AcDbEntity
8
0
100
AcDbLine
10
95.554305573055274
20
-9.1750223090051986
30
0
11
97.943538817511097
21
-5.0367489384750215
31
0
0
LINE
5
175
100
AcDbEntity
8
0
100
AcDbLine
10
97.943538817511097
20
-5.0367489384750215
30
0
11
98.258365362795558
21
-8.6407899510074042
31
0
0
SPLINE
5
176
100
AcDbEntity
8
0
100
AcDbSpline
70
4
71
5
72
14
73
8
74
0
42
0.000000001
43
0.0000000001
44
0.0000000001
40
0.53832585722254067
40
0.53832585722254067
40
0.53832585722254067
40
0.53832585722254067
40
0.53832585722254067
40
0.53832585722254067
40
0.60000000000000009
40
0.80000000000000004
40
1
40
1
40
1
40
1
40
1
40
1
41
1
41
1
41
1
41
1
41
1
41
1
41
1
41
1
10
96.716722079628397
20
-11.188386757946533
30
0
10
96.796464124566455
20
-11.156016461540148
30
0
10
97.12801786494947
20
-11.012455689384282
30
0
10
97.658108120852461
20
-10.708734515945963
30
0
10
98.059745854452473
20
-10.286226678542507
30
0
10
98.273162914039972
20
-9.6888483567342476
30
0
10
98.291144802059762
20
-9.0160392596997987
30
0
10
98.258365362795558
20
-8.6407899510074024
30
0
0
CIRCLE
5
177
100
AcDbEntity
8
0
100
AcDbCircle
10
94.000001400709152
20
-17.000000253319737
30
0
40
1.9999999999999929
210
-0
220
0
230
1
0
LINE
5
178
100
AcDbEntity
8
0
100
AcDbLine
10
99.250375054142495
20
-29.175022309005207
30
0
11
98.441056919003415
21
-29.175022309005207
31
0
0
LINE
5
179
100
AcDbEntity
8
0
100
AcDbLine
10
98.441056919003415
20
-29.175022309005207
30
0
11
95.554305573055274
21
-24.175022309005204
31
0
0
LINE
5
180
100
AcDbEntity
8
0
100
AcDbLine
10
95.554305573055274
20
-24.175022309005204
30
0
11
96.44162805138393
21
-22.638134693842062
31
0
0
SPLINE
5
181
100
AcDbEntity
8
0
100
AcDbSpline
70
4
71
5
72
15
73
9
74
0
42
0.000000001
43
0.0000000001
44
0.0000000001
40
-1
40
-1
40
-1
40
-1
40
-1
40
-1
40
-0.80000000000000004
40
-0.60000000000000009
40
-0.40000000000000002
40
-0.33002438282752256
40
-0.33002438282752256
40
-0.33002438282752256
40
-0.33002438282752256
40
-0.33002438282752256
40
-0.33002438282752256
41
1
41
1
41
1
41
1
41
1
41
1
41
1
41
1
41
1
10
99.303776585491406
20
-26.760807279604272
30
0
10
99.30698339228482
20
-26.397266862126713
30
0
10
99.248494372383291
20
-25.70911328871518
30
0
10
98.966228033938251
20
-24.793570656270298
30
0
10
98.370112269390674
20
-23.947707485488174
30
0
10
97.564963910092999
20
-23.270797901593632
30
0
10
96.928292972703431
20
-22.880706516873776
30
0
10
96.542808679809127
20
-22.686445127896842
30
0
10
96.44162805138393
20
-22.638134693842062
30
0
0
SPLINE
5
182
100
AcDbEntity
8
0
100
AcDbSpline
70
4
71
5
72
13
73
7
74
0
42
0.000000001
43
0.0000000001
44
0.0000000001
40
-0.71204760852117344
40
-0.71204760852117344
40
-0.71204760852117344
40
-0.71204760852117344
40
-0.71204760852117344
40
-0.71204760852117344
40
-0.60000000000000009
40
-0.58986787579341393
40
-0.58986787579341393
40
-0.58986787579341393
40
-0.58986787579341393
40
-0.58986787579341393
40
-0.58986787579341393
41
1
41
1
41
1
41
1
41
1
41
1
41
1
10
99.250375054142495
20
-29.175022309005207
30
0
10
99.26642392461801
20
-28.732339301148958
30
0
10
99.280607327656995
20
-28.249557401824596
30
0
10
99.291367682987499
20
-27.76670967547097
30
0
10
99.29891273760532
20
-27.283806323307243
30
0
10
99.303423300004823
20
-26.80085757310005
30
0
10
99.303776585491335
20
-26.760807279604265
30
0
0
LINE
5
183
100
AcDbEntity
8
0
100
AcDbLine
10
97.826904861044454
20
-43.111279741047355
30
0
11
95.554305573055274
21
-39.1750223090052
31
0
0
LINE
5
184
100
AcDbEntity
8
0
100
AcDbLine
10
95.554305573055274
20
-39.1750223090052
30
0
11
98.441056919003387
21
-34.175022309005193
31
0
0
LINE
5
185
100
AcDbEntity
8
0
100
AcDbLine
10
98.441056919003387
20
-34.175022309005193
30
0
11
98.895471024943873
21
-34.1750223090052
31
0
0
SPLINE
5
186
100
AcDbEntity
8
0
100
AcDbSpline
70
4
71
5
72
12
73
6
74
0
42
0.000000001
43
0.0000000001
44
0.0000000001
40
-1
40
-1
40
-1
40
-1
40
-1
40
-1
40
-0.96535852378317666
40
-0.96535852378317666
40
-0.96535852378317666
40
-0.96535852378317666
40
-0.96535852378317666
40
-0.96535852378317666
41
1
41
1
41
1
41
1
41
1
41
1
10
98.817289421177975
20
-34.858075073268061
30
0
10
98.833680421533245
20
-34.721483403640725
30
0
10
98.849693686726482
20
-34.584882278957892
30
0
10
98.865329273659071
20
-34.448271700825529
30
0
10
98.88058793705099
20
-34.311651695091314
30
0
10
98.895471024944058
20
-34.175022309003509
30
0
0
LINE
5
187
100
AcDbEntity
8
0
100
AcDbLine
10
98.817289421177975
20
-34.858075073268061
30
0
11
97.826904861044454
21
-43.111279741047355
31
0
0
LWPOLYLINE
5
188
100
AcDbEntity
8
0
100
AcDbPolyline
90
6
70
1
43
0.0
10
84.821838522067083
20
-50.619165082925591
42
-0.2925515808874013
10
92.99647870108906
20
-48.605308408215606
10
94.110929900081217
20
-46.675022309005207
10
91.224178554133061
20
-41.6750223090052
10
85.431437975769967
20
-41.6750223090052
10
82.54468662982184
20
-46.6750223090052
0
LINE
5
189
100
AcDbEntity
8
0
100
AcDbLine
10
57.351371550610473
20
-63.072241577510781
30
0
11
56.54468662982184
21
-61.675022309005186
31
0
0
LINE
5
190
100
AcDbEntity
8
0
100
AcDbLine
10
56.54468662982184
20
-61.675022309005186
30
0
11
59.431437975769974
21
-56.675022309005186
31
0
0
LINE
5
191
100
AcDbEntity
8
0
100
AcDbLine
10
59.431437975769974
20
-56.675022309005186
30
0
11
65.224178554133076
21
-56.675022309005186
31
0
0
LINE
5
192
100
AcDbEntity
8
0
100
AcDbLine
10
65.224178554133076
20
-56.675022309005186
30
0
11
68.110929900081203
21
-61.6750223090052
31
0
0
LINE
5
193
100
AcDbEntity
8
0
100
AcDbLine
10
68.110929900081203
20
-61.6750223090052
30
0
11
67.538641229339177
21
-62.666255363326457
31
0
0
LINE
5
194
100
AcDbEntity
8
0
100
AcDbLine
10
67.538641229339177
20
-62.666255363326457
30
0
11
59.072334565485917
21
-62.666255363326457
31
0
0
SPLINE
5
195
100
AcDbEntity
8
0
100
AcDbSpline
70
4
71
5
72
13
73
7
74
0
42
0.000000001
43
0.0000000001
44
0.0000000001
40
-0.21694382787631661
40
-0.21694382787631661
40
-0.21694382787631661
40
-0.21694382787631661
40
-0.21694382787631661
40
-0.21694382787631661
40
-0.20000000000000001
40
0
40
0
40
0
40
0
40
0
40
0
41
1
41
1
41
1
41
1
41
1
41
1
41
1
10
57.351371550610473
20
-63.072241577510781
30
0
10
57.376382103652446
20
-63.060196058364951
30
0
10
57.69740469234047
20
-62.908382886854511
30
0
10
58.028774309178303
20
-62.788011108699621
30
0
10
58.372635355436472
20
-62.705740512109394
30
0
10
58.730502164371032
20
-62.666255363326457
30
0
10
59.072334565485903
20
-62.666255363326457
30
0
0
LINE
5
196
100
AcDbEntity
8
0
100
AcDbLine
10
45.715463114365278
20
-65.431787644295611
30
0
11
46.441056919003394
21
-64.175022309005186
31
0
0
LINE
5
197
100
AcDbEntity
8
0
100
AcDbLine
10
46.441056919003394
20
-64.175022309005186
30
0
11
52.214559610899656
21
-64.1750223090052
31
0
0
LINE
5
198
100
AcDbEntity
8
0
100
AcDbLine
10
52.214559610899656
20
-64.1750223090052
30
0
11
53.16557263403476
21
-65.822225183734872
31
0
0
SPLINE
5
199
100
AcDbEntity
8
0
100
AcDbSpline
70
4
71
5
72
12
73
6
74
0
42
0.000000001
43
0.0000000001
44
0.0000000001
40
-1
40
-1
40
-1
40
-1
40
-1
40
-1
40
-0.81410463289362001
40
-0.81410463289362001
40
-0.81410463289362001
40
-0.81410463289362001
40
-0.81410463289362001
40
-0.81410463289362001
41
1
41
1
41
1
41
1
41
1
41
1
10
51.655687610244748
20
-66.001871050829777
30
0
10
51.978526896976135
20
-66.032853940528739
30
0
10
52.290527004242506
20
-66.029088370118743
30
0
10
52.591698307608077
20
-65.990607441059041
30
0
10
52.882950717271612
20
-65.920295834628405
30
0
10
53.165572634034817
20
-65.822225183734858
30
0
0
LINE
5
200
100
AcDbEntity
8
0
100
AcDbLine
10
51.655687610244748
20
-66.001871050829777
30
0
11
45.715463114365278
21
-65.431787644295611
31
0
0
LINE
5
201
100
AcDbEntity
8
0
100
AcDbLine
10
12.35755577163145
20
-56.675022309005186
30
0
11
13.224178554133076
21
-56.675022309005186
31
0
0
LINE
5
202
100
AcDbEntity
8
0
100
AcDbLine
10
13.224178554133076
20
-56.675022309005186
30
0
11
16.110929900081207
21
-61.6750223090052
31
0
0
LINE
5
203
100
AcDbEntity
8
0
100
AcDbLine
10
16.110929900081207
20
-61.6750223090052
30
0
11
15.610050497393576
21
-62.542570882924913
31
0
0
LINE
5
204
100
AcDbEntity
8
0
100
AcDbLine
10
15.610050497393576
20
-62.542570882924913
30
0
11
15.147011572356996
21
-62.498133032482414
31
0
0
SPLINE
5
205
100
AcDbEntity
8
0
100
AcDbSpline
70
4
71
5
72
12
73
6
74
0
42
0.000000001
43
0.0000000001
44
0.0000000001
40
-0.095832403928338764
40
-0.095832403928338764
40
-0.095832403928338764
40
-0.095832403928338764
40
-0.095832403928338764
40
-0.095832403928338764
40
0
40
0
40
0
40
0
40
0
40
0
41
1
41
1
41
1
41
1
41
1
41
1
10
13.088419288297795
20
-62.047886664524015
30
0
10
13.470675943877124
20
-62.184553854449035
30
0
10
13.867200846862609
20
-62.298654218473679
30
0
10
14.278588140943008
20
-62.389234369179093
30
0
10
14.705189186308655
20
-62.455731333506854
30
0
10
15.147011572356995
20
-62.4981330324824
30
0
0
SPLINE
5
206
100
AcDbEntity
8
0
100
AcDbSpline
70
4
71
5
72
15
73
9
74
0
42
0.000000001
43
0.0000000001
44
0.0000000001
40
0.30116625171153899
40
0.30116625171153899
40
0.30116625171153899
40
0.30116625171153899
40
0.30116625171153899
40
0.30116625171153899
40
0.40000000000000002
40
0.60000000000000009
40
0.80000000000000004
40
1
40
1
40
1
40
1
40
1
40
1
41
1
41
1
41
1
41
1
41
1
41
1
41
1
41
1
41
1
10
12.35755577163145
20
-56.675022309005186
30
0
10
12.278156646556461
20
-56.858522458826485
30
0
10
12.04193897919173
20
-57.416993634085173
30
0
10
11.676801595983532
20
-58.361209970606879
30
0
10
11.310658795426868
20
-59.662677696627078
30
0
10
11.378261974737608
20
-60.800313065263516
30
0
10
11.982335358826916
20
-61.536708212239702
30
0
10
12.671875710882281
20
-61.898960964014186
30
0
10
13.088419288297795
20
-62.047886664524007
30
0
0
CIRCLE
5
207
100
AcDbEntity
8
0
100
AcDbCircle
10
9.0000001341104436
20
-52.000000774860389
30
0
40
1.9999999999999996
210
-0
220
0
230
1
0
LINE
5
208
100
AcDbEntity
8
0
100
AcDbLine
10
10.045775289050864
20
8.3249776909948068
30
0
11
7.4314379757699722
21
8.3249776909948014
31
0
0
LINE
5
209
100
AcDbEntity
8
0
100
AcDbLine
10
7.4314379757699722
20
8.3249776909948014
30
0
11
4.5446866298218414
21
13.324977690994801
31
0
0
LINE
5
210
100
AcDbEntity
8
0
100
AcDbLine
10
4.5446866298218414
20
13.324977690994801
30
0
11
7.4314379757699722
21
18.3249776909948
31
0
0
LINE
5
211
100
AcDbEntity
8
0
100
AcDbLine
10
7.4314379757699722
20
18.3249776909948
30
0
11
8.378914711698064
21
18.324977690994796
31
0
0
SPLINE
5
212
100
AcDbEntity
8
0
100
AcDbSpline
70
4
71
5
72
15
73
9
74
0
42
0.000000001
43
0.0000000001
44
0.0000000001
40
0
40
0
40
0
40
0
40
0
40
0
40
0.20000000000000001
40
0.40000000000000002
40
0.60000000000000009
40
0.67600086021774408
40
0.67600086021774408
40
0.67600086021774408
40
0.67600086021774408
40
0.67600086021774408
40
0.67600086021774408
41
1
41
1
41
1
41
1
41
1
41
1
41
1
41
1
41
1
10
10.049448275395861
20
9.7014524909742743
30
0
10
10.121703526780594
20
10.211399277815218
30
0
10
10.216959235479987
20
11.252983310419278
30
0
10
10.212179886655681
20
12.880324336871123
30
0
10
9.9686637959262185
20
14.773439252006504
30
0
10
9.4364995485287224
20
16.54382803174482
30
0
10
8.8829667451073657
20
17.62715408763242
30
0
10
8.4920690910789105
20
18.179178216174673
30
0
10
8.378914711698064
20
18.324977690994796
30
0
0
ARC
5
213
100
AcDbEntity
8
0
100
AcDbCircle
10
15.000000223517384
20
9.0000001341104863
30
0
40
4.9999999999999574
210
0
220
0
230
1
100
AcDbArc
50
171.93534508342472
51
187.75887944390129
0
LINE
5
214
100
AcDbEntity
8
0
100
AcDbLine
10
41.506506927086235
20
12.278086392505685
30
0
11
39.224178554133076
21
8.3249776909948014
31
0
0
LINE
5
215
100
AcDbEntity
8
0
100
AcDbLine
10
39.224178554133076
20
8.3249776909948014
30
0
11
33.431437975769974
21
8.3249776909948014
31
0
0
LINE
5
216
100
AcDbEntity
8
0
100
AcDbLine
10
33.431437975769974
20
8.3249776909948014
30
0
11
31.88455170737128
21
11.004263301391966
31
0
0
LINE
5
217
100
AcDbEntity
8
0
100
AcDbLine
10
31.88455170737128
20
11.004263301391966
30
0
11
34.361727924017217
21
11.004263301391966
31
0
0
SPLINE
5
218
100
AcDbEntity
8
0
100
AcDbSpline
70
4
71
5
72
14
73
8
74
0
42
0.000000001
43
0.0000000001
44
0.0000000001
40
-0.21215683311999423
40
-0.21215683311999423
40
-0.21215683311999423
40
-0.21215683311999423
40
-0.21215683311999423
40
-0.21215683311999423
40
-0.20000000000000001
40
-0.10000000000000001
40
0
40
0
40
0
40
0
40
0
40
0
41
1
41
1
41
1
41
1
41
1
41
1
41
1
41
1
10
40.261794969118057
20
11.960708808567702
30
0
10
40.196756896924043
20
11.938618498204825
30
0
10
39.595345355946733
20
11.737802905925456
30
0
10
38.434399355596994
20
11.410018353752129
30
0
10
37.243252161314985
20
11.180207065505684
30
0
10
36.04629185946817
20
11.046333397678225
30
0
10
34.922488365100463
20
11.004263301391966
30
0
10
34.361727924017217
20
11.004263301391966
30
0
0
SPLINE
5
219
100
AcDbEntity
8
0
100
AcDbSpline
70
4
71
5
72
12
73
6
74
0
42
0.000000001
43
0.0000000001
44
0.0000000001
40
0.85313765591717849
40
0.85313765591717849
40
0.85313765591717849
40
0.85313765591717849
40
0.85313765591717849
40
0.85313765591717849
40
1
40
1
40
1
40
1
40
1
40
1
41
1
41
1
41
1
41
1
41
1
41
1
10
41.506506927086235
20
12.278086392505685
30
0
10
41.258456957346311
20
12.23553030674195
30
0
10
41.009898155193568
20
12.182804133374391
30
0
10
40.760914069441185
20
12.119566998629686
30
0
10
40.51154630803525
20
12.045537346747102
30
0
10
40.26179496911805
20
11.960708808567702
30
0
0
CIRCLE
5
220
100
AcDbEntity
8
0
100
AcDbCircle
10
51.602859485979884
20
14.0042633014281
30
0
40
2.0000000000000018
210
-0
220
0
230
1
0
LINE
5
221
100
AcDbEntity
8
0
100
AcDbLine
10
78.814511674481835
20
31.864125147224911
30
0
11
78.21455961089967
21
30.824977690994796
31
0
0
LINE
5
222
100
AcDbEntity
8
0
100
AcDbLine
10
78.21455961089967
20
30.824977690994796
30
0
11
76.418849751471157
21
30.824977690994793
31
0
0
SPLINE
5
223
100
AcDbEntity
8
0
100
AcDbSpline
70
4
71
5
72
12
73
6
74
0
42
0.000000001
43
0.0000000001
44
0.0000000001
40
0.4764490846967494
40
0.4764490846967494
40
0.4764490846967494
40
0.4764490846967494
40
0.4764490846967494
40
0.4764490846967494
40
0.59565544199208265
40
0.59565544199208265
40
0.59565544199208265
40
0.59565544199208265
40
0.59565544199208265
40
0.59565544199208265
41
1
41
1
41
1
41
1
41
1
41
1
10
78.814511674481835
20
31.864125147224911
30
0
10
78.340092357307256
20
31.645536257764306
30
0
10
77.863320332821274
20
31.432247688794433
30
0
10
77.384204645444782
20
31.224309596164495
30
0
10
76.902728590604141
20
31.02183105891104
30
0
10
76.418849751471157
20
30.824977690994793
30
0
0
LWPOLYLINE
5
224
100
AcDbEntity
8
0
100
AcDbPolyline
90
3
70
1
43
0.0
10
91.224178554133061
20
38.3249776909948
10
92.392615902756972
20
40.34877054427249
10
89.576410892346402
20
38.324977690994807
0
LINE
5
225
100
AcDbEntity
8
0
100
AcDbLine
10
104.88465925311831
20
46.985624317451276
30
0
11
104.21455961089964
21
45.824977690994793
31
0
0
LINE
5
226
100
AcDbEntity
8
0
100
AcDbLine
10
104.21455961089964
20
45.824977690994793
30
0
11
100.10445755012513
21
45.824977690994793
31
0
0
SPLINE
5
227
100
AcDbEntity
8
0
100
AcDbSpline
70
4
71
5
72
14
73
8
74
0
42
0.000000001
43
0.0000000001
44
0.0000000001
40
0.16381077761146029
40
0.16381077761146029
40
0.16381077761146029
40
0.16381077761146029
40
0.16381077761146029
40
0.16381077761146029
40
0.20000000000000001
40
0.40000000000000002
40
0.58075548532463694
40
0.58075548532463694
40
0.58075548532463694
40
0.58075548532463694
40
0.58075548532463694
40
0.58075548532463694
41
1
41
1
41
1
41
1
41
1
41
1
41
1
41
1
10
104.8846592531183
20
46.985624317451276
30
0
10
104.80841392548292
20
47.01503293047665
30
0
10
104.30779142540615
20
47.188249951188013
30
0
10
103.39026988190994
20
47.282335000538907
30
0
10
102.42386130444473
20
47.05125721617236
30
0
10
101.43382977944586
20
46.602702912666899
30
0
10
100.5307856628135
20
46.086771954397676
30
0
10
100.10445755012513
20
45.824977690994785
30
0
0
LWPOLYLINE
5
228
100
AcDbEntity
8
0
100
AcDbPolyline
90
7
70
1
43
0.0
10
72.441056919003387
20
25.824977690994807
10
69.905501181542633
20
21.43326632828995
42
-0.026613354671912462
10
69.661673725011596
20
20.639010596691641
10
72.441056919003387
20
15.824977690994801
10
78.214559610899656
20
15.824977690994801
10
81.101310956847783
20
20.8249776909948
10
78.214559610899656
20
25.8249776909948
0
ARC
5
229
100
AcDbEntity
8
0
100
AcDbCircle
10
62.327808264951521
20
23.32497769099481
30
0
40
7.8102497922884453
210
0
220
0
230
1
100
AcDbArc
50
194.01694327970583
51
200.11483550436685
0
LINE
5
230
100
AcDbEntity
8
0
100
AcDbLine
10
54.993942804891446
20
20.639010596691648
30
0
11
54.126153967251611
21
19.135956239658324
31
0
0
SPLINE
5
231
100
AcDbEntity
8
0
100
AcDbSpline
70
4
71
5
72
14
73
8
74
0
42
0.000000001
43
0.0000000001
44
0.0000000001
40
-0.74991636781602988
40
-0.74991636781602988
40
-0.74991636781602988
40
-0.74991636781602988
40
-0.74991636781602988
40
-0.74991636781602988
40
-0.60000000000000009
40
-0.40000000000000002
40
-0.21816037360747637
40
-0.21816037360747637
40
-0.21816037360747637
40
-0.21816037360747637
40
-0.21816037360747637
40
-0.21816037360747637
41
1
41
1
41
1
41
1
41
1
41
1
41
1
41
1
10
53.086464945016246
20
24.314793352914521
30
0
10
52.981137936328793
20
24.08600000653891
30
0
10
52.813853708766167
20
23.509302721612379
30
0
10
52.812937526490835
20
22.501740141634158
30
0
10
53.100245783827695
20
21.375340056062431
30
0
10
53.552423732239312
20
20.253292497523667
30
0
10
53.933810684035883
20
19.487976903799648
30
0
10
54.126153967251611
20
19.135956239658324
30
0
0
LINE
5
232
100
AcDbEntity
8
0
100
AcDbLine
10
53.086464945016246
20
24.314793352914521
30
0
11
54.75011534836041
21
21.433266328289996
31
0
0
LINE
5
233
100
AcDbEntity
8
0
100
AcDbLine
10
68.622496606925466
20
31.988860602075757
30
0
11
53.012857274071564
21
29.15240697255113
31
0
0
SPLINE
5
234
100
AcDbEntity
8
0
100
AcDbSpline
70
4
71
5
72
12
73
6
74
0
42
0.000000001
43
0.0000000001
44
0.0000000001
40
-0.082540909641132615
40
-0.082540909641132615
40
-0.082540909641132615
40
-0.082540909641132615
40
-0.082540909641132615
40
-0.082540909641132615
40
0
40
0
40
0
40
0
40
0
40
0
41
1
41
1
41
1
41
1
41
1
41
1
10
51.016588832277819
20
28.429089272201978
30
0
10
51.366678833319042
20
28.634805995572329
30
0
10
51.740185925661194
20
28.811320416539608
30
0
10
52.138601146204394
20
28.956934672158262
30
0
10
52.562824473743454
20
29.070630760899071
30
0
10
53.012857274071557
20
29.15240697255113
30
0
0
SPLINE
5
235
100
AcDbEntity
8
0
100
AcDbSpline
70
4
71
5
72
14
73
8
74
0
42
0.000000001
43
0.0000000001
44
0.0000000001
40
-0.22822838146953381
40
-0.22822838146953381
40
-0.22822838146953381
40
-0.22822838146953381
40
-0.22822838146953381
40
-0.22822838146953381
40
-0.20000000000000001
40
-0.10000000000000001
40
-0.082540909641381097
40
-0.082540909641381097
40
-0.082540909641381097
40
-0.082540909641381097
40
-0.082540909641381097
40
-0.082540909641381097
41
1
41
1
41
1
41
1
41
1
41
1
41
1
41
1
10
48.550656313259168
20
25.8249776909948
30
0
10
48.626899693434879
20
25.950871516972999
30
0
10
48.979348373890318
20
26.514521684112921
30
0
10
49.413892921525573
20
27.109460650991977
30
0
10
49.90024071263349
20
27.637597571046896
30
0
10
50.45139384465795
20
28.084042708290141
30
0
10
50.942537637678306
20
28.385575978279263
30
0
10
51.016588832272554
20
28.42908927219888
30
0
0
SPLINE
5
236
100
AcDbEntity
8
0
100
AcDbSpline
70
4
71
5
72
12
73
6
74
0
42
0.000000001
43
0.0000000001
44
0.0000000001
40
-0.2913407040166221
40
-0.2913407040166221
40
-0.2913407040166221
40
-0.2913407040166221
40
-0.2913407040166221
40
-0.2913407040166221
40
-0.22822838146953398
40
-0.22822838146953398
40
-0.22822838146953398
40
-0.22822838146953398
40
-0.22822838146953398
40
-0.22822838146953398
41
1
41
1
41
1
41
1
41
1
41
1
10
47.753162951844615
20
24.341636819363526
30
0
10
47.904201139481614
20
24.650557127812331
30
0
10
48.058213859637029
20
24.954836499975457
30
0
10
48.216454308988347
20
25.252984094490998
30
0
10
48.380193234923532
20
25.543507364387587
30
0
10
48.550656313259175
20
25.82497769099481
30
0
0
SPLINE
5
237
100
AcDbEntity
8
0
100
AcDbSpline
70
4
71
5
72
15
73
9
74
0
42
0.000000001
43
0.0000000001
44
0.0000000001
40
-0.52518468794419937
40
-0.52518468794419937
40
-0.52518468794419937
40
-0.52518468794419937
40
-0.52518468794419937
40
-0.52518468794419937
40
-0.5
40
-0.40000000000000002
40
-0.30000000000000004
40
-0.29134070401662415
40
-0.29134070401662415
40
-0.29134070401662415
40
-0.29134070401662415
40
-0.29134070401662415
40
-0.29134070401662415
41
1
41
1
41
1
41
1
41
1
41
1
41
1
41
1
41
1
10
44.78379132497362
20
18.695445901488831
30
0
10
44.861750644616365
20
18.801934593806273
30
0
10
45.243600342986596
20
19.338128575220573
30
0
10
45.880661736075709
20
20.362382265996629
30
0
10
46.458763871704875
20
21.519415655032603
30
0
10
46.991048860268904
20
22.717595917885482
30
0
10
47.473102880584158
20
23.766292991615749
30
0
10
47.732439829659299
20
24.299251556419968
30
0
10
47.753162951844587
20
24.341636819363476
30
0
0
SPLINE
5
238
100
AcDbEntity
8
0
100
AcDbSpline
70
4
71
5
72
14
73
8
74
0
42
0.000000001
43
0.0000000001
44
0.0000000001
40
-0.72817674425146361
40
-0.72817674425146361
40
-0.72817674425146361
40
-0.72817674425146361
40
-0.72817674425146361
40
-0.72817674425146361
40
-0.69999999999999996
40
-0.59999999999999998
40
-0.52518468794417061
40
-0.52518468794417061
40
-0.52518468794417061
40
-0.52518468794417061
40
-0.52518468794417061
40
-0.52518468794417061
41
1
41
1
41
1
41
1
41
1
41
1
41
1
41
1
10
40.906314192906656
20
15.411433299416615
30
0
10
41.03208139257076
20
15.473761297856402
30
0
10
41.599724965572264
20
15.766141319134736
30
0
10
42.46486062306046
20
16.29356670169765
30
0
10
43.265282909839648
20
16.927078865423919
30
0
10
43.987578155060945
20
17.668446995251742
30
0
10
44.55220017563542
20
18.379103496779098
30
0
10
44.783791324974054
20
18.695445901489439
30
0
0
SPLINE
5
239
100
AcDbEntity
8
0
100
AcDbSpline
70
4
71
5
72
14
73
8
74
0
42
0.000000001
43
0.0000000001
44
0.0000000001
40
-0.94896453588675067
40
-0.94896453588675067
40
-0.94896453588675067
40
-0.94896453588675067
40
-0.94896453588675067
40
-0.94896453588675067
40
-0.89999999999999991
40
-0.79999999999999993
40
-0.72817674425146139
40
-0.72817674425146139
40
-0.72817674425146139
40
-0.72817674425146139
40
-0.72817674425146139
40
-0.72817674425146139
41
1
41
1
41
1
41
1
41
1
41
1
41
1
41
1
10
35.61516722930552
20
14.049800796536571
30
0
10
35.856201927741033
20
14.067351081749459
30
0
10
36.589980816332229
20
14.133763237561354
30
0
10
37.678159491872577
20
14.29178504849807
30
0
10
38.75730674761617
20
14.543734520484499
30
0
10
39.803505268385884
20
14.90271310943198
30
0
10
40.585730321837815
20
15.252557606317254
30
0
10
40.906314192906699
20
15.41143329941664
30
0
0
SPLINE
5
240
100
AcDbEntity
8
0
100
AcDbSpline
70
4
71
5
72
12
73
6
74
0
42
0.000000001
43
0.0000000001
44
0.0000000001
40
-1
40
-1
40
-1
40
-1
40
-1
40
-1
40
-0.948964535886751
40
-0.948964535886751
40
-0.948964535886751
40
-0.948964535886751
40
-0.948964535886751
40
-0.948964535886751
41
1
41
1
41
1
41
1
41
1
41
1
10
34.361727924017217
20
14.004263301391966
30
0
10
34.611738734490515
20
14.004263301391966
30
0
10
34.86212302300445
20
14.008797041830194
30
0
10
35.112880504819017
20
14.017864649268329
30
0
10
35.363938100319075
20
14.031508231623238
30
0
10
35.615167229305513
20
14.049800796536573
30
0
0
LINE
5
241
100
AcDbEntity
8
0
100
AcDbLine
10
34.361727924017217
20
14.004263301391966
30
0
11
22.401695812835008
21
14.004263301391964
31
0
0
SPLINE
5
242
100
AcDbEntity
8
0
100
AcDbSpline
70
4
71
5
72
20
73
14
74
0
42
0.000000001
43
0.0000000001
44
0.0000000001
40
0.1677963514338224
40
0.1677963514338224
40
0.1677963514338224
40
0.1677963514338224
40
0.1677963514338224
40
0.1677963514338224
40
0.20000000000000001
40
0.30000000000000004
40
0.40000000000000002
40
0.5
40
0.59999999999999998
40
0.69999999999999996
40
0.79999999999999993
40
0.89999999999999991
40
1
40
1
40
1
40
1
40
1
40
1
41
1
41
1
41
1
41
1
41
1
41
1
41
1
41
1
41
1
41
1
41
1
41
1
41
1
41
1
10
13.309730850908759
20
22.773152679656746
30
0
10
13.408806971584514
20
22.68428872933633
30
0
10
13.806795832159615
20
22.305920362002443
30
0
10
14.444675100592015
20
21.548474602497482
30
0
10
15.224083196610554
20
20.284781346629313
30
0
10
16.067535929163117
20
18.506880642481931
30
0
10
16.946769914917194
20
16.624218035440954
30
0
10
17.849788586068701
20
15.203250958210559
30
0
10
18.852559200470708
20
14.377516410602041
30
0
10
19.963824842682072
20
14.044339251139844
30
0
10
20.918220170024199
20
14.003404761164051
30
0
10
21.65441682180747
20
14.004103682702988
30
0
10
22.151547730733885
20
14.004263301391966
30
0
10
22.401695812835008
20
14.004263301391966
30
0
0
SPLINE
5
243
100
AcDbEntity
8
0
100
AcDbSpline
70
4
71
5
72
12
73
6
74
0
42
0.000000001
43
0.0000000001
44
0.0000000001
40
0.12281651149531679
40
0.12281651149531679
40
0.12281651149531679
40
0.12281651149531679
40
0.12281651149531679
40
0.12281651149531679
40
0.16779635143382168
40
0.16779635143382168
40
0.16779635143382168
40
0.16779635143382168
40
0.16779635143382168
40
0.16779635143382168
41
1
41
1
41
1
41
1
41
1
41
1
10
12.574609908524977
20
23.324977690994814
30
0
10
12.730593141498371
20
23.229192813889419
30
0
10
12.881946119239544
20
23.125725925305577
30
0
10
13.028811033037112
20
23.014946581623725
30
0
10
13.171348144347856
20
22.897271729506098
30
0
10
13.30973085090875
20
22.773152679656764
30
0
0
SPLINE
5
244
100
AcDbEntity
8
0
100
AcDbSpline
70
4
71
5
72
13
73
7
74
0
42
0.000000001
43
0.0000000001
44
0.0000000001
40
0.070138466956675083
40
0.070138466956675083
40
0.070138466956675083
40
0.070138466956675083
40
0.070138466956675083
40
0.070138466956675083
40
0.10000000000000001
40
0.122816511495312
40
0.122816511495312
40
0.122816511495312
40
0.122816511495312
40
0.122816511495312
40
0.122816511495312
41
1
41
1
41
1
41
1
41
1
41
1
41
1
10
11.59560169401286
20
23.775041985334298
30
0
10
11.714250662256056
20
23.737143299604888
30
0
10
11.919632359027659
20
23.663473223855963
30
0
10
12.118175664564024
20
23.578001031896882
30
0
10
12.310055558257503
20
23.481180155047639
30
0
10
12.495485722376625
20
23.373565608438319
30
0
10
12.574609908524891
20
23.324977690994864
30
0
0
SPLINE
5
245
100
AcDbEntity
8
0
100
AcDbSpline
70
4
71
5
72
12
73
6
74
0
42
0.000000001
43
0.0000000001
44
0.0000000001
40
0
40
0
40
0
40
0
40
0
40
0
40
0.070138466955875972
40
0.070138466955875972
40
0.070138466955875972
40
0.070138466955875972
40
0.070138466955875972
40
0.070138466955875972
41
1
41
1
41
1
41
1
41
1
41
1
10
10.076752795984003
20
24.000000298023231
30
0
10
10.405985316246955
20
24.000000298023231
30
0
10
10.722389665586455
20
23.977254786821824
30
0
10
11.025966442261439
20
23.931764993417254
30
0
10
11.316920196753799
20
23.86405803527953
30
0
10
11.59560169399699
20
23.775041985339374
30
0
0
LINE
5
246
100
AcDbEntity
8
0
100
AcDbLine
10
10.076752795984003
20
24.000000298023231
30
0
11
-6.0000000894069654
21
24.000000298023224
31
0
0
SPLINE
5
247
100
AcDbEntity
8
0
100
AcDbSpline
70
4
71
5
72
12
73
6
74
0
42
0.000000001
43
0.0000000001
44
0.0000000001
40
0.94974194968085479
40
0.94974194968085479
40
0.94974194968085479
40
0.94974194968085479
40
0.94974194968085479
40
0.94974194968085479
40
1
40
1
40
1
40
1
40
1
40
1
41
1
41
1
41
1
41
1
41
1
41
1
10
-6.6297894887930875
20
23.970217305588687
30
0
10
-6.507046148258504
20
23.982104744143218
30
0
10
-6.382701518628159
20
23.991045354412961
30
0
10
-6.2567479845209721
20
23.997015090909173
30
0
10
-6.1291809467404761
20
24.000000298023224
30
0
10
-6.0000000894069663
20
24.000000298023224
30
0
0
SPLINE
5
248
100
AcDbEntity
8
0
100
AcDbSpline
70
4
71
5
72
16
73
10
74
0
42
0.000000001
43
0.0000000001
44
0.0000000001
40
0.16728031787718747
40
0.16728031787718747
40
0.16728031787718747
40
0.16728031787718747
40
0.16728031787718747
40
0.16728031787718747
40
0.20000000000000001
40
0.40000000000000002
40
0.60000000000000009
40
0.80000000000000004
40
0.9497419496808549
40
0.9497419496808549
40
0.9497419496808549
40
0.9497419496808549
40
0.9497419496808549
40
0.9497419496808549
41
1
41
1
41
1
41
1
41
1
41
1
41
1
41
1
41
1
41
1
10
-12.578540735569375
20
17.983277477406144
30
0
10
-12.560864443881663
20
18.058298397176703
30
0
10
-12.429343615374744
20
18.589988259084024
30
0
10
-12.108893557077195
20
19.553092250872936
30
0
10
-11.449462987055792
20
20.883035423172338
30
0
10
-10.344001167885825
20
22.332550306382082
30
0
10
-8.9867244667576269
20
23.346050853117273
30
0
10
-7.8164592886954454
20
23.790976260283866
30
0
10
-6.995498604154208
20
23.934799134478485
30
0
10
-6.6297894887930831
20
23.970217305588676
30
0
0
SPLINE
5
249
100
AcDbEntity
8
0
100
AcDbSpline
70
4
71
5
72
12
73
6
74
0
42
0.000000001
43
0.0000000001
44
0.0000000001
40
0
40
0
40
0
40
0
40
0
40
0
40
0.16728031787718675
40
0.16728031787718675
40
0.16728031787718675
40
0.16728031787718675
40
0.16728031787718675
40
0.16728031787718675
41
1
41
1
41
1
41
1
41
1
41
1
10
-12.807970148959647
20
16.000000238418579
30
0
10
-12.807970148959647
20
16.409224124813605
30
0
10
-12.784633238659993
20
16.81229251212212
30
0
10
-12.737975792920309
20
17.20920708030355
30
0
10
-12.668911286276789
20
17.599730862877497
30
0
10
-12.578540735569375
20
17.983277477406133
30
0
0
LINE
5
250
100
AcDbEntity
8
0
100
AcDbLine
10
-12.807970148959647
20
16.000000238418579
30
0
11
-12.807970148959649
21
-44.86622086563515
31
0
0
SPLINE
5
251
100
AcDbEntity
8
0
100
AcDbSpline
70
4
71
5
72
13
73
7
74
0
42
0.000000001
43
0.0000000001
44
0.0000000001
40
0.7053313853418185
40
0.7053313853418185
40
0.7053313853418185
40
0.7053313853418185
40
0.7053313853418185
40
0.7053313853418185
40
0.80000000000000004
40
1
40
1
40
1
40
1
40
1
40
1
41
1
41
1
41
1
41
1
41
1
41
1
41
1
10
-11.469243982806695
20
-49.411963758948673
30
0
10
-11.632413708236397
20
-49.185537546045445
30
0
10
-12.107246160360788
20
-48.452625350235593
30
0
10
-12.473154413783279
20
-47.627015947486086
30
0
10
-12.711537536360723
20
-46.692879481101158
30
0
10
-12.807970148959647
20
-45.637939594030101
30
0
10
-12.807970148959647
20
-44.86622086563515
30
0
0
SPLINE
5
252
100
AcDbEntity
8
0
100
AcDbSpline
70
4
71
5
72
14
73
8
74
0
42
0.000000001
43
0.0000000001
44
0.0000000001
40
0.36868096149787066
40
0.36868096149787066
40
0.36868096149787066
40
0.36868096149787066
40
0.36868096149787066
40
0.36868096149787066
40
0.40000000000000002
40
0.60000000000000009
40
0.70533138534138129
40
0.70533138534138129
40
0.70533138534138129
40
0.70533138534138129
40
0.70533138534138129
40
0.70533138534138129
41
1
41
1
41
1
41
1
41
1
41
1
41
1
41
1
10
-7.4909113317034155
20
-52.521289477839375
30
0
10
-7.5805509118407581
20
-52.47672755106754
30
0
10
-8.2385380515200151
20
-52.144124829439136
30
0
10
-9.1512602339284683
20
-51.621876962113511
30
0
10
-9.9872076410688511
20
-51.034291848193106
30
0
10
-10.723321545256667
20
-50.361745935910463
30
0
10
-11.287696029583586
20
-49.663892941278945
30
0
10
-11.469243982802928
20
-49.411963758953888
30
0
0
SPLINE
5
253
100
AcDbEntity
8
0
100
AcDbSpline
70
4
71
5
72
13
73
7
74
0
42
0.000000001
43
0.0000000001
44
0.0000000001
40
0
40
0
40
0
40
0
40
0
40
0
40
0.20000000000000001
40
0.36868096149792862
40
0.36868096149792862
40
0.36868096149792862
40
0.36868096149792862
40
0.36868096149792862
40
0.36868096149792862
41
1
41
1
41
1
41
1
41
1
41
1
41
1
10
-1.5950547713119168
20
-54.616718719568809
30
0
10
-2.2923153280267679
20
-54.438386097169314
30
0
10
-3.5509952387007382
20
-54.086964047182001
30
0
10
-4.7605625215554461
20
-53.693745927281299
30
0
10
-5.9178714686858491
20
-53.256054661664727
30
0
10
-7.0081222267702428
20
-52.761295206417259
30
0
10
-7.4909113317042468
20
-52.521289477838955
30
0
0
SPLINE
5
254
100
AcDbEntity
8
0
100
AcDbSpline
70
0
71
3
72
11
73
7
74
0
42
0.000000001
43
0.0000000001
44
0.0000000001
40
0.65282810176667661
40
0.65282810176667661
40
0.65282810176667661
40
0.65282810176667661
40
0.82115989298640035
40
0.82115989298640035
40
0.82115989298640035
40
1
40
1
40
1
40
1
10
1.8295137255973539
20
-56.377839730456387
30
0
10
1.2280540282471337
20
-55.716781444435142
30
0
10
0.70047901348502473
20
-55.286800038917008
30
0
10
0.22336572609860245
20
-55.031325281366428
30
0
10
-0.28353193568900747
20
-54.759902202882216
30
0
10
-0.75971442033622261
20
-54.616718719568809
30
0
10
-1.5950547713119168
20
-54.616718719568809
30
0
0
SPLINE
5
255
100
AcDbEntity
8
0
100
AcDbSpline
70
0
71
3
72
11
73
7
74
0
42
0.000000001
43
0.0000000001
44
0.0000000001
40
0.39324233424000693
40
0.39324233424000693
40
0.39324233424000693
40
0.39324233424000693
40
0.63272958992324757
40
0.63272958992324757
40
0.63272958992324757
40
0.65282810176667694
40
0.65282810176667694
40
0.65282810176667694
40
0.65282810176667694
10
5.1314978070637114
20
-60.658635535572969
30
0
10
3.8999263568861497
20
-59.10546047332673
30
0
10
2.9294320635239801
20
-57.644753071631186
30
0
10
2.0481530835205568
20
-56.624606163257496
30
0
10
1.9741934234692029
20
-56.538992276783695
30
0
10
1.901326927149749
20
-56.456768895853635
30
0
10
1.8295137255973506
20
-56.377839730456401
30
0
0
SPLINE
5
256
100
AcDbEntity
8
0
100
AcDbSpline
70
0
71
3
72
14
73
10
74
0
42
0.000000001
43
0.0000000001
44
0.0000000001
40
0.040764084130751742
40
0.040764084130751742
40
0.040764084130751742
40
0.040764084130751742
40
0.17112855423075315
40
0.17112855423075315
40
0.17112855423075315
40
0.38593495030313996
40
0.38593495030313996
40
0.38593495030313996
40
0.39324233424000682
40
0.39324233424000682
40
0.39324233424000682
40
0.39324233424000682
10
13.450805500650596
20
-66.28249292325485
30
0
10
12.068270161291883
20
-65.999441301713958
30
0
10
10.755313814100401
20
-65.489825298304623
30
0
10
9.6184373712197324
20
-64.809923541858652
30
0
10
7.7451636848582517
20
-63.689624077799067
30
0
10
6.3640504715907795
20
-62.198938244587758
30
0
10
5.2449673132594938
20
-60.801058242162149
30
0
10
5.2068978216394557
20
-60.753504509767929
30
0
10
5.1690762803167321
20
-60.706026978047099
30
0
10
5.1314978070637141
20
-60.658635535572969
30
0
0
SPLINE
5
257
100
AcDbEntity
8
0
100
AcDbSpline
70
0
71
3
72
8
73
4
74
0
42
0.000000001
43
0.0000000001
44
0.0000000001
40
0
40
0
40
0
40
0
40
0.040764084130463459
40
0.040764084130463459
40
0.040764084130463459
40
0.040764084130463459
10
14.764887226523468
20
-66.479838820749706
30
0
10
14.322227544548852
20
-66.437356766475418
30
0
10
13.883114908612249
20
-66.371001242316908
30
0
10
13.45080550065977
20
-66.282492923256754
30
0
0
LINE
5
258
100
AcDbEntity
8
0
100
AcDbLine
10
14.764887226523468
20
-66.479838820749706
30
0
11
51.273563264411251
21
-69.983576839097083
31
0
0
SPLINE
5
259
100
AcDbEntity
8
0
100
AcDbSpline
70
0
71
3
72
11
73
7
74
0
42
0.000000001
43
0.0000000001
44
0.0000000001
40
0.78091179817929279
40
0.78091179817929279
40
0.78091179817929279
40
0.78091179817929279
40
0.8876648911288797
40
0.8876648911288797
40
0.8876648911288797
40
1
40
1
40
1
40
1
10
54.96510056106068
20
-69.410945635027559
30
0
10
54.450514986337581
20
-69.627910993597567
30
0
10
53.880039853767613
20
-69.808698448121135
30
0
10
53.263632911110783
20
-69.913667411785823
30
0
10
52.61499464594155
20
-70.02412510097831
30
0
10
51.930623799770373
20
-70.046634945496336
30
0
10
51.273563264411251
20
-69.983576839097083
30
0
0
SPLINE
5
260
100
AcDbEntity
8
0
100
AcDbSpline
70
0
71
3
72
14
73
10
74
0
42
0.000000001
43
0.0000000001
44
0.0000000001
40
0.19862249706136467
40
0.19862249706136467
40
0.19862249706136467
40
0.19862249706136467
40
0.39398882867434026
40
0.39398882867434026
40
0.39398882867434026
40
0.67636728762579179
40
0.67636728762579179
40
0.67636728762579179
40
0.7809117981792939
40
0.7809117981792939
40
0.7809117981792939
40
0.7809117981792939
10
59.108173770916309
20
-66.666255363326457
30
0
10
59.038824332110238
20
-66.696993105977924
30
0
10
58.840743171879168
20
-66.808671691503122
30
0
10
58.513207928288523
20
-67.056534445450339
30
0
10
58.039795254908164
20
-67.414790148534991
30
0
10
57.353105168336128
20
-68.045879327448247
30
0
10
56.306763815897149
20
-68.706657226885255
30
0
10
55.919378584853625
20
-68.951295937421918
30
0
10
55.469040030736956
20
-69.198469007025039
30
0
10
54.965100561060666
20
-69.410945635027559
30
0
0
LINE
5
261
100
AcDbEntity
8
0
100
AcDbLine
10
59.108173770916309
20
-66.666255363326457
30
0
11
90.0723350274219
21
-66.666255363326471
31
0
0
SPLINE
5
262
100
AcDbEntity
8
0
100
AcDbSpline
70
0
71
3
72
8
73
4
74
0
42
0.000000001
43
0.0000000001
44
0.0000000001
40
-0.13388432787734533
40
-0.13388432787734533
40
-0.13388432787734533
40
-0.13388432787734533
40
0
40
0
40
0
40
0
10
91.2447578267154
20
-66.639377963309855
30
0
10
90.8469290358492
20
-66.659137867453282
30
0
10
90.458380260016412
20
-66.666255363326457
30
0
10
90.0723350274219
20
-66.666255363326457
30
0
0
SPLINE
5
263
100
AcDbEntity
8
0
100
AcDbSpline
70
0
71
3
72
20
73
16
74
0
42
0.000000001
43
0.0000000001
44
0.0000000001
40
-1
40
-1
40
-1
40
-1
40
-0.99032961220498306
40
-0.99032961220498306
40
-0.99032961220498306
40
-0.80778318786144321
40
-0.80778318786144321
40
-0.80778318786144321
40
-0.61976440982799463
40
-0.61976440982799463
40
-0.61976440982799463
40
-0.36291265934012851
40
-0.36291265934012851
40
-0.36291265934012851
40
-0.13388432787734755
40
-0.13388432787734755
40
-0.13388432787734755
40
-0.13388432787734755
10
99.788796730422177
20
-60.334656328270881
30
0
10
99.782363093753673
20
-60.388269967175191
30
0
10
99.775352402229046
20
-60.442044611941903
30
0
10
99.767738682517091
20
-60.495965774327487
30
0
10
99.624015665526116
20
-61.513827270534293
30
0
10
99.227688393274974
20
-62.607909761929065
30
0
10
98.586194716044389
20
-63.49394511380811
30
0
10
97.925470422249973
20
-64.406541921736931
30
0
10
97.069280838726414
20
-65.049498767945494
30
0
10
96.28695173264596
20
-65.462335562459728
30
0
10
95.218214862551932
20
-66.026310365646239
30
0
10
94.263949775159958
20
-66.247423004044975
30
0
10
93.40177770611399
20
-66.399328140391475
30
0
10
92.633000269198149
20
-66.534778180548827
30
0
10
91.925300991285113
20
-66.605575815234829
30
0
10
91.244757826715386
20
-66.639377963309855
30
0
0
LINE
5
264
100
AcDbEntity
8
0
100
AcDbLine
10
99.788796730422177
20
-60.334656328270881
30
0
11
102.78879677512566
21
-35.334655955741781
31
0
0
SPLINE
5
265
100
AcDbEntity
8
0
100
AcDbSpline
70
0
71
3
72
8
73
4
74
0
42
0.000000001
43
0.0000000001
44
0.0000000001
40
0.94468225174400577
40
0.94468225174400577
40
0.94468225174400577
40
0.94468225174400577
40
1
40
1
40
1
40
1
10
102.91745666932407
20
-34.175022309005193
30
0
10
102.87802386314596
20
-34.561415944295803
30
0
10
102.83519505371655
20
-34.94800363415127
30
0
10
102.78879677512566
20
-35.334655955741781
30
0
0
SPLINE
5
266
100
AcDbEntity
8
0
100
AcDbSpline
70
0
71
3
72
8
73
4
74
0
42
0.000000001
43
0.0000000001
44
0.0000000001
40
0.70505180546908952
40
0.70505180546908952
40
0.70505180546908952
40
0.70505180546908952
40
0.94468225174400566
40
0.94468225174400566
40
0.94468225174400566
40
0.94468225174400566
10
103.25283256075723
20
-29.175022309005204
30
0
10
103.1953669465226
20
-30.831033707754919
30
0
10
103.08827528071468
20
-32.501207264437824
30
0
10
102.91745666932411
20
-34.1750223090052
30
0
0
SPLINE
5
267
100
AcDbEntity
8
0
100
AcDbSpline
70
0
71
3
72
11
73
7
74
0
42
0.000000001
43
0.0000000001
44
0.0000000001
40
0.2171721627100382
40
0.2171721627100382
40
0.2171721627100382
40
0.2171721627100382
40
0.67801271907320482
40
0.67801271907320482
40
0.67801271907320482
40
0.70505180546908963
40
0.70505180546908963
40
0.70505180546908963
40
0.70505180546908963
10
103.12568197414461
20
-19.175022309005168
30
0
10
103.29961760735891
20
-22.302283523429335
30
0
10
103.3597314336521
20
-25.436680621360004
30
0
10
103.27040996196048
20
-28.615002245336456
30
0
10
103.26516916672941
20
-28.801485209559083
30
0
10
103.25931678566371
20
-28.988163602278128
30
0
10
103.25283256075724
20
-29.175022309005207
30
0
0
SPLINE
5
268
100
AcDbEntity
8
0
100
AcDbSpline
70
0
71
3
72
8
73
4
74
0
42
0.000000001
43
0.0000000001
44
0.0000000001
40
0
40
0
40
0
40
0
40
0.21717216271003945
40
0.21717216271003945
40
0.21717216271003945
40
0.21717216271003945
10
102.80767421611438
20
-14.754739444979778
30
0
10
102.93646944667299
20
-16.229149084523907
30
0
10
103.04371441049179
20
-17.701293332859024
30
0
10
103.12568197414461
20
-19.175022309005193
30
0
0
LINE
5
269
100
AcDbEntity
8
0
100
AcDbLine
10
102.80767421611438
20
-14.754739444979778
30
0
11
101.32179700736133
21
2.2551426000506791
31
0
0
SPLINE
5
270
100
AcDbEntity
8
0
100
AcDbSpline
70
4
71
5
72
15
73
9
74
0
42
0.000000001
43
0.0000000001
44
0.0000000001
40
0.32196649117199216
40
0.32196649117199216
40
0.32196649117199216
40
0.32196649117199216
40
0.32196649117199216
40
0.32196649117199216
40
0.40000000000000002
40
0.60000000000000009
40
0.80000000000000004
40
1
40
1
40
1
40
1
40
1
40
1
41
1
41
1
41
1
41
1
41
1
41
1
41
1
41
1
41
1
10
101.01442449660958
20
10.824977690994469
30
0
10
100.96822737491269
20
10.646584120254996
30
0
10
100.82598284665013
20
10.005179130377503
30
0
10
100.70924370068406
20
8.8686717014573055
30
0
10
100.77508600471168
20
7.1894651163796492
30
0
10
100.98907774431714
20
5.4447098695466609
30
0
10
101.17142837457139
20
3.8637726867308024
30
0
10
101.27472655784928
20
2.7939911598713025
30
0
10
101.32179700736134
20
2.2551426000506791
30
0
0
SPLINE
5
271
100
AcDbEntity
8
0
100
AcDbSpline
70
4
71
5
72
13
73
7
74
0
42
0.000000001
43
0.0000000001
44
0.0000000001
40
0.16105313722339948
40
0.16105313722339948
40
0.16105313722339948
40
0.16105313722339948
40
0.16105313722339948
40
0.16105313722339948
40
0.20000000000000001
40
0.32196649117196297
40
0.32196649117196297
40
0.32196649117196297
40
0.32196649117196297
40
0.32196649117196297
40
0.32196649117196297
41
1
41
1
41
1
41
1
41
1
41
1
41
1
10
101.79316373074056
20
12.588279678610377
30
0
10
101.73918152012402
20
12.506930675548176
30
0
10
101.52505986776559
20
12.168668713115061
30
0
10
101.3470627302958
20
11.821628205168073
30
0
10
101.20211705088221
20
11.466437345684435
30
0
10
101.08663066701305
20
11.103807109247505
30
0
10
101.01442449660964
20
10.824977690994803
30
0
0
SPLINE
5
272
100
AcDbEntity
8
0
100
AcDbSpline
70
4
71
5
72
12
73
6
74
0
42
0.000000001
43
0.0000000001
44
0.0000000001
40
0
40
0
40
0
40
0
40
0
40
0
40
0.1610531372227656
40
0.1610531372227656
40
0.1610531372227656
40
0.1610531372227656
40
0.1610531372227656
40
0.1610531372227656
41
1
41
1
41
1
41
1
41
1
41
1
10
103.30168412839737
20
14.175988419784211
30
0
10
102.9181000228964
20
13.878013055876881
30
0
10
102.57638347736807
20
13.570058354812712
30
0
10
102.27650306782571
20
13.252131513259132
30
0
10
102.01639106548315
20
12.924674222851699
30
0
10
101.79316373074492
20
12.588279678616994
30
0
0
LINE
5
273
100
AcDbEntity
8
0
100
AcDbLine
10
103.30168412839737
20
14.175988419784211
30
0
11
112.53157378629965
21
21.345940694125876
31
0
0
SPLINE
5
274
100
AcDbEntity
8
0
100
AcDbSpline
70
4
71
5
72
12
73
6
74
0
42
0.000000001
43
0.0000000001
44
0.0000000001
40
0.92093325619932642
40
0.92093325619932642
40
0.92093325619932642
40
0.92093325619932642
40
0.92093325619932642
40
0.92093325619932642
40
1
40
1
40
1
40
1
40
1
40
1
41
1
41
1
41
1
41
1
41
1
41
1
10
113.62174842020326
20
22.258181921662651
30
0
10
113.41257804842584
20
22.069600489840376
30
0
10
113.19896341795268
20
21.88403871014701
30
0
10
112.98092302622359
20
21.701556671396737
30
0
10
112.75846013932747
20
21.522190290080275
30
0
10
112.53157378629965
20
21.345940694125876
30
0
0
SPLINE
5
275
100
AcDbEntity
8
0
100
AcDbSpline
70
4
71
5
72
12
73
6
74
0
42
0.000000001
43
0.0000000001
44
0.0000000001
40
0.83442965700615623
40
0.83442965700615623
40
0.83442965700615623
40
0.83442965700615623
40
0.83442965700615623
40
0.83442965700615623
40
0.92093325619932598
40
0.92093325619932598
40
0.92093325619932598
40
0.92093325619932598
40
0.92093325619932598
40
0.92093325619932598
41
1
41
1
41
1
41
1
41
1
41
1
10
114.71240625516914
20
23.324977690994814
30
0
10
114.50509005919545
20
23.104795055025757
30
0
10
114.29229888106632
20
22.887903507185761
30
0
10
114.07411782188775
20
22.674434360190663
30
0
10
113.85059292717997
20
22.464500935314614
30
0
10
113.62174842020326
20
22.258181921662654
30
0
0
SPLINE
5
276
100
AcDbEntity
8
0
100
AcDbSpline
70
4
71
5
72
15
73
9
74
0
42
0.000000001
43
0.0000000001
44
0.0000000001
40
0.37979557936790143
40
0.37979557936790143
40
0.37979557936790143
40
0.37979557936790143
40
0.37979557936790143
40
0.37979557936790143
40
0.40000000000000002
40
0.60000000000000009
40
0.80000000000000004
40
0.83442965700615668
40
0.83442965700615668
40
0.83442965700615668
40
0.83442965700615668
40
0.83442965700615668
40
0.83442965700615668
41
1
41
1
41
1
41
1
41
1
41
1
41
1
41
1
41
1
10
118.33801997195178
20
29.802444262948391
30
0
10
118.32655459885174
20
29.740645544745242
30
0
10
118.19503136814113
20
29.067718519610906
30
0
10
117.8093059079292
20
27.796531444592965
30
0
10
117.15316248731042
20
26.455113235052963
30
0
10
116.30609642967647
20
25.169309264997683
30
0
10
115.35085413826488
20
24.012870823163482
30
0
10
114.7949210358924
20
23.412613496970891
30
0
10
114.71240625516916
20
23.3249776909948
30
0
0
SPLINE
5
277
100
AcDbEntity
8
0
100
AcDbSpline
70
4
71
5
72
12
73
6
74
0
42
0.000000001
43
0.0000000001
44
0.0000000001
40
0.29298192825536729
40
0.29298192825536729
40
0.29298192825536729
40
0.29298192825536729
40
0.29298192825536729
40
0.29298192825536729
40
0.37979557936778435
40
0.37979557936778435
40
0.37979557936778435
40
0.37979557936778435
40
0.37979557936778435
40
0.37979557936778435
41
1
41
1
41
1
41
1
41
1
41
1
10
118.46681402103478
20
31.139348930238086
30
0
10
118.46584567720677
20
30.870317424037886
30
0
10
118.45183354329836
20
30.602019365501242
30
0
10
118.42542858562368
20
30.334540500839896
30
0
10
118.38728398789695
20
30.067978843672577
30
0
10
118.33801997195209
20
29.802444262950189
30
0
0
SPLINE
5
278
100
AcDbEntity
8
0
100
AcDbSpline
70
4
71
5
72
13
73
7
74
0
42
0.000000001
43
0.0000000001
44
0.0000000001
40
0
40
0
40
0
40
0
40
0
40
0
40
0.20000000000000001
40
0.29298192825503649
40
0.29298192825503649
40
0.29298192825503649
40
0.29298192825503649
40
0.29298192825503649
40
0.29298192825503649
41
1
41
1
41
1
41
1
41
1
41
1
41
1
10
116.76694426085994
20
35.737728671150201
30
0
10
117.25876180892008
20
35.104181093119855
30
0
10
117.84176879588635
20
34.17839356939961
30
0
10
118.22358676683751
20
33.255980545045972
30
0
10
118.42397075072363
20
32.338084283058663
30
0
10
118.46785116755689
20
31.427495643200363
30
0
10
118.46681402103479
20
31.139348930243209
30
0
0
LINE
5
279
100
AcDbEntity
8
0
100
AcDbLine
10
116.76694426085994
20
35.737728671150201
30
0
11
108.08711211472684
21
46.918880412445951
31
0
0
SPLINE
5
280
100
AcDbEntity
8
0
100
AcDbSpline
70
4
71
5
72
12
73
6
74
0
42
0.000000001
43
0.0000000001
44
0.0000000001
40
-0.18585163811206265
40
-0.18585163811206265
40
-0.18585163811206265
40
-0.18585163811206265
40
-0.18585163811206265
40
-0.18585163811206265
40
0
40
0
40
0
40
0
40
0
40
0
41
1
41
1
41
1
41
1
41
1
41
1
10
105.83030965906615
20
48.623538866751062
30
0
10
106.315911697687
20
48.465211420729169
30
0
10
106.78616280063719
20
48.222742078789018
30
0
10
107.23889071262849
20
47.887505663114815
30
0
10
107.67254648614926
20
47.452913919293977
30
0
10
108.08711211472685
20
46.918880412445944
30
0
0
SPLINE
5
281
100
AcDbEntity
8
0
100
AcDbSpline
70
4
71
5
72
15
73
9
74
0
42
0.000000001
43
0.0000000001
44
0.0000000001
40
-0.72120500276873889
40
-0.72120500276873889
40
-0.72120500276873889
40
-0.72120500276873889
40
-0.72120500276873889
40
-0.72120500276873889
40
-0.60000000000000009
40
-0.40000000000000002
40
-0.20000000000000001
40
-0.18585163811249716
40
-0.18585163811249716
40
-0.18585163811249716
40
-0.18585163811249716
40
-0.18585163811249716
40
-0.18585163811249716
41
1
41
1
41
1
41
1
41
1
41
1
41
1
41
1
41
1
10
98.202187089556674
20
46.238712371990317
30
0
10
98.545207452543323
20
46.456072370969224
30
0
10
99.464098789038374
20
47.025871869547579
30
0
10
100.98957894489399
20
47.903698155990106
30
0
10
102.57513274347679
20
48.624396258636722
30
0
10
104.10875634592091
20
48.934822699435223
30
0
10
105.23245852137822
20
48.810644631938764
30
0
10
105.79334214322091
20
48.635591889399294
30
0
10
105.83030965906045
20
48.623538866752909
30
0
0
SPLINE
5
282
100
AcDbEntity
8
0
100
AcDbSpline
70
4
71
5
72
13
73
7
74
0
42
0.000000001
43
0.0000000001
44
0.0000000001
40
-1
40
-1
40
-1
40
-1
40
-1
40
-1
40
-0.80000000000000004
40
-0.72120500276869437
40
-0.72120500276869437
40
-0.72120500276869437
40
-0.72120500276869437
40
-0.72120500276869437
40
-0.72120500276869437
41
1
41
1
41
1
41
1
41
1
41
1
41
1
10
94.525067073680745
20
43.783056732906516
30
0
10
95.006571645881166
20
44.112045870163257
30
0
10
95.702941924890126
20
44.586806668563369
30
0
10
96.434354314616996
20
45.084045834924083
30
0
10
97.195737610058629
20
45.593924336982958
30
0
10
97.979190613055565
20
46.097407309274622
30
0
10
98.202187089557327
20
46.238712371990701
30
0
0
LINE
5
283
100
AcDbEntity
8
0
100
AcDbLine
10
94.525067073680745
20
43.783056732906516
30
0
11
86.968695626895993
21
38.620148078252221
31
0
0
SPLINE
5
284
100
AcDbEntity
8
0
100
AcDbSpline
70
4
71
5
72
12
73
6
74
0
42
0.000000001
43
0.0000000001
44
0.0000000001
40
0.97326120907983904
40
0.97326120907983904
40
0.97326120907983904
40
0.97326120907983904
40
0.97326120907983904
40
0.97326120907983904
40
1
40
1
40
1
40
1
40
1
40
1
41
1
41
1
41
1
41
1
41
1
41
1
10
86.528074869575903
20
38.324977690994807
30
0
10
86.61660900049641
20
38.38311639001725
30
0
10
86.704938529650661
20
38.441701994911014
30
0
10
86.79306295339066
20
38.500735521062808
30
0
10
86.880981994076649
20
38.560217531269025
30
0
10
86.968695626895979
20
38.620148078252214
30
0
0
SPLINE
5
285
100
AcDbEntity
8
0
100
AcDbSpline
70
4
71
5
72
13
73
7
74
0
42
0.000000001
43
0.0000000001
44
0.0000000001
40
0.64708099628440374
40
0.64708099628440374
40
0.64708099628440374
40
0.64708099628440374
40
0.64708099628440374
40
0.64708099628440374
40
0.80000000000000004
40
0.97326120907983915
40
0.97326120907983915
40
0.97326120907983915
40
0.97326120907983915
40
0.97326120907983915
40
0.97326120907983915
41
1
41
1
41
1
41
1
41
1
41
1
41
1
10
80.850584142058409
20
35.390706108959648
30
0
10
81.405355725099184
20
35.615381935538402
30
0
10
82.579544090718343
20
36.115976498699609
30
0
10
83.732073378346641
20
36.665988136320841
30
0
10
84.858214288789952
20
37.274357767735623
30
0
10
85.954394084460091
20
37.948252306625896
30
0
10
86.528074869575917
20
38.324977690994814
30
0
0
SPLINE
5
286
100
AcDbEntity
8
0
100
AcDbSpline
70
4
71
5
72
15
73
9
74
0
42
0.000000001
43
0.0000000001
44
0.0000000001
40
0.1460788162230677
40
0.1460788162230677
40
0.1460788162230677
40
0.1460788162230677
40
0.1460788162230677
40
0.1460788162230677
40
0.20000000000000001
40
0.40000000000000002
40
0.60000000000000009
40
0.64708099628440596
40
0.64708099628440596
40
0.64708099628440596
40
0.64708099628440596
40
0.64708099628440596
40
0.64708099628440596
41
1
41
1
41
1
41
1
41
1
41
1
41
1
41
1
41
1
10
71.441023954948108
20
32.557085593982237
30
0
10
71.648220706927333
20
32.603007616600721
30
0
10
72.623131657884386
20
32.822707983983499
30
0
10
74.359006776788775
20
33.244500867550656
30
0
10
76.25944593496763
20
33.767887127499215
30
0
10
78.135856181771373
20
34.361687835284684
30
0
10
79.781265278540417
20
34.963489865257017
30
0
10
80.679780002578099
20
35.321532484365399
30
0
10
80.850584142058466
20
35.390706108959655
30
0
0
SPLINE
5
287
100
AcDbEntity
8
0
100
AcDbSpline
70
4
71
5
72
12
73
6
74
0
42
0.000000001
43
0.0000000001
44
0.0000000001
40
0
40
0
40
0
40
0
40
0
40
0
40
0.14607881622306759
40
0.14607881622306759
40
0.14607881622306759
40
0.14607881622306759
40
0.14607881622306759
40
0.14607881622306759
41
1
41
1
41
1
41
1
41
1
41
1
10
68.622496606925466
20
31.988860602075757
30
0
10
69.18851180729321
20
32.091712169316651
30
0
10
69.753390182780905
20
32.199973952159056
30
0
10
70.317132002466792
20
32.31364338674441
30
0
10
70.879703632686642
20
32.432677444294207
30
0
10
71.441023954948122
20
32.557085593982237
30
0
0
LINE
5
288
100
AcDbEntity
8
0
100
AcDbLine
10
113.05725970019323
20
33.324977690994821
30
0
11
115.946738272606
21
33.324977690994814
31
0
0
SPLINE
5
289
100
AcDbEntity
8
0
100
AcDbSpline
70
4
71
5
72
16
73
10
74
0
42
0.000000001
43
0.0000000001
44
0.0000000001
40
0.043346349821829694
40
0.043346349821829694
40
0.043346349821829694
40
0.043346349821829694
40
0.043346349821829694
40
0.043346349821829694
40
0.20000000000000001
40
0.40000000000000002
40
0.60000000000000009
40
0.80000000000000004
40
0.90921122709862601
40
0.90921122709862601
40
0.90921122709862601
40
0.90921122709862601
40
0.90921122709862601
40
0.90921122709862601
41
1
41
1
41
1
41
1
41
1
41
1
41
1
41
1
41
1
41
1
10
111.80205501245744
20
23.32497769099481
30
0
10
112.15548957234699
20
23.618599995645656
30
0
10
112.9349934733022
20
24.306717522170977
30
0
10
114.06101130270635
20
25.448978806218882
30
0
10
115.38188197476333
20
27.128147221818072
30
0
10
116.4209484230359
20
29.188716879254923
30
0
10
116.67848282321457
20
30.949113654089764
30
0
10
116.42647168390411
20
32.244240292672359
30
0
10
116.08942659114037
20
33.041870970138199
30
0
10
115.946738272606
20
33.324977690994814
30
0
0
LINE
5
290
100
AcDbEntity
8
0
100
AcDbLine
10
111.80205501245744
20
23.32497769099481
30
0
11
111.43143797576997
21
23.324977690994814
31
0
0
LINE
5
291
100
AcDbEntity
8
0
100
AcDbLine
10
111.43143797576997
20
23.324977690994814
30
0
11
108.54468662982185
21
28.32497769099481
31
0
0
LINE
5
292
100
AcDbEntity
8
0
100
AcDbLine
10
108.54468662982185
20
28.32497769099481
30
0
11
108.72871971109248
21
28.643732338029032
31
0
0
ARC
5
293
100
AcDbEntity
8
0
100
AcDbCircle
10
105.65793528387374
20
35.8249776909948
30
0
40
7.8102497922884364
210
-0
220
0
230
1
100
AcDbArc
50
293.15211794416433
51
341.33149945854126
0
ENDSEC
0
SECTION
2
OBJECTS
0
DICTIONARY
5
C
100
AcDbDictionary
3
ACAD_GROUP
350
D
3
ACAD_MLINESTYLE
350
17
0
DICTIONARY
5
D
100
AcDbDictionary
0
DICTIONARY
5
1A
330
C
100
AcDbDictionary
0
DICTIONARY
5
17
100
AcDbDictionary
0
ENDSEC
0
EOF
