0
SECTION
2
HEADER
9
$INSUNITS
70
4
9
$ACADVER
1
AC1014
9
$HANDSEED
5
FFFF
0
ENDSEC
0
SECTION
2
TABLES
0
TABLE
2
VPORT
5
8
100
AcDbSymbolTable
0
ENDTAB
0
TABLE
2
LTYPE
5
5
100
AcDbSymbolTable
0
LTYPE
5
14
100
AcDbSymbolTableRecord
100
AcDbLinetypeTableRecord
2
BYBLOCK
70
0
0
LTYPE
5
15
100
AcDbSymbolTableRecord
100
AcDbLinetypeTableRecord
2
BYLAYER
70
0
0
ENDTAB
0
TABLE
2
LAYER
5
2
100
AcDbSymbolTable
70
2
0
LAYER
5
50
100
AcDbSymbolTableRecord
100
AcDbLayerTableRecord
2
0
70
0
6
CONTINUOUS
0
ENDTAB
0
TABLE
2
STYLE
5
3
100
AcDbSymbolTable
70
1
0
STYLE
5
11
100
AcDbSymbolTableRecord
100
AcDbTextStyleTableRecord
2
STANDARD
70
0
0
ENDTAB
0
TABLE
2
VIEW
5
6
100
AcDbSymbolTable
70
0
0
ENDTAB
0
TABLE
2
UCS
5
7
100
AcDbSymbolTable
70
0
0
ENDTAB
0
TABLE
2
APPID
5
9
100
AcDbSymbolTable
70
2
0
APPID
5
12
100
AcDbSymbolTableRecord
100
AcDbRegAppTableRecord
2
ACAD
70
0
0
ENDTAB
0
TABLE
2
DIMSTYLE
5
A
100
AcDbSymbolTable
70
1
0
ENDTAB
0
TABLE
2
BLOCK_RECORD
5
1
100
AcDbSymbolTable
70
1
0
BLOCK_RECORD
5
1F
100
AcDbSymbolTableRecord
100
AcDbBlockTableRecord
2
*MODEL_SPACE
0
BLOCK_RECORD
5
1B
100
AcDbSymbolTableRecord
100
AcDbBlockTableRecord
2
*PAPER_SPACE
0
ENDTAB
0
ENDSEC
0
SECTION
2
BLOCKS
0
BLOCK
5
20
100
AcDbEntity
100
AcDbBlockBegin
2
*MODEL_SPACE
0
ENDBLK
5
21
100
AcDbEntity
100
AcDbBlockEnd
0
BLOCK
5
1C
100
AcDbEntity
100
AcDbBlockBegin
2
*PAPER_SPACE
0
ENDBLK
5
1D
100
AcDbEntity
100
AcDbBlockEnd
0
ENDSEC
0
SECTION
2
ENTITIES
0
CIRCLE
5
100
100
AcDbEntity
8
0
100
AcDbCircle
10
16.500000134110447
20
53.000000789761543
30
0
40
2.0000000000000018
210
0
220
0
230
1
0
CIRCLE
5
101
100
AcDbEntity
8
0
100
AcDbCircle
10
59.102859486244924
20
-14.004263301391969
30
0
40
2.0000000000000018
210
0
220
0
230
1
0
CIRCLE
5
102
100
AcDbEntity
8
0
100
AcDbCircle
10
1.4990288303916943
20
-15.975034850200752
30
0
40
2.0000000000000018
210
0
220
0
230
1
0
CIRCLE
5
103
100
AcDbEntity
8
0
100
AcDbCircle
10
101.50000140070915
20
8.0000001192092878
30
0
40
2.0000000000000107
210
0
220
0
230
1
0
SPLINE
5
104
100
AcDbEntity
8
0
100
AcDbSpline
70
4
71
5
72
15
73
9
74
0
42
0.000000001
43
0.0000000001
44
0.0000000001
40
0.26608528691014477
40
0.26608528691014477
40
0.26608528691014477
40
0.26608528691014477
40
0.26608528691014477
40
0.26608528691014477
40
0.40000000000000002
40
0.60000000000000009
40
0.80000000000000004
40
1
40
1
40
1
40
1
40
1
40
1
41
1
41
1
41
1
41
1
41
1
41
1
41
1
41
1
41
1
10
-5.2326972670025658
20
-19.960330579485767
30
0
10
-5.1908780869498239
20
-20.184214096053022
30
0
10
-5.0728136339396475
20
-20.738951309297153
30
0
10
-4.827131063670473
20
-21.604593367163673
30
0
10
-4.3484871600064245
20
-22.699011746265523
30
0
10
-3.6047619691447719
20
-23.517740599803062
30
0
10
-2.7427459060674986
20
-23.879818831329423
30
0
10
-2.0381003245192018
20
-23.960330579485767
30
0
10
-1.653256716582352
20
-23.960330579485767
30
0
0
LINE
5
105
100
AcDbEntity
8
0
100
AcDbLine
10
-1.6532567165823522
20
-23.960330579485767
30
0
11
17.599999774247404
21
-23.960330579485767
31
0
0
SPLINE
5
106
100
AcDbEntity
8
0
100
AcDbSpline
70
4
71
5
72
16
73
10
74
0
42
0.000000001
43
0.0000000001
44
0.0000000001
40
0
40
0
40
0
40
0
40
0
40
0
40
0.10000000000000001
40
0.20000000000000001
40
0.30000000000000004
40
0.40000000000000002
40
0.42923658134149584
40
0.42923658134149584
40
0.42923658134149584
40
0.42923658134149584
40
0.42923658134149584
40
0.42923658134149584
41
1
41
1
41
1
41
1
41
1
41
1
41
1
41
1
41
1
41
1
10
17.599999774247401
20
-23.960330579485767
30
0
10
18.169717957222748
20
-23.960330579485767
30
0
10
19.23304869958136
20
-23.868216270644886
30
0
10
20.599742863439381
20
-23.45372302858026
30
0
10
21.99345059294221
20
-22.400477628432981
30
0
10
23.008516850991867
20
-20.80113285817329
30
0
10
23.589877115651838
20
-19.473864154864323
30
0
10
23.939784455872761
20
-18.573093094743431
30
0
10
24.126404661782416
20
-18.0839195260832
30
0
10
24.168154805362107
20
-17.974334880026774
30
0
0
SPLINE
5
107
100
AcDbEntity
8
0
100
AcDbSpline
70
0
71
3
72
14
73
10
74
0
42
0.000000001
43
0.0000000001
44
0.0000000001
40
0.96846350524240821
40
0.96846350524240821
40
0.96846350524240821
40
0.96846350524240821
40
1.067422267477308
40
1.067422267477308
40
1.3280441852475546
40
1.3280441852475546
40
1.5017216393733772
40
1.5017216393733772
40
1.6494483676284202
40
1.6494483676284202
40
1.6494483676284202
40
1.6494483676284202
10
24.168154805362107
20
-17.974334880026774
30
0
10
24.280268364936319
20
-17.680062245476059
30
0
10
24.38936843714113
20
-17.392406245023228
30
0
10
24.786762977414778
20
-16.389162435086529
30
0
10
25.071186218276932
20
-15.75503754964342
30
0
10
25.66056103794353
20
-14.933368750943846
30
0
10
25.91808045897875
20
-14.679537449329301
30
0
10
26.478544652890609
20
-14.329394081921977
30
0
10
26.754372685052541
20
-14.224782194446933
30
0
10
27.04823190188371
20
-14.155097529601075
30
0
0
SPLINE
5
108
100
AcDbEntity
8
0
100
AcDbSpline
70
4
71
5
72
14
73
8
74
0
42
0.000000001
43
0.0000000001
44
0.0000000001
40
0.78286394046103247
40
0.78286394046103247
40
0.78286394046103247
40
0.78286394046103247
40
0.78286394046103247
40
0.78286394046103247
40
0.79999999999999993
40
0.89999999999999991
40
1
40
1
40
1
40
1
40
1
40
1
41
1
41
1
41
1
41
1
41
1
41
1
41
1
41
1
10
27.04823190188371
20
-14.155097529601075
30
0
10
27.085874984713438
20
-14.146170991107434
30
0
10
27.34524388941157
20
-14.088327617522864
30
0
10
27.852062515645514
20
-14.019824363070214
30
0
10
28.406887506159549
20
-14.003764529816078
30
0
10
29.00726280827433
20
-14.004142753820183
30
0
10
29.59736677938491
20
-14.004263301391969
30
0
10
29.901695812835001
20
-14.004263301391969
30
0
0
LINE
5
109
100
AcDbEntity
8
0
100
AcDbLine
10
29.901695812835001
20
-14.004263301391969
30
0
11
41.861727924017217
21
-14.004263301391973
31
0
0
SPLINE
5
110
100
AcDbEntity
8
0
100
AcDbSpline
70
4
71
5
72
13
73
7
74
0
42
0.000000001
43
0.0000000001
44
0.0000000001
40
-1
40
-1
40
-1
40
-1
40
-1
40
-1
40
-0.89999999999999991
40
-0.80760799617796108
40
-0.80760799617796108
40
-0.80760799617796108
40
-0.80760799617796108
40
-0.80760799617796108
40
-0.80760799617796108
41
1
41
1
41
1
41
1
41
1
41
1
41
1
10
41.861727924017217
20
-14.004263301391969
30
0
10
42.35160455160802
20
-14.004263301391969
30
0
10
43.296846733776533
20
-14.037752097357687
30
0
10
44.247388547876071
20
-14.135674183133773
30
0
10
45.195573328115572
20
-14.302443198784449
30
0
10
46.125886636704777
20
-14.546566010201447
30
0
10
46.566721272230645
20
-14.68255845582174
30
0
0
SPLINE
5
111
100
AcDbEntity
8
0
100
AcDbSpline
70
0
71
3
72
12
73
8
74
0
42
0.000000001
43
0.0000000001
44
0.0000000001
40
0.44337904176387999
40
0.44337904176387999
40
0.44337904176387999
40
0.44337904176387999
40
0.53432795348615725
40
0.53432795348615725
40
0.99607788951289833
40
0.99607788951289833
40
1.2332527483444453
40
1.2332527483444453
40
1.2332527483444453
40
1.2332527483444453
10
46.566721272230645
20
-14.68255845582174
30
0
10
46.891516337337094
20
-14.78275402048407
30
0
10
47.21375515982723
20
-14.895577630241739
30
0
10
49.144576786057982
20
-15.663790614322878
30
0
10
50.261564683180012
20
-16.501102005527656
30
0
10
51.486859724135826
20
-17.696625337582098
30
0
10
51.855998647459188
20
-18.124791334463733
30
0
10
52.189604510141017
20
-18.568491434889104
30
0
0
SPLINE
5
112
100
AcDbEntity
8
0
100
AcDbSpline
70
4
71
5
72
15
73
9
74
0
42
0.000000001
43
0.0000000001
44
0.0000000001
40
-0.53122757123177677
40
-0.53122757123177677
40
-0.53122757123177677
40
-0.53122757123177677
40
-0.53122757123177677
40
-0.53122757123177677
40
-0.5
40
-0.40000000000000002
40
-0.30000000000000004
40
-0.29134070401662415
40
-0.29134070401662415
40
-0.29134070401662415
40
-0.29134070401662415
40
-0.29134070401662415
40
-0.29134070401662415
41
1
41
1
41
1
41
1
41
1
41
1
41
1
41
1
41
1
10
52.189604510141017
20
-18.568491434889104
30
0
10
52.287631978626372
20
-18.698869232394642
30
0
10
52.692138917671869
20
-19.255865613822557
30
0
10
53.350753067778967
20
-20.302610747220491
30
0
10
53.945008820120478
20
-21.488452859393004
30
0
10
54.491048860268904
20
-22.717595917885482
30
0
10
54.973102880584158
20
-23.766292991615749
30
0
10
55.232439829659299
20
-24.299251556419968
30
0
10
55.253162951844594
20
-24.341636819363476
30
0
0
SPLINE
5
113
100
AcDbEntity
8
0
100
AcDbSpline
70
4
71
5
72
14
73
8
74
0
42
0.000000001
43
0.0000000001
44
0.0000000001
40
-0.29134070401662299
40
-0.29134070401662299
40
-0.29134070401662299
40
-0.29134070401662299
40
-0.29134070401662299
40
-0.29134070401662299
40
-0.20000000000000001
40
-0.10000000000000001
40
0
40
0
40
0
40
0
40
0
40
0
41
1
41
1
41
1
41
1
41
1
41
1
41
1
41
1
10
55.253162951844608
20
-24.341636819363512
30
0
10
55.471756307870507
20
-24.788728564999928
30
0
10
55.942717692908552
20
-25.704933979659117
30
0
10
56.72682933491263
20
-27.004826093372483
30
0
10
57.695580332575602
20
-28.063367895133258
30
0
10
58.952950800539945
20
-28.761483484944304
30
0
10
59.967633333258767
20
-29.053333419803042
30
0
10
60.51285727407155
20
-29.15240697255113
30
0
0
LINE
5
114
100
AcDbEntity
8
0
100
AcDbLine
10
60.51285727407155
20
-29.15240697255113
30
0
11
76.122496606925466
21
-31.988860602075757
31
0
0
SPLINE
5
115
100
AcDbEntity
8
0
100
AcDbSpline
70
0
71
3
72
10
73
6
74
0
42
0.000000001
43
0.0000000001
44
0.0000000001
40
-0.53948561234994474
40
-0.53948561234994474
40
-0.53948561234994474
40
-0.53948561234994474
40
-0.26978069817554579
40
-0.26978069817554579
40
-0.11163241270065687
40
-0.11163241270065687
40
-0.11163241270065687
40
-0.11163241270065687
10
76.122496606925466
20
-31.988860602075757
30
0
10
77.007038921139781
20
-32.149592263078368
30
0
10
77.873756629996791
20
-32.362054328241278
30
0
10
79.234194877434675
20
-32.79030636392357
30
0
10
79.728343366634377
20
-32.966617160869404
30
0
10
80.215905868629079
20
-33.160827855877699
30
0
0
SPLINE
5
116
100
AcDbEntity
8
0
100
AcDbSpline
70
0
71
3
72
8
73
4
74
0
42
0.000000001
43
0.0000000001
44
0.0000000001
40
0.42785837538585508
40
0.42785837538585508
40
0.42785837538585508
40
0.42785837538585508
40
0.53949205568197889
40
0.53949205568197889
40
0.53949205568197889
40
0.53949205568197889
10
80.215905868629079
20
-33.160827855877699
30
0
10
80.56006267681822
20
-33.297915783347094
30
0
10
80.900937912227718
20
-33.443922050568858
30
0
10
81.239279861137206
20
-33.598805755439784
30
0
0
SPLINE
5
117
100
AcDbEntity
8
0
100
AcDbSpline
70
0
71
3
72
10
73
6
74
0
42
0.000000001
43
0.0000000001
44
0.0000000001
40
0
40
0
40
0
40
0
40
0.21332473067263288
40
0.21332473067263288
40
0.40001421987120844
40
0.40001421987120844
40
0.40001421987120844
40
0.40001421987120844
10
81.23927986113722
20
-33.598805755439791
30
0
10
81.885837117710395
20
-33.894782011508546
30
0
10
82.495072203946449
20
-34.273012694201505
30
0
10
83.810971254397927
20
-35.277529593146092
30
0
10
84.467769082772179
20
-35.848676616509401
30
0
10
85.02189175057039
20
-36.35871863961178
30
0
0
SPLINE
5
118
100
AcDbEntity
8
0
100
AcDbSpline
70
0
71
3
72
8
73
4
74
0
42
0.000000001
43
0.0000000001
44
0.0000000001
40
0
40
0
40
0
40
0
40
0.030070751561416021
40
0.030070751561416021
40
0.030070751561416021
40
0.030070751561416021
10
85.021891750626992
20
-36.358718639550283
30
0
10
85.095641886613521
20
-36.426601927400803
30
0
10
85.16974261420529
20
-36.494378815778731
30
0
10
85.244194277357963
20
-36.562057056900258
30
0
0
SPLINE
5
119
100
AcDbEntity
8
0
100
AcDbSpline
70
0
71
3
72
8
73
4
74
0
42
0.000000001
43
0.0000000001
44
0.0000000001
40
-1.2706133356394427
40
-1.2706133356394427
40
-1.2706133356394427
40
-1.2706133356394427
40
-0.76261848223982831
40
-0.76261848223982831
40
-0.76261848223982831
40
-0.76261848223982831
10
85.244194277357963
20
-36.562057056900258
30
0
10
86.970199522684851
20
-38.1310347563062
30
0
10
88.866867753308881
20
-39.625622076293624
30
0
10
90.720572508459369
20
-41.003162637749341
30
0
0
SPLINE
5
120
100
AcDbEntity
8
0
100
AcDbSpline
70
0
71
3
72
10
73
6
74
0
42
0.000000001
43
0.0000000001
44
0.0000000001
40
0.69701308695150432
40
0.69701308695150432
40
0.69701308695150432
40
0.69701308695150432
40
0.83585578539342797
40
0.83585578539342797
40
1.5894000839504776
40
1.5894000839504776
40
1.5894000839504776
40
1.5894000839504776
10
90.720572508459369
20
-41.00316263774932
30
0
10
91.137227158946757
20
-41.312790519616755
30
0
10
91.561594043133482
20
-41.623906625293813
30
0
10
94.339144836223483
20
-43.637741688404965
30
0
10
97.567432948103217
20
-45.855866729077555
30
0
10
99.431997074059026
20
-47.129834576059352
30
0
0
SPLINE
5
121
100
AcDbEntity
8
0
100
AcDbSpline
70
0
71
3
72
14
73
10
74
0
42
0.000000001
43
0.0000000001
44
0.0000000001
40
0
40
0
40
0
40
0
40
0.55191327279139102
40
0.55191327279139102
40
0.81549283151372065
40
0.81549283151372065
40
0.93398904783712999
40
0.93398904783712999
40
1.0511542680362436
40
1.0511542680362436
40
1.0511542680362436
40
1.0511542680362436
10
99.431997074058984
20
-47.129834576059352
30
0
10
100.9510018185012
20
-48.167698158702365
30
0
10
102.82509629787936
20
-49.243018732289876
30
0
10
105.35869887749789
20
-50.28603195902663
30
0
10
106.2513585123598
20
-50.584813088160949
30
0
10
107.52358373814106
20
-50.803809104376484
30
0
10
107.92561476024295
20
-50.843876126321575
30
0
10
108.72241125085159
20
-50.840408222275869
30
0
10
109.11536292611586
20
-50.797852416033692
30
0
10
109.50000151991846
20
-50.702366539387782
30
0
0
SPLINE
5
122
100
AcDbEntity
8
0
100
AcDbSpline
70
0
71
3
72
8
73
4
74
0
42
0.000000001
43
0.0000000001
44
0.0000000001
40
0
40
0
40
0
40
0
40
0.099596496296650225
40
0.099596496296650225
40
0.099596496296650225
40
0.099596496296650225
10
109.50000151992
20
-50.702366539387356
30
0
10
109.82220986457151
20
-50.622378865899961
30
0
10
110.12734376278699
20
-50.508067269324499
30
0
10
110.41705629009896
20
-50.35935575793193
30
0
0
SPLINE
5
123
100
AcDbEntity
8
0
100
AcDbSpline
70
0
71
3
72
10
73
6
74
0
42
0.000000001
43
0.0000000001
44
0.0000000001
40
-0.22412674998016138
40
-0.22412674998016138
40
-0.22412674998016138
40
-0.22412674998016138
40
-0.16155381936618521
40
-0.16155381936618521
40
0
40
0
40
0
40
0
10
110.41705629009897
20
-50.35935575793193
30
0
10
110.59924885769929
20
-50.265835010507836
30
0
10
110.77533678663683
20
-50.158709623543345
30
0
10
111.38566241133645
20
-49.726203673203919
30
0
10
111.76398054638682
20
-49.340211900843052
30
0
10
112.09420128744277
20
-48.914829456608274
30
0
0
LINE
5
124
100
AcDbEntity
8
0
100
AcDbLine
10
112.09420128744279
20
-48.914829456608274
30
0
11
120.77403343357588
21
-37.733677715312517
31
0
0
SPLINE
5
125
100
AcDbEntity
8
0
100
AcDbSpline
70
0
71
3
72
10
73
6
74
0
42
0.000000001
43
0.0000000001
44
0.0000000001
40
-0.50201653707816263
40
-0.50201653707816263
40
-0.50201653707816263
40
-0.50201653707816263
40
-0.37956249519858998
40
-0.37956249519858998
40
-0.34354793774020559
40
-0.34354793774020559
40
-0.34354793774020559
40
-0.34354793774020559
10
120.77403343357588
20
-37.73367771531251
30
0
10
121.13091738032918
20
-37.273948368534889
30
0
10
121.44883362260948
20
-36.787261626604668
30
0
10
121.79026164558505
20
-36.115663118382422
30
0
10
121.86266605769791
20
-35.961251625914208
30
0
10
121.92974279477583
20
-35.804932748338317
30
0
0
SPLINE
5
126
100
AcDbEntity
8
0
100
AcDbSpline
70
0
71
3
72
12
73
8
74
0
42
0.000000001
43
0.0000000001
44
0.0000000001
40
0.22865944344240782
40
0.22865944344240782
40
0.22865944344240782
40
0.22865944344240782
40
0.3313885762549808
40
0.3313885762549808
40
0.51416779891658437
40
0.51416779891658437
40
0.66667402751605764
40
0.66667402751605764
40
0.66667402751605764
40
0.66667402751605764
10
121.92974279477581
20
-35.804932748338317
30
0
10
122.06236380636581
20
-35.495866318189194
30
0
10
122.17522376045676
20
-35.176871709148323
30
0
10
122.42799816826326
20
-34.259555896359174
30
0
10
122.51378115969283
20
-33.661163325674941
30
0
10
122.54189812373568
20
-32.544971695228384
30
0
10
122.50541639422804
20
-32.037692609570001
30
0
10
122.42730856843698
20
-31.53613686509533
30
0
0
LINE
5
127
100
AcDbEntity
8
0
100
AcDbLine
10
122.42730856843698
20
-31.53613686509533
30
0
11
122.42279963747683
21
-31.507480464929749
31
0
0
SPLINE
5
128
100
AcDbEntity
8
0
100
AcDbSpline
70
4
71
5
72
14
73
8
74
0
42
0.000000001
43
0.0000000001
44
0.0000000001
40
0.45106811446090339
40
0.45106811446090339
40
0.45106811446090339
40
0.45106811446090339
40
0.45106811446090339
40
0.45106811446090339
40
0.60000000000000009
40
0.80000000000000004
40
1
40
1
40
1
40
1
40
1
40
1
41
1
41
1
41
1
41
1
41
1
41
1
41
1
41
1
10
122.42279963747683
20
-31.507480464929746
30
0
10
122.35770983907531
20
-31.09800060931039
30
0
10
122.1506643035522
20
-30.142968535672097
30
0
10
121.63664757503538
20
-28.66195030302277
30
0
10
120.86212190735807
20
-27.236355660033617
30
0
10
119.83431539149936
20
-25.902713919157478
30
0
10
118.94278624032845
20
-24.988876474210965
30
0
10
118.46135150937764
20
-24.546464239728571
30
0
0
LINE
5
129
100
AcDbEntity
8
0
100
AcDbLine
10
118.46135150937764
20
-24.546464239728571
30
0
11
113.25924584845851
21
-19.766013139087228
31
0
0
SPLINE
5
130
100
AcDbEntity
8
0
100
AcDbSpline
70
4
71
5
72
13
73
7
74
0
42
0.000000001
43
0.0000000001
44
0.0000000001
40
0
40
0
40
0
40
0
40
0
40
0
40
0.20000000000000001
40
0.24395833588782243
40
0.24395833588782243
40
0.24395833588782243
40
0.24395833588782243
40
0.24395833588782243
40
0.24395833588782243
41
1
41
1
41
1
41
1
41
1
41
1
41
1
10
113.25924584845851
20
-19.766013139087228
30
0
10
112.63253622959071
20
-19.190101213690149
30
0
10
111.94814534144638
20
-18.468594470417759
30
0
10
111.3613283132936
20
-17.723914047595095
30
0
10
110.86386530733589
20
-16.957687818216797
30
0
10
110.4455588257764
20
-16.171695309726747
30
0
10
110.37269418049962
20
-16.029437605646635
30
0
0
SPLINE
5
131
100
AcDbEntity
8
0
100
AcDbSpline
70
0
71
3
72
10
73
6
74
0
42
0.000000001
43
0.0000000001
44
0.0000000001
40
0.48582433754817805
40
0.48582433754817805
40
0.48582433754817805
40
0.48582433754817805
40
0.54160639714488679
40
0.54160639714488679
40
0.98971876272377435
40
0.98971876272377435
40
0.98971876272377435
40
0.98971876272377435
10
110.37269418049959
20
-16.029437605646631
30
0
10
110.28887615135774
20
-15.865795000361903
30
0
10
110.20814176496542
20
-15.699390639544413
30
0
10
109.50671765121852
20
-14.170073059275349
30
0
10
109.10292074518956
20
-12.671592473666005
30
0
10
108.86805412459981
20
-10.971894085811027
30
0
0
SPLINE
5
132
100
AcDbEntity
8
0
100
AcDbSpline
70
4
71
5
72
14
73
8
74
0
42
0.000000001
43
0.0000000001
44
0.0000000001
40
0.54055614181608269
40
0.54055614181608269
40
0.54055614181608269
40
0.54055614181608269
40
0.54055614181608269
40
0.54055614181608269
40
0.60000000000000009
40
0.80000000000000004
40
0.8901465133365275
40
0.8901465133365275
40
0.8901465133365275
40
0.8901465133365275
40
0.8901465133365275
40
0.8901465133365275
41
1
41
1
41
1
41
1
41
1
41
1
41
1
41
1
10
108.86805412459981
20
-10.971894085811027
30
0
10
108.83874426908039
20
-10.759782573117114
30
0
10
108.72150995099082
20
-9.8302215754193156
30
0
10
108.62346370335467
20
-8.5555616126869367
30
0
10
108.59007961152095
20
-7.2519794784571969
30
0
10
108.60771592771908
20
-5.9183605114419482
30
0
10
108.65420115902359
20
-4.7896969740770778
30
0
10
108.6716520450674
20
-4.4368952801950812
30
0
0
SPLINE
5
133
100
AcDbEntity
8
0
100
AcDbSpline
70
4
71
5
72
12
73
6
74
0
42
0.000000001
43
0.0000000001
44
0.0000000001
40
0.89014651333658024
40
0.89014651333658024
40
0.89014651333658024
40
0.89014651333658024
40
0.89014651333658024
40
0.89014651333658024
40
1
40
1
40
1
40
1
40
1
40
1
41
1
41
1
41
1
41
1
41
1
41
1
10
108.67165204506748
20
-4.4368952801940491
30
0
10
108.69291787783601
20
-4.0069674356304343
30
0
10
108.71865099123532
20
-3.5738709547275835
30
0
10
108.74873190348865
20
-3.1375546266650476
30
0
10
108.78311358444395
20
-2.6979789643522336
30
0
10
108.82179700736134
20
-2.2551426000506813
30
0
0
LINE
5
134
100
AcDbEntity
8
0
100
AcDbLine
10
108.82179700736134
20
-2.2551426000506818
30
0
11
110.30767421611438
21
14.754739444979776
31
0
0
SPLINE
5
135
100
AcDbEntity
8
0
100
AcDbSpline
70
0
71
3
72
8
73
4
74
0
42
0.000000001
43
0.0000000001
44
0.0000000001
40
0
40
0
40
0
40
0
40
0.063565145175549884
40
0.063565145175549884
40
0.063565145175549884
40
0.063565145175549884
10
110.30767421611438
20
14.754739444979776
30
0
10
110.32611284896046
20
14.965819450740568
30
0
10
110.34411623765394
20
15.176926732193641
30
0
10
110.36167227388887
20
15.388069678643257
30
0
0
SPLINE
5
136
100
AcDbEntity
8
0
100
AcDbSpline
70
0
71
3
72
8
73
4
74
0
42
0.000000001
43
0.0000000001
44
0.0000000001
40
0.031101603399335737
40
0.031101603399335737
40
0.031101603399335737
40
0.031101603399335737
40
0.14534287605048793
40
0.14534287605048793
40
0.14534287605048793
40
0.14534287605048793
10
110.36167227388887
20
15.388069678643257
30
0
10
110.42613653814
20
16.163368528141429
30
0
10
110.48448974729916
20
16.93819308013348
30
0
10
110.53618936160905
20
17.713103776760885
30
0
0
SPLINE
5
137
100
AcDbEntity
8
0
100
AcDbSpline
70
0
71
3
72
8
73
4
74
0
42
0.000000001
43
0.0000000001
44
0.0000000001
40
0.14534287605048807
40
0.14534287605048807
40
0.14534287605048807
40
0.14534287605048807
40
0.34645100138415785
40
0.34645100138415785
40
0.34645100138415785
40
0.34645100138415785
10
110.53618936160905
20
17.713103776760889
30
0
10
110.62720036203868
20
19.077241569374792
30
0
10
110.69759227112405
20
20.441646319046569
30
0
10
110.74440536411439
20
21.809375413654184
30
0
0
SPLINE
5
138
100
AcDbEntity
8
0
100
AcDbSpline
70
0
71
3
72
10
73
6
74
0
42
0.000000001
43
0.0000000001
44
0.0000000001
40
0.41113146384051885
40
0.41113146384051885
40
0.41113146384051885
40
0.41113146384051885
40
0.87567025062645054
40
0.87567025062645054
40
1.7439688784429421
40
1.7439688784429421
40
1.7439688784429421
40
1.7439688784429421
10
110.74440536411439
20
21.809375413654184
30
0
10
110.79718036317971
20
23.351292366340708
30
0
10
110.81986498238501
20
24.893741417353425
30
0
10
110.7877261000865
20
29.335652839239085
30
0
10
110.64799137720573
20
32.317540174741822
30
0
10
110.29601011506131
20
35.274303961923074
30
0
0
LINE
5
139
100
AcDbEntity
8
0
100
AcDbLine
10
110.29601011506131
20
35.274303961923067
30
0
11
110.28879677512566
21
35.334655955741781
31
0
0
LINE
5
140
100
AcDbEntity
8
0
100
AcDbLine
10
110.28879677512566
20
35.334655955741781
30
0
11
107.28879673042218
21
60.334656328270881
31
0
0
SPLINE
5
141
100
AcDbEntity
8
0
100
AcDbSpline
70
0
71
3
72
20
73
16
74
0
42
0.000000001
43
0.0000000001
44
0.0000000001
40
-1
40
-1
40
-1
40
-1
40
-0.99032961220498306
40
-0.99032961220498306
40
-0.99032961220498306
40
-0.80778318786144321
40
-0.80778318786144321
40
-0.80778318786144321
40
-0.61976440982799463
40
-0.61976440982799463
40
-0.61976440982799463
40
-0.36291265934012851
40
-0.36291265934012851
40
-0.36291265934012851
40
-0.15125806560064203
40
-0.15125806560064203
40
-0.15125806560064203
40
-0.15125806560064203
10
107.28879673042218
20
60.334656328270881
30
0
10
107.28236309375367
20
60.388269967175191
30
0
10
107.27535240222905
20
60.442044611941895
30
0
10
107.26773868251709
20
60.49596577432748
30
0
10
107.12401566552612
20
61.513827270534293
30
0
10
106.72768839327497
20
62.607909761929065
30
0
10
106.08619471604439
20
63.493945113808095
30
0
10
105.42547042224997
20
64.406541921736931
30
0
10
104.56928083872641
20
65.049498767945479
30
0
10
103.78695173264596
20
65.462335562459728
30
0
10
102.71821486255193
20
66.026310365646239
30
0
10
101.76394977515996
20
66.247423004044975
30
0
10
100.90177770611399
20
66.399328140391475
30
0
10
100.1913185456806
20
66.524503148384582
30
0
10
99.533022428123914
20
66.594462572710057
30
0
10
98.900116324752219
20
66.631034680731446
30
0
0
SPLINE
5
142
100
AcDbEntity
8
0
100
AcDbSpline
70
0
71
3
72
8
73
4
74
0
42
0.000000001
43
0.0000000001
44
0.0000000001
40
1.1617850948689785
40
1.1617850948689785
40
1.1617850948689785
40
1.1617850948689785
40
1.2026561548999708
40
1.2026561548999708
40
1.2026561548999708
40
1.2026561548999708
10
98.900116324752219
20
66.631034680731446
30
0
10
98.795681310158642
20
66.637069396804776
30
0
10
98.698138586647929
20
66.641838419141251
30
0
10
98.60855527901208
20
66.645672404905895
30
0
0
SPLINE
5
143
100
AcDbEntity
8
0
100
AcDbSpline
70
0
71
3
72
10
73
6
74
0
42
0.000000001
43
0.0000000001
44
0.0000000001
40
0
40
0
40
0
40
0
40
0.052209890751163328
40
0.052209890751163328
40
0.10373649473469654
40
0.10373649473469654
40
0.10373649473469654
40
0.10373649473469654
10
98.60855527901208
20
66.645672404905909
30
0
10
98.434681476546842
20
66.65311385467021
30
0
10
98.261238266285289
20
66.658289778349271
30
0
10
97.915454704340377
20
66.664845580200875
30
0
10
97.744145936417709
20
66.666255363326457
30
0
10
97.5723350274219
20
66.666255363326457
30
0
0
LINE
5
144
100
AcDbEntity
8
0
100
AcDbLine
10
97.5723350274219
20
66.666255363326457
30
0
11
66.608173770916309
21
66.666255363326457
31
0
0
SPLINE
5
145
100
AcDbEntity
8
0
100
AcDbSpline
70
0
71
3
72
10
73
6
74
0
42
0.000000001
43
0.0000000001
44
0.0000000001
40
0
40
0
40
0
40
0
40
0.015471371811003607
40
0.015471371811003607
40
0.10737688154743921
40
0.10737688154743921
40
0.10737688154743921
40
0.10737688154743921
10
66.608173770916309
20
66.666255363326457
30
0
10
66.56102614831093
20
66.687152597899967
30
0
10
66.455148487428701
20
66.745079286372459
30
0
10
65.31243308276072
20
67.520762031910394
30
0
10
63.981545816166374
20
68.916406642960212
30
0
10
61.921689315053428
20
69.617990077768553
30
0
0
SPLINE
5
146
100
AcDbEntity
8
0
100
AcDbSpline
70
0
71
3
72
10
73
6
74
0
42
0.000000001
43
0.0000000001
44
0.0000000001
40
0
40
0
40
0
40
0
40
0.063673664319790713
40
0.063673664319790713
40
0.12953857472270297
40
0.12953857472270297
40
0.12953857472270297
40
0.12953857472270297
10
61.921689315042144
20
69.61799007777239
30
0
10
61.720777673396924
20
69.686420223057553
30
0
10
61.517261942626327
20
69.746772383641726
30
0
10
61.098420071383472
20
69.851762638261704
30
0
10
60.882401339726741
20
69.895920777715077
30
0
10
60.663756369979026
20
69.929938205334636
30
0
0
SPLINE
5
147
100
AcDbEntity
8
0
100
AcDbSpline
70
0
71
3
72
10
73
6
74
0
42
0.000000001
43
0.0000000001
44
0.0000000001
40
0
40
0
40
0
40
0
40
0.094555947227626641
40
0.094555947227626641
40
0.1019275817451271
40
0.1019275817451271
40
0.1019275817451271
40
0.1019275817451271
10
60.663756369979026
20
69.929938205334636
30
0
10
60.352316703195967
20
69.978392904909356
30
0
10
60.035541500842378
20
70.006498963897585
30
0
10
59.695846188844648
20
70.015979753853003
30
0
10
59.671262229596977
20
70.016548794573907
30
0
10
59.64666506495179
20
70.017000952054772
30
0
0
SPLINE
5
148
100
AcDbEntity
8
0
100
AcDbSpline
70
0
71
3
72
8
73
4
74
0
42
0.000000001
43
0.0000000001
44
0.0000000001
40
0.95083620476514108
40
0.95083620476514108
40
0.95083620476514108
40
0.95083620476514108
40
1
40
1
40
1
40
1
10
59.64666506495179
20
70.017000952054772
30
0
10
59.353923288538283
20
70.022382278970824
30
0
10
59.061127766212408
20
70.011174407320098
30
0
10
58.773563264411251
20
69.983576839097083
30
0
0
LINE
5
149
100
AcDbEntity
8
0
100
AcDbLine
10
58.773563264411251
20
69.983576839097083
30
0
11
22.264887226523463
21
66.479838820749691
31
0
0
SPLINE
5
150
100
AcDbEntity
8
0
100
AcDbSpline
70
0
71
3
72
8
73
4
74
0
42
0.000000001
43
0.0000000001
44
0.0000000001
40
0
40
0
40
0
40
0
40
0.033623868513582553
40
0.033623868513582553
40
0.033623868513582553
40
0.033623868513582553
10
22.264887226523463
20
66.479838820749691
30
0
10
21.899763582500373
20
66.444797900842502
30
0
10
21.537053213423594
20
66.393514381844184
30
0
10
21.178583456227791
20
66.326953889447708
30
0
0
SPLINE
5
151
100
AcDbEntity
8
0
100
AcDbSpline
70
0
71
3
72
8
73
4
74
0
42
0.000000001
43
0.0000000001
44
0.0000000001
40
0.03362386851367636
40
0.03362386851367636
40
0.03362386851367636
40
0.03362386851367636
40
0.13979111546090431
40
0.13979111546090431
40
0.13979111546090431
40
0.13979111546090431
10
21.178583456224793
20
66.326953889447168
30
0
10
20.046716454664775
20
66.116789368064431
30
0
10
18.957127438051586
20
65.754316720051548
30
0
10
17.967340166086895
20
65.269933415778524
30
0
0
SPLINE
5
152
100
AcDbEntity
8
0
100
AcDbSpline
70
0
71
3
72
11
73
7
74
0
42
0.000000001
43
0.0000000001
44
0.0000000001
40
0.13979111546090417
40
0.13979111546090417
40
0.13979111546090417
40
0.13979111546090417
40
0.17112855423075315
40
0.17112855423075315
40
0.17112855423075315
40
0.25423906196567414
40
0.25423906196567414
40
0.25423906196567414
40
0.25423906196567414
10
17.967340166086903
20
65.269933415778553
30
0
10
17.675184167676321
20
65.126957756380122
30
0
10
17.39172345822125
20
64.97336055537771
30
0
10
17.118437371219727
20
64.809923541858652
30
0
10
16.393651098340285
20
64.376469701677024
30
0
10
15.742540510852256
20
63.887569577003376
30
0
10
15.151776527767232
20
63.370051113467802
30
0
0
SPLINE
5
153
100
AcDbEntity
8
0
100
AcDbSpline
70
0
71
3
72
14
73
10
74
0
42
0.000000001
43
0.0000000001
44
0.0000000001
40
0.26602499799792756
40
0.26602499799792756
40
0.26602499799792756
40
0.26602499799792756
40
0.32305661999835161
40
0.32305661999835161
40
0.67154477362910359
40
0.67154477362910359
40
0.9132617821765332
40
0.9132617821765332
40
0.94646252526735031
40
0.94646252526735031
40
0.94646252526735031
40
0.94646252526735031
10
15.151776527767232
20
63.370051113467802
30
0
10
14.92397434902486
20
63.170492851778981
30
0
10
14.691425723176387
20
62.954626990922392
30
0
10
13.007681231635576
20
61.292699189795137
30
0
10
11.846662921697252
20
59.638280157986671
30
0
10
9.9768264680757301
20
57.117411489408276
30
0
10
9.130348094345667
20
56.018747803404224
30
0
10
8.0923627554082067
20
55.254428145618313
30
0
10
7.974818619840037
20
55.176863407841275
30
0
10
7.8651228786123379
20
55.111521884458611
30
0
0
SPLINE
5
154
100
AcDbEntity
8
0
100
AcDbSpline
70
0
71
3
72
11
73
7
74
0
42
0.000000001
43
0.0000000001
44
0.0000000001
40
0.80466223765500355
40
0.80466223765500355
40
0.80466223765500355
40
0.80466223765500355
40
0.82115989298640035
40
0.82115989298640035
40
0.82115989298640035
40
1
40
1
40
1
40
1
10
7.8651228786123379
20
55.111521884458611
30
0
10
7.8173710929941889
20
55.083077986987199
30
0
10
7.7701260588455856
20
55.056363537452228
30
0
10
7.7233657260985966
20
55.031325281366428
30
0
10
7.2164680643109866
20
54.759902202882209
30
0
10
6.7402855796637713
20
54.616718719568809
30
0
10
5.9049452286880779
20
54.616718719568809
30
0
0
LINE
5
155
100
AcDbEntity
8
0
100
AcDbLine
10
5.9049452286880761
20
54.616718719568809
30
0
11
-0.4547847353822343
21
54.616718719568809
31
0
0
SPLINE
5
156
100
AcDbEntity
8
0
100
AcDbSpline
70
4
71
5
72
12
73
6
74
0
42
0.000000001
43
0.0000000001
44
0.0000000001
40
-1
40
-1
40
-1
40
-1
40
-1
40
-1
40
-0.87150007615642566
40
-0.87150007615642566
40
-0.87150007615642566
40
-0.87150007615642566
40
-0.87150007615642566
40
-0.87150007615642566
41
1
41
1
41
1
41
1
41
1
41
1
10
-0.45478473538223541
20
54.616718719568809
30
0
10
-0.70231533244662347
20
54.616718719568809
30
0
10
-0.9414405469885232
20
54.603825973035285
30
0
10
-1.1721646677443303
20
54.578047801057409
30
0
10
-1.3946491989793952
20
54.539735418262218
30
0
10
-1.6091011457224382
20
54.489399891683981
30
0
0
SPLINE
5
157
100
AcDbEntity
8
0
100
AcDbSpline
70
4
71
5
72
16
73
10
74
0
42
0.000000001
43
0.0000000001
44
0.0000000001
40
-0.87150007615642555
40
-0.87150007615642555
40
-0.87150007615642555
40
-0.87150007615642555
40
-0.87150007615642555
40
-0.87150007615642555
40
-0.80000000000000004
40
-0.60000000000000009
40
-0.40000000000000002
40
-0.20000000000000001
40
-0.1845229922154501
40
-0.1845229922154501
40
-0.1845229922154501
40
-0.1845229922154501
40
-0.1845229922154501
40
-0.1845229922154501
41
1
41
1
41
1
41
1
41
1
41
1
41
1
41
1
41
1
41
1
10
-1.6091011457224402
20
54.489399891684002
30
0
10
-1.7284267458114078
20
54.461392139803152
30
0
10
-2.1720865441301838
20
54.340906338997939
30
0
10
-2.8811872073545475
20
54.040659171745489
30
0
10
-3.7486732546943546
20
53.412277608092893
30
0
10
-4.4488837327600788
20
52.550830377304948
30
0
10
-4.9131953348281794
20
51.653163927309876
30
0
10
-5.1403688787340833
20
50.996255010492995
30
0
10
-5.2333554894390772
20
50.642216867426697
30
0
10
-5.2399057064676828
20
50.616718719568809
30
0
0
SPLINE
5
158
100
AcDbEntity
8
0
100
AcDbSpline
70
4
71
5
72
12
73
6
74
0
42
0.000000001
43
0.0000000001
44
0.0000000001
40
-0.18452299221544952
40
-0.18452299221544952
40
-0.18452299221544952
40
-0.18452299221544952
40
-0.18452299221544952
40
-0.18452299221544952
40
0
40
0
40
0
40
0
40
0
40
0
41
1
41
1
41
1
41
1
41
1
41
1
10
-5.2399057064676802
20
50.616718719568809
30
0
10
-5.3179999778283999
20
50.312719742234968
30
0
10
-5.3777994313024635
20
49.998948753587094
30
0
10
-5.4182880377003073
20
49.675605340779413
30
0
10
-5.4385400851528782
20
49.342624497172665
30
0
10
-5.4385400851528782
20
49.000000730156898
30
0
0
LINE
5
159
100
AcDbEntity
8
0
100
AcDbLine
10
-5.43854008515288
20
49.000000730156891
30
0
11
-5.4385400851528809
21
-17.725711608306725
31
0
0
SPLINE
5
160
100
AcDbEntity
8
0
100
AcDbSpline
70
4
71
5
72
13
73
7
74
0
42
0.000000001
43
0.0000000001
44
0.0000000001
40
0
40
0
40
0
40
0
40
0
40
0
40
0.20000000000000001
40
0.26608528691014466
40
0.26608528691014466
40
0.26608528691014466
40
0.26608528691014466
40
0.26608528691014466
40
0.26608528691014466
41
1
41
1
41
1
41
1
41
1
41
1
41
1
10
-5.4385400851528782
20
-17.725711608306721
30
0
10
-5.4385400851528782
20
-18.058465677057896
30
0
10
-5.4231275253107558
20
-18.503991214746286
30
0
10
-5.3872222332123272
20
-18.953258126748011
30
0
10
-5.3310058491050105
20
-19.403613952745427
30
0
10
-5.2533345252124093
20
-19.849846779121933
30
0
10
-5.2326972670025658
20
-19.960330579485763
30
0
0
SPLINE
5
161
100
AcDbEntity
8
0
100
AcDbSpline
70
4
71
3
72
8
73
4
74
0
42
0.000000001
43
0.0000000001
44
0.0000000001
40
0.25216119539782306
40
0.25216119539782306
40
0.25216119539782306
40
0.25216119539782306
40
1
40
1
40
1
40
1
41
1
41
1
41
1
41
1
10
-2.4385400851528773
20
11.553209283539482
30
0
10
0.19197658369716541
20
11.437705364944486
30
0
10
0.61173340110965757
20
10.990979450657365
30
0
10
2.2763702487826745
20
9.2193907905451571
30
0
0
SPLINE
5
162
100
AcDbEntity
8
0
100
AcDbSpline
70
4
71
3
72
8
73
4
74
0
42
0.000000001
43
0.0000000001
44
0.0000000001
40
0
40
0
40
0
40
0
40
0.8561027289178843
40
0.8561027289178843
40
0.8561027289178843
40
0.8561027289178843
41
1
41
1
41
1
41
1
10
2.2763702487826745
20
9.2193907905451571
30
0
10
4.1819950160187567
20
7.1913308970112251
30
0
10
4.4562092197305203
20
6.8994986127406062
30
0
10
3.2361371115345094
20
2.2125309117550178
30
0
0
ARC
5
163
100
AcDbEntity
8
0
100
AcDbCircle
10
2.4999999999999947
20
-5.0000000000000018
30
0
40
7.2500000000000062
210
0
220
-0
230
1
100
AcDbArc
50
84.172364118130957
51
132.93576036190953
0
LINE
5
164
100
AcDbEntity
8
0
100
AcDbLine
10
-2.438540085152876
20
0.30785472929867774
30
0
11
-2.4385400851528773
21
11.553209283539482
31
0
0
SPLINE
5
165
100
AcDbEntity
8
0
100
AcDbSpline
70
4
71
3
72
8
73
4
74
0
42
0.000000001
43
0.0000000001
44
0.0000000001
40
0
40
0
40
0
40
0
40
0.087121517378101199
40
0.087121517378101199
40
0.087121517378101199
40
0.087121517378101199
41
1
41
1
41
1
41
1
10
74.752518091189899
20
-25.935238281008406
30
0
10
74.256077449924419
20
-25.848078466729163
30
0
10
73.802887470614138
20
-25.768512147724323
30
0
10
73.387692155734655
20
-25.692942194825097
30
0
0
ARC
5
166
100
AcDbEntity
8
0
100
AcDbCircle
10
67.115704076027981
20
-22.056368872586553
30
0
40
7.2499999999999858
210
-0
220
0
230
1
100
AcDbArc
50
-30.105668018043751
51
104.01901249397959
0
SPLINE
5
167
100
AcDbEntity
8
0
100
AcDbSpline
70
4
71
3
72
8
73
4
74
0
42
0.000000001
43
0.0000000001
44
0.0000000001
40
0.67274224239964964
40
0.67274224239964964
40
0.67274224239964964
40
0.67274224239964964
40
1
40
1
40
1
40
1
41
1
41
1
41
1
41
1
10
65.359436119259598
20
-15.022307253292293
30
0
10
65.634017273322058
20
-14.288107347109079
30
0
10
66.159397041152886
20
-13.428033163056357
30
0
10
66.94034958838229
20
-12.149572959658299
30
0
0
SPLINE
5
168
100
AcDbEntity
8
0
100
AcDbSpline
70
4
71
3
72
8
73
4
74
0
42
0.000000001
43
0.0000000001
44
0.0000000001
40
0
40
0
40
0
40
0
40
1
40
1
40
1
40
1
41
1
41
1
41
1
41
1
10
66.94034958838229
20
-12.149572959658299
30
0
10
69.32670263607109
20
-8.242988092816665
30
0
10
69.32670263607109
20
-8.242988092816665
30
0
10
72.015209398257767
20
-7.5352551292546561
30
0
0
SPLINE
5
169
100
AcDbEntity
8
0
100
AcDbSpline
70
4
71
3
72
8
73
4
74
0
42
0.000000001
43
0.0000000001
44
0.0000000001
40
0
40
0
40
0
40
0
40
1
40
1
40
1
40
1
41
1
41
1
41
1
41
1
10
72.015209398257767
20
-7.5352551292546561
30
0
10
74.703716160444458
20
-6.8275140912500927
30
0
10
74.703716160444458
20
-6.8275140912500927
30
0
10
79.126903861351835
20
-9.4328540952173885
30
0
0
SPLINE
5
170
100
AcDbEntity
8
0
100
AcDbSpline
70
4
71
3
72
8
73
4
74
0
42
0.000000001
43
0.0000000001
44
0.0000000001
40
0
40
0
40
0
40
0
40
1
40
1
40
1
40
1
41
1
41
1
41
1
41
1
10
79.126903861351835
20
-9.4328540952173885
30
0
10
83.550091562259254
20
-12.038194099184667
30
0
10
83.550091562259254
20
-12.038194099184667
30
0
10
84.190919694888635
20
-17.043274576581315
30
0
0
SPLINE
5
171
100
AcDbEntity
8
0
100
AcDbSpline
70
4
71
3
72
8
73
4
74
0
42
0.000000001
43
0.0000000001
44
0.0000000001
40
0
40
0
40
0
40
0
40
1
40
1
40
1
40
1
41
1
41
1
41
1
41
1
10
84.190919694888635
20
-17.043274576581315
30
0
10
84.831747827518029
20
-22.048355053977957
30
0
10
84.831747827518029
20
-22.048355053977957
30
0
10
82.641256532657195
20
-24.492012420412692
30
0
0
SPLINE
5
172
100
AcDbEntity
8
0
100
AcDbSpline
70
4
71
3
72
8
73
4
74
0
42
0.000000001
43
0.0000000001
44
0.0000000001
40
0
40
0
40
0
40
0
40
1
40
1
40
1
40
1
41
1
41
1
41
1
41
1
10
82.641256532657195
20
-24.492012420412692
30
0
10
80.450765237796347
20
-26.935669786847427
30
0
10
80.450765237796347
20
-26.935669786847427
30
0
10
74.752518091189899
20
-25.935238281008406
30
0
0
SPLINE
5
173
100
AcDbEntity
8
0
100
AcDbSpline
70
4
71
3
72
8
73
4
74
0
42
0.000000001
43
0.0000000001
44
0.0000000001
40
0
40
0
40
0
40
0
40
0.23205342987267236
40
0.23205342987267236
40
0.23205342987267236
40
0.23205342987267236
41
1
41
1
41
1
41
1
10
107.00784496624078
20
-42.891139681256618
30
0
10
107.41808360653224
20
-41.990700290408469
30
0
10
107.73312496327776
20
-41.299210948599097
30
0
10
108.0742354976539
20
-40.742395716926261
30
0
0
ARC
5
174
100
AcDbEntity
8
0
100
AcDbCircle
10
112.5
20
-35
30
0
40
7.2499999999999822
210
0
220
0
230
1
100
AcDbArc
50
232.37793201037769
51
291.14259746042779
0
LINE
5
175
100
AcDbEntity
8
0
100
AcDbLine
10
115.11500487609992
20
-41.761970829423433
30
0
11
110.51435955084881
21
-47.688411873843023
31
0
0
SPLINE
5
176
100
AcDbEntity
8
0
100
AcDbSpline
70
0
71
3
72
10
73
6
74
0
42
0.000000001
43
0.0000000001
44
0.0000000001
40
-0.14040019920448243
40
-0.14040019920448243
40
-0.14040019920448243
40
-0.14040019920448243
40
-0.070190965522535634
40
-0.070190965522535634
40
0
40
0
40
0
40
0
10
110.51435955084881
20
-47.688411873843023
30
0
10
110.37095358346475
20
-47.873144004019395
30
0
10
110.21553835356332
20
-48.05063327668725
30
0
10
109.87896110165075
20
-48.375578323452402
30
0
10
109.69705300299756
20
-48.523782004609828
30
0
10
109.50000151991847
20
-48.649927238916959
30
0
0
SPLINE
5
177
100
AcDbEntity
8
0
100
AcDbSpline
70
0
71
3
72
12
73
8
74
0
42
0.000000001
43
0.0000000001
44
0.0000000001
40
-1.3659140627843742
40
-1.3659140627843742
40
-1.3659140627843742
40
-1.3659140627843742
40
-1.2779348447757695
40
-1.2779348447757695
40
-1.1897236612383291
40
-1.1897236612383291
40
-1.1727760581479552
40
-1.1727760581479552
40
-1.1727760581479552
40
-1.1727760581479552
10
109.50000151991841
20
-48.649927238916959
30
0
10
109.33991764579514
20
-48.752407146677754
30
0
10
109.17168925621397
20
-48.839153846903152
30
0
10
108.81652838280598
20
-48.97622371424859
30
0
10
108.63367541250356
20
-49.024860114343909
30
0
10
108.40909745280314
20
-49.059375787226799
30
0
10
108.37288698846146
20
-49.064183058008211
30
0
10
108.33666635288284
20
-49.06825924058262
30
0
0
SPLINE
5
178
100
AcDbEntity
8
0
100
AcDbSpline
70
4
71
3
72
8
73
4
74
0
42
0.000000001
43
0.0000000001
44
0.0000000001
40
0.2741185318708802
40
0.2741185318708802
40
0.2741185318708802
40
0.2741185318708802
40
1
40
1
40
1
40
1
41
1
41
1
41
1
41
1
10
108.33666635288289
20
-49.06825924058262
30
0
10
105.33991418092711
20
-47.203013303984456
30
0
10
105.32958353141161
20
-47.158401125069744
30
0
10
105.29189673422579
20
-46.995653358217879
30
0
0
SPLINE
5
179
100
AcDbEntity
8
0
100
AcDbSpline
70
4
71
3
72
8
73
4
74
0
42
0.000000001
43
0.0000000001
44
0.0000000001
40
0
40
0
40
0
40
0
40
1
40
1
40
1
40
1
41
1
41
1
41
1
41
1
10
105.29189673422579
20
-46.995653358217879
30
0
10
105.23997806865776
20
-46.771446274833686
30
0
10
105.23997806865776
20
-46.771446274833686
30
0
10
107.00784496624078
20
-42.891139681256618
30
0
0
SPLINE
5
180
100
AcDbEntity
8
0
100
AcDbSpline
70
0
71
3
72
8
73
4
74
0
42
0.000000001
43
0.0000000001
44
0.0000000001
40
-0.57304592817493261
40
-0.57304592817493261
40
-0.57304592817493261
40
-0.57304592817493261
40
-0.48307394048533475
40
-0.48307394048533475
40
-0.48307394048533475
40
-0.48307394048533475
10
120.34332779638974
20
-31.150643441891109
30
0
10
120.41652572205813
20
-31.441207514554996
30
0
10
120.47265710075025
20
-31.735888291486674
30
0
10
120.50858605120867
20
-32.03298428549666
30
0
0
SPLINE
5
181
100
AcDbEntity
8
0
100
AcDbSpline
70
4
71
3
72
8
73
4
74
0
42
0.000000001
43
0.0000000001
44
0.0000000001
40
0.78477965341516032
40
0.78477965341516032
40
0.78477965341516032
40
0.78477965341516032
40
0.86223988854960276
40
0.86223988854960276
40
0.86223988854960276
40
0.86223988854960276
41
1
41
1
41
1
41
1
10
120.50858605120865
20
-32.032984285496639
30
0
10
120.12846199875447
20
-32.134160144393903
30
0
10
119.71150363679175
20
-32.244073995066309
30
0
10
119.2538287137471
20
-32.364037613059523
30
0
0
ARC
5
182
100
AcDbEntity
8
0
100
AcDbCircle
10
112.5
20
-35
30
0
40
7.2499999999999645
210
0
220
-0
230
1
100
AcDbArc
50
21.320282243939282
51
145.02220423277734
0
SPLINE
5
183
100
AcDbEntity
8
0
100
AcDbSpline
70
4
71
3
72
8
73
4
74
0
42
0.000000001
43
0.0000000001
44
0.0000000001
40
0.94480325329020176
40
0.94480325329020176
40
0.94480325329020176
40
0.94480325329020176
40
1
40
1
40
1
40
1
41
1
41
1
41
1
41
1
10
106.55953657987078
20
-30.843872673496826
30
0
10
106.44668426299289
20
-30.59146740043294
30
0
10
106.3286516211042
20
-30.323948922508031
30
0
10
106.20372334479097
20
-30.040801635500607
30
0
0
SPLINE
5
184
100
AcDbEntity
8
0
100
AcDbSpline
70
4
71
3
72
8
73
4
74
0
42
0.000000001
43
0.0000000001
44
0.0000000001
40
0
40
0
40
0
40
0
40
1
40
1
40
1
40
1
41
1
41
1
41
1
41
1
10
106.20372334479097
20
-30.040801635500607
30
0
10
103.94040057816906
20
-24.911019467430133
30
0
10
103.94040057816906
20
-24.911019467430133
30
0
10
107.01919359523856
20
-20.353820243593859
30
0
0
SPLINE
5
185
100
AcDbEntity
8
0
100
AcDbSpline
70
4
71
3
72
8
73
4
74
0
42
0.000000001
43
0.0000000001
44
0.0000000001
40
0
40
0
40
0
40
0
40
0.25526330893339927
40
0.25526330893339927
40
0.25526330893339927
40
0.25526330893339927
41
1
41
1
41
1
41
1
10
107.01919359523856
20
-20.353820243593859
30
0
10
107.80509648829678
20
-19.190534490248702
30
0
10
108.39038720837263
20
-18.324192907537512
30
0
10
108.86167945880712
20
-17.675057643597693
30
0
0
SPLINE
5
186
100
AcDbEntity
8
0
100
AcDbSpline
70
4
71
5
72
13
73
7
74
0
42
0.000000001
43
0.0000000001
44
0.0000000001
40
-0.21958178186013291
40
-0.21958178186013291
40
-0.21958178186013291
40
-0.21958178186013291
40
-0.21958178186013291
40
-0.21958178186013291
40
-0.20000000000000001
40
0
40
0
40
0
40
0
40
0
40
0
41
1
41
1
41
1
41
1
41
1
41
1
41
1
10
108.86167945880707
20
-17.675057643597686
30
0
10
108.9076247244414
20
-17.743899245791944
30
0
10
109.42678618044106
20
-18.513464023201617
30
0
10
109.99048938707796
20
-19.255879366889371
30
0
10
110.60143837226384
20
-19.967993194969079
30
0
10
111.26241141707456
20
-20.647249755816112
30
0
10
111.90597412149819
20
-21.238648746768177
30
0
0
LINE
5
187
100
AcDbEntity
8
0
100
AcDbLine
10
111.9059741214982
20
-21.238648746768177
30
0
11
117.10807978241732
21
-26.019099847409528
31
0
0
SPLINE
5
188
100
AcDbEntity
8
0
100
AcDbSpline
70
4
71
5
72
14
73
8
74
0
42
0.000000001
43
0.0000000001
44
0.0000000001
40
0
40
0
40
0
40
0
40
0
40
0
40
0.20000000000000001
40
0.40000000000000002
40
0.51366367456889239
40
0.51366367456889239
40
0.51366367456889239
40
0.51366367456889239
40
0.51366367456889239
40
0.51366367456889239
41
1
41
1
41
1
41
1
41
1
41
1
41
1
41
1
10
117.10807978241732
20
-26.019099847409528
30
0
10
117.49341979953894
20
-26.373206286040517
30
0
10
118.21244461417565
20
-27.102443507058645
30
0
10
119.00320953071687
20
-28.092847243458241
30
0
10
119.63070454906341
20
-29.142096738167741
30
0
10
120.08166622053771
20
-30.230169944975998
30
0
10
120.28143239835731
20
-30.904945510327629
30
0
10
120.34332779638973
20
-31.150643441891095
30
0
0
SPLINE
5
189
100
AcDbEntity
8
0
100
AcDbSpline
70
4
71
5
72
15
73
9
74
0
42
0.000000001
43
0.0000000001
44
0.0000000001
40
-0.68105428074043461
40
-0.68105428074043461
40
-0.68105428074043461
40
-0.68105428074043461
40
-0.68105428074043461
40
-0.68105428074043461
40
-0.60000000000000009
40
-0.40000000000000002
40
-0.20000000000000001
40
0
40
0
40
0
40
0
40
0
40
0
41
1
41
1
41
1
41
1
41
1
41
1
41
1
41
1
41
1
10
105.33913282521044
20
16.999017614153956
30
0
10
105.2214649032387
20
16.864012149387623
30
0
10
104.79593021811442
20
16.407655713852442
30
0
10
103.97110689268087
20
15.691942079037116
30
0
10
102.6339525961332
20
14.799080152769019
30
0
10
101.20269684727828
20
13.993936383497003
30
0
10
99.970418570738417
20
13.299921691467373
30
0
10
99.174848152908936
20
12.838107340289211
30
0
10
98.783561467430786
20
12.607412382455294
30
0
0
ARC
5
190
100
AcDbEntity
8
0
100
AcDbCircle
10
101.50000140070915
20
8.0000001192092878
30
0
40
5.3485786592906344
210
0
220
0
230
1
100
AcDbArc
50
120.52276780474691
51
228.49925095328783
0
SPLINE
5
191
100
AcDbEntity
8
0
100
AcDbSpline
70
4
71
3
72
8
73
4
74
0
42
0.000000001
43
0.0000000001
44
0.0000000001
40
0.50994802234374781
40
0.50994802234374781
40
0.50994802234374781
40
0.50994802234374781
40
1
40
1
40
1
40
1
41
1
41
1
41
1
41
1
10
97.9558735821212
20
3.994197867458702
30
0
10
96.709814553954217
20
4.1529683999307574
30
0
10
95.318828080970732
20
5.4195910927818431
30
0
10
92.5911256249627
20
7.9034181444676737
30
0
0
SPLINE
5
192
100
AcDbEntity
8
0
100
AcDbSpline
70
4
71
3
72
8
73
4
74
0
42
0.000000001
43
0.0000000001
44
0.0000000001
40
0
40
0
40
0
40
0
40
1
40
1
40
1
40
1
41
1
41
1
41
1
41
1
10
92.5911256249627
20
7.9034181444676737
30
0
10
87.02497635840183
20
12.971915293617247
30
0
10
87.02497635840183
20
12.971915293617247
30
0
10
89.382802400577106
20
16.81778035251617
30
0
0
SPLINE
5
193
100
AcDbEntity
8
0
100
AcDbSpline
70
4
71
3
72
8
73
4
74
0
42
0.000000001
43
0.0000000001
44
0.0000000001
40
0
40
0
40
0
40
0
40
1
40
1
40
1
40
1
41
1
41
1
41
1
41
1
10
89.382802400577106
20
16.81778035251617
30
0
10
91.74062844275241
20
20.663653485857651
30
0
10
91.74062844275241
20
20.663653485857651
30
0
10
98.562046696333141
20
19.255769460283908
30
0
0
SPLINE
5
194
100
AcDbEntity
8
0
100
AcDbSpline
70
4
71
3
72
8
73
4
74
0
42
0.000000001
43
0.0000000001
44
0.0000000001
40
0
40
0
40
0
40
0
40
0.64675465135075039
40
0.64675465135075039
40
0.64675465135075039
40
0.64675465135075039
41
1
41
1
41
1
41
1
10
98.562046696333141
20
19.255769460283908
30
0
10
102.97383068064539
20
18.345213918181681
30
0
10
104.53227285234895
20
18.023564408247271
30
0
10
105.33913282521044
20
16.999017614153956
30
0
0
SPLINE
5
195
100
AcDbEntity
8
0
100
AcDbSpline
70
4
71
3
72
8
73
4
74
0
42
0.000000001
43
0.0000000001
44
0.0000000001
40
0
40
0
40
0
40
0
40
1
40
1
40
1
40
1
41
1
41
1
41
1
41
1
10
3.4656548913201082
20
34.032645274086015
30
0
10
4.5514251804233066
20
32.755090825640366
30
0
10
4.5514251804233066
20
32.755090825640366
30
0
10
2.3086518700798866
20
24.460377487424232
30
0
0
SPLINE
5
196
100
AcDbEntity
8
0
100
AcDbSpline
70
4
71
3
72
8
73
4
74
0
42
0.000000001
43
0.0000000001
44
0.0000000001
40
0
40
0
40
0
40
0
40
0.74932511163151683
40
0.74932511163151683
40
0.74932511163151683
40
0.74932511163151683
41
1
41
1
41
1
41
1
10
2.3086518700798866
20
24.460377487424232
30
0
10
0.62808550894260295
20
18.244940489313983
30
0
10
0.20680972396868724
20
16.686886513651359
30
0
10
-2.438540085152876
20
16.29919215639578
30
0
0
LINE
5
197
100
AcDbEntity
8
0
100
AcDbLine
10
-2.438540085152876
20
16.29919215639578
30
0
11
-2.4385400851528738
21
36.217140289417088
31
0
0
SPLINE
5
198
100
AcDbEntity
8
0
100
AcDbSpline
70
4
71
3
72
8
73
4
74
0
42
0.000000001
43
0.0000000001
44
0.0000000001
40
0.080530936982679491
40
0.080530936982679491
40
0.080530936982679491
40
0.080530936982679491
40
1
40
1
40
1
40
1
41
1
41
1
41
1
41
1
10
-2.438540085152876
20
36.217140289417088
30
0
10
2.3869260742356104
20
35.301914485781907
30
0
10
2.4673227009463772
20
35.20731706575193
30
0
10
3.4656548913201082
20
34.032645274086015
30
0
0
SPLINE
5
199
100
AcDbEntity
8
0
100
AcDbSpline
70
4
71
3
72
8
73
4
74
0
42
0.000000001
43
0.0000000001
44
0.0000000001
40
0.49977592891804007
40
0.49977592891804007
40
0.49977592891804007
40
0.49977592891804007
40
1
40
1
40
1
40
1
41
1
41
1
41
1
41
1
10
12.540403644083533
20
-19.960330579485767
30
0
10
13.388957148988309
20
-18.979062832678366
30
0
10
14.823817598941709
20
-18.617275395418446
30
0
10
17.694825118370893
20
-17.893376111106875
30
0
0
SPLINE
5
200
100
AcDbEntity
8
0
100
AcDbSpline
70
4
71
3
72
8
73
4
74
0
42
0.000000001
43
0.0000000001
44
0.0000000001
40
0
40
0
40
0
40
0
40
0.26244290600297748
40
0.26244290600297748
40
0.26244290600297748
40
0.26244290600297748
41
1
41
1
41
1
41
1
10
17.694825118370893
20
-17.893376111106875
30
0
10
19.2011054438168
20
-17.513581849272807
30
0
10
20.312073183397573
20
-17.233461897197731
30
0
10
21.209263154793973
20
-17.135241247141877
30
0
0
SPLINE
5
201
100
AcDbEntity
8
0
100
AcDbSpline
70
4
71
5
72
14
73
8
74
0
42
0.000000001
43
0.0000000001
44
0.0000000001
40
-0.28169301738664226
40
-0.28169301738664226
40
-0.28169301738664226
40
-0.28169301738664226
40
-0.28169301738664226
40
-0.28169301738664226
40
-0.20000000000000001
40
-0.10000000000000001
40
0
40
0
40
0
40
0
40
0
40
0
41
1
41
1
41
1
41
1
41
1
41
1
41
1
41
1
10
21.209263154793973
20
-17.135241247141874
30
0
10
21.06432594120907
20
-17.415299386100219
30
0
10
20.732567968639266
20
-18.022907205781536
30
0
10
20.172868901436871
20
-18.88855884863181
30
0
10
19.49790627295231
20
-19.553946207456605
30
0
10
18.649698814291163
20
-19.914635886189863
30
0
10
17.950555681769753
20
-20.000000298023224
30
0
10
17.576752795983996
20
-20.000000298023224
30
0
0
LINE
5
202
100
AcDbEntity
8
0
100
AcDbLine
10
17.576752795983996
20
-20.000000298023224
30
0
11
14.423496168808615
21
-19.960330579485763
31
0
0
LINE
5
203
100
AcDbEntity
8
0
100
AcDbLine
10
14.423496168808615
20
-19.960330579485763
30
0
11
12.540403644083533
21
-19.960330579485767
31
0
0
SPLINE
5
204
100
AcDbEntity
8
0
100
AcDbSpline
70
4
71
3
72
8
73
4
74
0
42
0.000000001
43
0.0000000001
44
0.0000000001
40
0
40
0
40
0
40
0
40
1
40
1
40
1
40
1
41
1
41
1
41
1
41
1
10
35.575137147891553
20
-5.5705656201807603
30
0
10
41.095964568444131
20
-4.7359427920150683
30
0
10
41.095964568444131
20
-4.7359427920150683
30
0
10
44.349948765424934
20
-10.36567829362234
30
0
0
SPLINE
5
205
100
AcDbEntity
8
0
100
AcDbSpline
70
4
71
3
72
8
73
4
74
0
42
0.000000001
43
0.0000000001
44
0.0000000001
40
0
40
0
40
0
40
0
40
0.054920992573228314
40
0.054920992573228314
40
0.054920992573228314
40
0.054920992573228314
41
1
41
1
41
1
41
1
10
44.349948765424934
20
-10.36567829362234
30
0
10
44.5286612507971
20
-10.674868955295352
30
0
10
44.697558669087421
20
-10.967078558934912
30
0
10
44.856603302527645
20
-11.244071058274683
30
0
0
SPLINE
5
206
100
AcDbEntity
8
0
100
AcDbSpline
70
4
71
5
72
13
73
7
74
0
42
0.000000001
43
0.0000000001
44
0.0000000001
40
-0.10660526476105819
40
-0.10660526476105819
40
-0.10660526476105819
40
-0.10660526476105819
40
-0.10660526476105819
40
-0.10660526476105819
40
-0.10000000000000001
40
0
40
0
40
0
40
0
40
0
40
0
41
1
41
1
41
1
41
1
41
1
41
1
41
1
10
44.85660330252766
20
-11.244071058274685
30
0
10
44.819584648073203
20
-11.238110569570644
30
0
10
44.221959421296958
20
-11.143417552359052
30
0
10
43.621820354433929
20
-11.073015704782597
30
0
10
43.02150521038282
20
-11.026687770157569
30
0
10
42.422488365100463
20
-11.004263301391967
30
0
10
41.861727924017217
20
-11.004263301391967
30
0
0
LINE
5
207
100
AcDbEntity
8
0
100
AcDbLine
10
41.861727924017217
20
-11.004263301391967
30
0
11
29.901695812835001
21
-11.004263301391966
31
0
0
SPLINE
5
208
100
AcDbEntity
8
0
100
AcDbSpline
70
4
71
5
72
13
73
7
74
0
42
0.000000001
43
0.0000000001
44
0.0000000001
40
-1
40
-1
40
-1
40
-1
40
-1
40
-1
40
-0.89999999999999991
40
-0.8585512896161307
40
-0.8585512896161307
40
-0.8585512896161307
40
-0.8585512896161307
40
-0.8585512896161307
40
-0.8585512896161307
41
1
41
1
41
1
41
1
41
1
41
1
41
1
10
29.901695812835001
20
-11.004263301391967
30
0
10
29.629273193305433
20
-11.004263301391967
30
0
10
29.236025749979365
20
-11.006635658400103
30
0
10
28.83159746826415
20
-11.012373604800922
30
0
10
28.418421013609404
20
-11.02499403193262
30
0
10
28.000774399619772
20
-11.050647771619422
30
0
10
27.878123974230892
20
-11.059450922739538
30
0
0
SPLINE
5
209
100
AcDbEntity
8
0
100
AcDbSpline
70
4
71
3
72
8
73
4
74
0
42
0.000000001
43
0.0000000001
44
0.0000000001
40
0.93721989985620324
40
0.93721989985620324
40
0.93721989985620324
40
0.93721989985620324
40
1
40
1
40
1
40
1
41
1
41
1
41
1
41
1
10
27.878123974230892
20
-11.059450922739536
30
0
10
27.979088283811823
20
-10.839931320803846
30
0
10
28.08795187301207
20
-10.607290111461211
30
0
10
28.20410773911879
20
-10.359065325177516
30
0
0
SPLINE
5
210
100
AcDbEntity
8
0
100
AcDbSpline
70
4
71
3
72
8
73
4
74
0
42
0.000000001
43
0.0000000001
44
0.0000000001
40
0
40
0
40
0
40
0
40
1
40
1
40
1
40
1
41
1
41
1
41
1
41
1
10
28.20410773911879
20
-10.359065325177516
30
0
10
30.054309727339007
20
-6.4051884483464523
30
0
10
30.054309727339007
20
-6.4051884483464523
30
0
10
35.575137147891553
20
-5.5705656201807603
30
0
0
SPLINE
5
211
100
AcDbEntity
8
0
100
AcDbSpline
70
4
71
3
72
8
73
4
74
0
42
0.000000001
43
0.0000000001
44
0.0000000001
40
0
40
0
40
0
40
0
40
1
40
1
40
1
40
1
41
1
41
1
41
1
41
1
10
102.51849932033622
20
-31.801377311464947
30
0
10
104.78182208695813
20
-36.931159479535424
30
0
10
104.78182208695813
20
-36.931159479535424
30
0
10
103.0139592265964
20
-40.811470110333765
30
0
0
SPLINE
5
212
100
AcDbEntity
8
0
100
AcDbSpline
70
4
71
3
72
8
73
4
74
0
42
0.000000001
43
0.0000000001
44
0.0000000001
40
0
40
0
40
0
40
0
40
0.6342380824874847
40
0.6342380824874847
40
0.6342380824874847
40
0.6342380824874847
41
1
41
1
41
1
41
1
10
103.0139592265964
20
-40.811470110333765
30
0
10
101.89271327593971
20
-43.272510884267099
30
0
10
101.48260420702439
20
-44.172665876817433
30
0
10
99.356228606369967
20
-43.811372076280449
30
0
0
LINE
5
213
100
AcDbEntity
8
0
100
AcDbLine
10
99.356228606369967
20
-43.811372076280463
30
0
11
92.393317785479553
21
-38.807656400313597
31
0
0
SPLINE
5
214
100
AcDbEntity
8
0
100
AcDbSpline
70
0
71
3
72
10
73
6
74
0
42
0.000000001
43
0.0000000001
44
0.0000000001
40
-0.077436563066929642
40
-0.077436563066929642
40
-0.077436563066929642
40
-0.077436563066929642
40
-0.03871827520287828
40
-0.03871827520287828
40
0
40
0
40
0
40
0
10
92.393317785479553
20
-38.80765640031359
30
0
10
92.288511529238974
20
-38.732340096431457
30
0
10
92.183962091903254
20
-38.656805837481201
30
0
10
91.975113891290889
20
-38.505117108378684
30
0
10
91.870943899739999
20
-38.429056166245687
30
0
10
91.766899690641395
20
-38.352691757399406
30
0
0
SPLINE
5
215
100
AcDbEntity
8
0
100
AcDbSpline
70
0
71
3
72
10
73
6
74
0
42
0.000000001
43
0.0000000001
44
0.0000000001
40
-0.83195397837317431
40
-0.83195397837317431
40
-0.83195397837317431
40
-0.83195397837317431
40
-0.41596679417525051
40
-0.41596679417525051
40
0
40
0
40
0
40
0
10
91.766899690641395
20
-38.352691757399406
30
0
10
90.606442266138345
20
-37.50096107501755
30
0
10
89.581929644851556
20
-36.702218602806241
30
0
10
87.243159397499454
20
-34.842203144886184
30
0
10
86.190920765032516
20
-33.989314483534798
30
0
10
85.089797837834297
20
-33.146660470020286
30
0
0
SPLINE
5
216
100
AcDbEntity
8
0
100
AcDbSpline
70
0
71
3
72
10
73
6
74
0
42
0.000000001
43
0.0000000001
44
0.0000000001
40
-0.0085466073068867637
40
-0.0085466073068867637
40
-0.0085466073068867637
40
-0.0085466073068867637
40
-0.0042733102875169285
40
-0.0042733102875169285
40
0
40
0
40
0
40
0
10
85.089797837834283
20
-33.146660470020294
30
0
10
85.078376810265809
20
-33.138148062675626
30
0
10
85.06700664011889
20
-33.129562516387487
30
0
10
85.044373945142041
20
-33.112260301679413
30
0
10
85.033106816573039
20
-33.103540113136134
30
0
10
85.02189175057039
20
-33.094758068750352
30
0
0
SPLINE
5
217
100
AcDbEntity
8
0
100
AcDbSpline
70
0
71
3
72
8
73
4
74
0
42
0.000000001
43
0.0000000001
44
0.0000000001
40
-0.22155611042319917
40
-0.22155611042319917
40
-0.22155611042319917
40
-0.22155611042319917
40
-0.14575081131157305
40
-0.14575081131157305
40
-0.14575081131157305
40
-0.14575081131157305
10
85.02189175057039
20
-33.094758068750345
30
0
10
84.821649846030439
20
-32.93795709288905
30
0
10
84.62541285242807
20
-32.751430031811452
30
0
10
84.443370703737912
20
-32.56038609592504
30
0
0
SPLINE
5
218
100
AcDbEntity
8
0
100
AcDbSpline
70
4
71
3
72
8
73
4
74
0
42
0.000000001
43
0.0000000001
44
0.0000000001
40
0.19012486184036967
40
0.19012486184036967
40
0.19012486184036967
40
0.19012486184036967
40
1
40
1
40
1
40
1
41
1
41
1
41
1
41
1
10
84.443370703737926
20
-32.56038609592504
30
0
10
84.028472704941919
20
-30.06530188117506
30
0
10
84.365758856510311
20
-29.68903387645382
30
0
10
86.139783296573214
20
-27.709976529197693
30
0
0
SPLINE
5
219
100
AcDbEntity
8
0
100
AcDbSpline
70
4
71
3
72
8
73
4
74
0
42
0.000000001
43
0.0000000001
44
0.0000000001
40
0
40
0
40
0
40
0
40
1
40
1
40
1
40
1
41
1
41
1
41
1
41
1
10
86.139783296573214
20
-27.709976529197693
30
0
10
88.330270554212774
20
-25.266319162762958
30
0
10
88.330270554212774
20
-25.266319162762958
30
0
10
94.292725572574184
20
-25.968957153078716
30
0
0
SPLINE
5
220
100
AcDbEntity
8
0
100
AcDbSpline
70
4
71
3
72
8
73
4
74
0
42
0.000000001
43
0.0000000001
44
0.0000000001
40
0
40
0
40
0
40
0
40
1
40
1
40
1
40
1
41
1
41
1
41
1
41
1
10
94.292725572574184
20
-25.968957153078716
30
0
10
100.25517655371431
20
-26.671595143394473
30
0
10
100.25517655371431
20
-26.671595143394473
30
0
10
102.51849932033622
20
-31.801377311464947
30
0
0
SPLINE
5
221
100
AcDbEntity
8
0
100
AcDbSpline
70
4
71
3
72
8
73
4
74
0
42
0.000000001
43
0.0000000001
44
0.0000000001
40
0
40
0
40
0
40
0
40
0.77960636618733437
40
0.77960636618733437
40
0.77960636618733437
40
0.77960636618733437
41
1
41
1
41
1
41
1
10
97.802689784356005
20
34.924596644325248
30
0
10
103.71133178384794
20
35.527961545249944
30
0
10
105.01355886501409
20
35.660939328279753
30
0
10
106.40710303901686
20
34.06738055248983
30
0
0
SPLINE
5
222
100
AcDbEntity
8
0
100
AcDbSpline
70
4
71
5
72
15
73
9
74
0
42
0.000000001
43
0.0000000001
44
0.0000000001
40
-0.95990027084372009
40
-0.95990027084372009
40
-0.95990027084372009
40
-0.95990027084372009
40
-0.95990027084372009
40
-0.95990027084372009
40
-0.80000000000000004
40
-0.60000000000000009
40
-0.40000000000000002
40
-0.38525157514329611
40
-0.38525157514329611
40
-0.38525157514329611
40
-0.38525157514329611
40
-0.38525157514329611
40
-0.38525157514329611
41
1
41
1
41
1
41
1
41
1
41
1
41
1
41
1
41
1
10
106.40710303901693
20
34.067380552489823
30
0
10
106.47470967166866
20
33.436690917322444
30
0
10
106.60889904207716
20
32.016698847174332
30
0
10
106.75589454180007
20
29.806074361839737
30
0
10
106.819829473174
20
27.535197193824608
30
0
10
106.8175674289576
20
25.263276677263594
30
0
10
106.7868870322369
20
23.623393123264691
30
0
10
106.76363851787761
20
22.774306904481474
30
0
10
106.76200726656788
20
22.715993703751266
30
0
0
SPLINE
5
223
100
AcDbEntity
8
0
100
AcDbSpline
70
4
71
3
72
8
73
4
74
0
42
0.000000001
43
0.0000000001
44
0.0000000001
40
0.21915218387686164
40
0.21915218387686164
40
0.21915218387686164
40
0.21915218387686164
40
1
40
1
40
1
40
1
41
1
41
1
41
1
41
1
10
106.76200726656788
20
22.715993703751295
30
0
10
105.50066102433789
20
20.848197666985754
30
0
10
104.33334920789721
20
21.089123886273356
30
0
10
99.006859661726196
20
22.188479662818914
30
0
0
SPLINE
5
224
100
AcDbEntity
8
0
100
AcDbSpline
70
4
71
3
72
8
73
4
74
0
42
0.000000001
43
0.0000000001
44
0.0000000001
40
0
40
0
40
0
40
0
40
1
40
1
40
1
40
1
41
1
41
1
41
1
41
1
10
99.006859661726196
20
22.188479662818914
30
0
10
92.185441408145465
20
23.596363688392643
30
0
10
92.185441408145465
20
23.596363688392643
30
0
10
91.161053031273724
20
28.830411133054092
30
0
0
SPLINE
5
225
100
AcDbEntity
8
0
100
AcDbSpline
70
4
71
3
72
8
73
4
74
0
42
0.000000001
43
0.0000000001
44
0.0000000001
40
0
40
0
40
0
40
0
40
1
40
1
40
1
40
1
41
1
41
1
41
1
41
1
10
91.161053031273724
20
28.830411133054092
30
0
10
90.136664654401983
20
34.064458577715548
30
0
10
90.136664654401983
20
34.064458577715548
30
0
10
90.180173788058809
20
34.10755995202382
30
0
0
SPLINE
5
226
100
AcDbEntity
8
0
100
AcDbSpline
70
4
71
3
72
8
73
4
74
0
42
0.000000001
43
0.0000000001
44
0.0000000001
40
0
40
0
40
0
40
0
40
1
40
1
40
1
40
1
41
1
41
1
41
1
41
1
10
90.180173788058809
20
34.10755995202382
30
0
10
90.223682921715636
20
34.150661326332084
30
0
10
90.223682921715636
20
34.150661326332084
30
0
10
97.802689784356005
20
34.924596644325248
30
0
0
SPLINE
5
227
100
AcDbEntity
8
0
100
AcDbSpline
70
4
71
5
72
15
73
9
74
0
42
0.000000001
43
0.0000000001
44
0.0000000001
40
0.3668536679500693
40
0.3668536679500693
40
0.3668536679500693
40
0.3668536679500693
40
0.3668536679500693
40
0.3668536679500693
40
0.40000000000000002
40
0.60000000000000009
40
0.80000000000000004
40
1
40
1
40
1
40
1
40
1
40
1
41
1
41
1
41
1
41
1
41
1
41
1
41
1
41
1
41
1
10
101.49762383406996
20
1.330295661886213
30
0
10
101.55268550262896
20
1.2864415208004667
30
0
10
101.93834381575526
20
0.97708208549665421
30
0
10
102.6321975165235
20
0.3897184563656314
30
0
10
103.56041024138577
20
-0.52125943181875367
30
0
10
104.28001868682608
20
-1.5686146609681231
30
0
10
104.6554596866477
20
-2.7672041367997995
30
0
10
104.74570976533872
20
-3.6742882499821699
30
0
10
104.75078678888178
20
-4.1548616278535349
30
0
0
SPLINE
5
228
100
AcDbEntity
8
0
100
AcDbSpline
70
4
71
5
72
13
73
7
74
0
42
0.000000001
43
0.0000000001
44
0.0000000001
40
-0.89537870350125115
40
-0.89537870350125115
40
-0.89537870350125115
40
-0.89537870350125115
40
-0.89537870350125115
40
-0.89537870350125115
40
-0.80000000000000004
40
-0.75392777264713284
40
-0.75392777264713284
40
-0.75392777264713284
40
-0.75392777264713284
40
-0.75392777264713284
40
-0.75392777264713284
41
1
41
1
41
1
41
1
41
1
41
1
41
1
10
104.75078678888178
20
-4.1548616278535375
30
0
10
104.75509519876491
20
-4.5626807118554318
30
0
10
104.77479764401582
20
-5.166071294019611
30
0
10
104.81387201240776
20
-5.7672531904540012
30
0
10
104.87161280862018
20
-6.3660118259145744
30
0
10
104.94733351563879
20
-6.9620179125220751
30
0
10
104.97388116656374
20
-7.1558393986680873
30
0
0
LINE
5
229
100
AcDbEntity
8
0
100
AcDbLine
10
104.97388116656376
20
-7.1558393986680873
30
0
11
104.67454100607638
21
-6.8390363207626415
31
0
0
SPLINE
5
230
100
AcDbEntity
8
0
100
AcDbSpline
70
4
71
3
72
8
73
4
74
0
42
0.000000001
43
0.0000000001
44
0.0000000001
40
0
40
0
40
0
40
0
40
1
40
1
40
1
40
1
41
1
41
1
41
1
41
1
10
104.67454100607638
20
-6.8390363207626432
30
0
10
100.16908281007215
20
-2.0703028511174559
30
0
10
100.16908281007215
20
-2.0703028511174559
30
0
10
100.26985992748344
20
-0.85256387304941439
30
0
0
SPLINE
5
231
100
AcDbEntity
8
0
100
AcDbSpline
70
4
71
3
72
8
73
4
74
0
42
0.000000001
43
0.0000000001
44
0.0000000001
40
0
40
0
40
0
40
0
40
0.62848160908078476
40
0.62848160908078476
40
0.62848160908078476
40
0.62848160908078476
41
1
41
1
41
1
41
1
10
100.26985992748344
20
-0.85256387304941439
30
0
10
100.3331964923926
20
-0.087232246034183281
30
0
10
100.35672719107401
20
0.19710252855410043
30
0
10
101.49762383406996
20
1.3302956618862261
30
0
0
SPLINE
5
232
100
AcDbEntity
8
0
100
AcDbSpline
70
4
71
3
72
8
73
4
74
0
42
0.000000001
43
0.0000000001
44
0.0000000001
40
0
40
0
40
0
40
0
40
0.42381721300593594
40
0.42381721300593594
40
0.42381721300593594
40
0.42381721300593594
41
1
41
1
41
1
41
1
10
91.618793179182276
20
45.400604487342818
30
0
10
92.266238490528167
20
48.887000096323554
30
0
10
92.639285334445702
20
50.895801234869928
30
0
10
93.421694555245764
20
51.88002995809606
30
0
0
ARC
5
233
100
AcDbEntity
8
0
100
AcDbCircle
10
98.108245303407969
20
57.411642931262215
30
0
40
7.2499999999999876
210
0
220
0
230
1
100
AcDbArc
50
229.72771459487745
51
298.66518918437725
0
SPLINE
5
234
100
AcDbEntity
8
0
100
AcDbSpline
70
4
71
3
72
8
73
4
74
0
42
0.000000001
43
0.0000000001
44
0.0000000001
40
0.04616452162291116
40
0.04616452162291116
40
0.04616452162291116
40
0.04616452162291116
40
0.21887577157504592
40
0.21887577157504592
40
0.21887577157504592
40
0.21887577157504592
41
1
41
1
41
1
41
1
10
101.58600133403412
20
51.050219113323081
30
0
10
102.75679513879929
20
50.690791727612243
30
0
10
103.71356762447877
20
50.388971992131957
30
0
10
104.48749436710523
20
50.106367190541015
30
0
0
LINE
5
235
100
AcDbEntity
8
0
100
AcDbLine
10
104.48749436710526
20
50.106367190541015
30
0
11
105.62026524445412
21
40.666609879300225
31
0
0
SPLINE
5
236
100
AcDbEntity
8
0
100
AcDbSpline
70
4
71
3
72
8
73
4
74
0
42
0.000000001
43
0.0000000001
44
0.0000000001
40
0.27649399990900858
40
0.27649399990900858
40
0.27649399990900858
40
0.27649399990900858
40
1
40
1
40
1
40
1
41
1
41
1
41
1
41
1
10
105.62026524445412
20
40.666609879300225
30
0
10
104.66974396386976
20
38.663146039273336
30
0
10
103.15360182886775
20
38.508320865512317
30
0
10
97.67014780997043
20
37.948362335446674
30
0
0
SPLINE
5
237
100
AcDbEntity
8
0
100
AcDbSpline
70
4
71
3
72
8
73
4
74
0
42
0.000000001
43
0.0000000001
44
0.0000000001
40
0
40
0
40
0
40
0
40
1
40
1
40
1
40
1
41
1
41
1
41
1
41
1
10
97.67014780997043
20
37.948362335446674
30
0
10
90.091140947330047
20
37.17442701745351
30
0
10
90.091140947330047
20
37.17442701745351
30
0
10
91.618793179182276
20
45.400604487342818
30
0
0
SPLINE
5
238
100
AcDbEntity
8
0
100
AcDbSpline
70
4
71
3
72
8
73
4
74
0
42
0.000000001
43
0.0000000001
44
0.0000000001
40
0
40
0
40
0
40
0
40
1
40
1
40
1
40
1
41
1
41
1
41
1
41
1
10
81.835556357689754
20
14.66749170708974
30
0
10
80.148974873213035
20
14.162806750221247
30
0
10
80.148974873213035
20
14.162806750221247
30
0
10
74.290716498680951
20
17.371057304623932
30
0
0
SPLINE
5
239
100
AcDbEntity
8
0
100
AcDbSpline
70
4
71
3
72
8
73
4
74
0
42
0.000000001
43
0.0000000001
44
0.0000000001
40
0
40
0
40
0
40
0
40
1
40
1
40
1
40
1
41
1
41
1
41
1
41
1
10
74.290716498680951
20
17.371057304623932
30
0
10
68.432458124148894
20
20.579307859026599
30
0
10
68.432458124148894
20
20.579307859026599
30
0
10
68.080170195885543
20
22.249853500607813
30
0
0
SPLINE
5
240
100
AcDbEntity
8
0
100
AcDbSpline
70
4
71
3
72
8
73
4
74
0
42
0.000000001
43
0.0000000001
44
0.0000000001
40
0
40
0
40
0
40
0
40
1
40
1
40
1
40
1
41
1
41
1
41
1
41
1
10
68.080170195885543
20
22.249853500607813
30
0
10
67.727874193179645
20
23.920415291074129
30
0
10
67.727874193179645
20
23.920415291074129
30
0
10
71.582225491193981
20
29.17743452477773
30
0
0
SPLINE
5
241
100
AcDbEntity
8
0
100
AcDbSpline
70
4
71
3
72
8
73
4
74
0
42
0.000000001
43
0.0000000001
44
0.0000000001
40
0
40
0
40
0
40
0
40
1
40
1
40
1
40
1
41
1
41
1
41
1
41
1
10
71.582225491193981
20
29.17743452477773
30
0
10
75.436568714765741
20
34.434461832923887
30
0
10
75.436568714765741
20
34.434461832923887
30
0
10
80.81279094376967
20
33.883235789222709
30
0
0
SPLINE
5
242
100
AcDbEntity
8
0
100
AcDbSpline
70
4
71
3
72
8
73
4
74
0
42
0.000000001
43
0.0000000001
44
0.0000000001
40
0
40
0
40
0
40
0
40
1
40
1
40
1
40
1
41
1
41
1
41
1
41
1
10
80.81279094376967
20
33.883235789222709
30
0
10
86.189013172773571
20
33.332009745521546
30
0
10
86.189013172773571
20
33.332009745521546
30
0
10
87.213401549645312
20
28.097962300860083
30
0
0
SPLINE
5
243
100
AcDbEntity
8
0
100
AcDbSpline
70
4
71
3
72
8
73
4
74
0
42
0.000000001
43
0.0000000001
44
0.0000000001
40
0
40
0
40
0
40
0
40
1
40
1
40
1
40
1
41
1
41
1
41
1
41
1
10
87.213401549645312
20
28.097962300860083
30
0
10
88.237789926517081
20
22.863914856198626
30
0
10
88.237789926517081
20
22.863914856198626
30
0
10
85.879963884341777
20
19.018041722857156
30
0
0
SPLINE
5
244
100
AcDbEntity
8
0
100
AcDbSpline
70
4
71
3
72
8
73
4
74
0
42
0.000000001
43
0.0000000001
44
0.0000000001
40
0
40
0
40
0
40
0
40
1
40
1
40
1
40
1
41
1
41
1
41
1
41
1
10
85.879963884341777
20
19.018041722857156
30
0
10
83.522137842166472
20
15.172168589515687
30
0
10
83.522137842166472
20
15.172168589515687
30
0
10
81.835556357689754
20
14.66749170708974
30
0
0
SPLINE
5
245
100
AcDbEntity
8
0
100
AcDbSpline
70
4
71
3
72
8
73
4
74
0
42
0.000000001
43
0.0000000001
44
0.0000000001
40
0
40
0
40
0
40
0
40
1
40
1
40
1
40
1
41
1
41
1
41
1
41
1
10
92.699573462792273
20
-7.8964087954330449
30
0
10
97.876191434848351
20
-4.2782026441065408
30
0
10
97.876191434848351
20
-4.2782026441065408
30
0
10
102.38164963085256
20
-9.0469361137517463
30
0
0
SPLINE
5
246
100
AcDbEntity
8
0
100
AcDbSpline
70
4
71
3
72
8
73
4
74
0
42
0.000000001
43
0.0000000001
44
0.0000000001
40
0
40
0
40
0
40
0
40
1
40
1
40
1
40
1
41
1
41
1
41
1
41
1
10
102.38164963085256
20
-9.0469361137517463
30
0
10
106.88710782685682
20
-13.815669583396934
30
0
10
106.88710782685682
20
-13.815669583396934
30
0
10
103.80831077256603
20
-18.372860732790638
30
0
0
SPLINE
5
247
100
AcDbEntity
8
0
100
AcDbSpline
70
4
71
3
72
8
73
4
74
0
42
0.000000001
43
0.0000000001
44
0.0000000001
40
0
40
0
40
0
40
0
40
1
40
1
40
1
40
1
41
1
41
1
41
1
41
1
10
103.80831077256603
20
-18.372860732790638
30
0
10
100.72951775549654
20
-22.930059956626891
30
0
10
100.72951775549654
20
-22.930059956626891
30
0
10
94.767066774356408
20
-22.227413891868597
30
0
0
SPLINE
5
248
100
AcDbEntity
8
0
100
AcDbSpline
70
4
71
3
72
8
73
4
74
0
42
0.000000001
43
0.0000000001
44
0.0000000001
40
0
40
0
40
0
40
0
40
1
40
1
40
1
40
1
41
1
41
1
41
1
41
1
10
94.767066774356408
20
-22.227413891868597
30
0
10
88.804615793216271
20
-21.524775901552839
30
0
10
88.804615793216271
20
-21.524775901552839
30
0
10
88.163787660586877
20
-16.519687349713642
30
0
0
SPLINE
5
249
100
AcDbEntity
8
0
100
AcDbSpline
70
4
71
3
72
8
73
4
74
0
42
0.000000001
43
0.0000000001
44
0.0000000001
40
0
40
0
40
0
40
0
40
1
40
1
40
1
40
1
41
1
41
1
41
1
41
1
10
88.163787660586877
20
-16.519687349713642
30
0
10
87.522959527957482
20
-11.514606872316994
30
0
10
87.522959527957482
20
-11.514606872316994
30
0
10
92.699573462792273
20
-7.8964087954330449
30
0
0
SPLINE
5
250
100
AcDbEntity
8
0
100
AcDbSpline
70
4
71
3
72
8
73
4
74
0
42
0.000000001
43
0.0000000001
44
0.0000000001
40
0
40
0
40
0
40
0
40
1
40
1
40
1
40
1
41
1
41
1
41
1
41
1
10
90.904281721103231
20
-5.1382357429631593
30
0
10
85.727663749047167
20
-8.7564418942896456
30
0
10
85.727663749047167
20
-8.7564418942896456
30
0
10
81.304476048139776
20
-6.1511099647649043
30
0
0
SPLINE
5
251
100
AcDbEntity
8
0
100
AcDbSpline
70
4
71
3
72
8
73
4
74
0
42
0.000000001
43
0.0000000001
44
0.0000000001
40
0
40
0
40
0
40
0
40
1
40
1
40
1
40
1
41
1
41
1
41
1
41
1
10
81.304476048139776
20
-6.1511099647649043
30
0
10
76.881288347232385
20
-3.5457699607976267
30
0
10
76.881288347232385
20
-3.5457699607976267
30
0
10
79.329136349348275
20
3.2486554313532578
30
0
0
SPLINE
5
252
100
AcDbEntity
8
0
100
AcDbSpline
70
4
71
3
72
8
73
4
74
0
42
0.000000001
43
0.0000000001
44
0.0000000001
40
0
40
0
40
0
40
0
40
1
40
1
40
1
40
1
41
1
41
1
41
1
41
1
10
79.329136349348275
20
3.2486554313532578
30
0
10
81.776992425906698
20
10.043080823504125
30
0
10
81.776992425906698
20
10.043080823504125
30
0
10
83.463573910383417
20
10.547765780372618
30
0
0
SPLINE
5
253
100
AcDbEntity
8
0
100
AcDbSpline
70
4
71
3
72
8
73
4
74
0
42
0.000000001
43
0.0000000001
44
0.0000000001
40
0
40
0
40
0
40
0
40
1
40
1
40
1
40
1
41
1
41
1
41
1
41
1
10
83.463573910383417
20
10.547765780372618
30
0
10
85.15015539486015
20
11.052450737241102
30
0
10
85.15015539486015
20
11.052450737241102
30
0
10
90.716304661421034
20
5.9839535880915289
30
0
0
SPLINE
5
254
100
AcDbEntity
8
0
100
AcDbSpline
70
4
71
3
72
8
73
4
74
0
42
0.000000001
43
0.0000000001
44
0.0000000001
40
0
40
0
40
0
40
0
40
1
40
1
40
1
40
1
41
1
41
1
41
1
41
1
10
90.716304661421034
20
5.9839535880915289
30
0
10
96.282453927981891
20
0.91545643894196405
30
0
10
96.282453927981891
20
0.91545643894196405
30
0
10
96.181676810570593
20
-0.3022906135686142
30
0
0
SPLINE
5
255
100
AcDbEntity
8
0
100
AcDbSpline
70
4
71
3
72
8
73
4
74
0
42
0.000000001
43
0.0000000001
44
0.0000000001
40
0
40
0
40
0
40
0
40
1
40
1
40
1
40
1
41
1
41
1
41
1
41
1
10
96.181676810570593
20
-0.3022906135686142
30
0
10
96.080899693159296
20
-1.5200376660791926
30
0
10
96.080899693159296
20
-1.5200376660791926
30
0
10
90.904281721103231
20
-5.1382357429631593
30
0
0
SPLINE
5
256
100
AcDbEntity
8
0
100
AcDbSpline
70
4
71
3
72
8
73
4
74
0
42
0.000000001
43
0.0000000001
44
0.0000000001
40
0
40
0
40
0
40
0
40
1
40
1
40
1
40
1
41
1
41
1
41
1
41
1
10
88.263959194807285
20
56.876309061927799
30
0
10
89.766891520806212
20
54.213244868202196
30
0
10
89.766891520806212
20
54.213244868202196
30
0
10
88.239243326175256
20
45.987051249427786
30
0
0
SPLINE
5
257
100
AcDbEntity
8
0
100
AcDbSpline
70
4
71
3
72
8
73
4
74
0
42
0.000000001
43
0.0000000001
44
0.0000000001
40
0
40
0
40
0
40
0
40
1
40
1
40
1
40
1
41
1
41
1
41
1
41
1
10
88.239243326175256
20
45.987051249427786
30
0
10
86.711591094323069
20
37.760873779538464
30
0
10
86.711591094323069
20
37.760873779538464
30
0
10
86.668077923444969
20
37.717756256345105
30
0
0
SPLINE
5
258
100
AcDbEntity
8
0
100
AcDbSpline
70
4
71
3
72
8
73
4
74
0
42
0.000000001
43
0.0000000001
44
0.0000000001
40
0
40
0
40
0
40
0
40
1
40
1
40
1
40
1
41
1
41
1
41
1
41
1
10
86.668077923444969
20
37.717756256345105
30
0
10
86.624564752566869
20
37.67465488203684
30
0
10
86.624564752566869
20
37.67465488203684
30
0
10
81.248342523562954
20
38.225880925738011
30
0
0
SPLINE
5
259
100
AcDbEntity
8
0
100
AcDbSpline
70
4
71
3
72
8
73
4
74
0
42
0.000000001
43
0.0000000001
44
0.0000000001
40
0
40
0
40
0
40
0
40
1
40
1
40
1
40
1
41
1
41
1
41
1
41
1
10
81.248342523562954
20
38.225880925738011
30
0
10
75.872120294559053
20
38.777106969439181
30
0
10
75.872120294559053
20
38.777106969439181
30
0
10
73.318351755130351
20
43.257808924598692
30
0
0
SPLINE
5
260
100
AcDbEntity
8
0
100
AcDbSpline
70
4
71
3
72
8
73
4
74
0
42
0.000000001
43
0.0000000001
44
0.0000000001
40
0
40
0
40
0
40
0
40
1
40
1
40
1
40
1
41
1
41
1
41
1
41
1
10
73.318351755130351
20
43.257808924598692
30
0
10
70.764575141259087
20
47.7384947308731
30
0
10
70.764575141259087
20
47.7384947308731
30
0
10
72.306002372094042
20
52.355444829546599
30
0
0
SPLINE
5
261
100
AcDbEntity
8
0
100
AcDbSpline
70
4
71
3
72
8
73
4
74
0
42
0.000000001
43
0.0000000001
44
0.0000000001
40
0
40
0
40
0
40
0
40
1
40
1
40
1
40
1
41
1
41
1
41
1
41
1
10
72.306002372094042
20
52.355444829546599
30
0
10
73.847429602929026
20
56.972378779335017
30
0
10
73.847429602929026
20
56.972378779335017
30
0
10
80.304230254479293
20
58.255876017494202
30
0
0
SPLINE
5
262
100
AcDbEntity
8
0
100
AcDbSpline
70
4
71
3
72
8
73
4
74
0
42
0.000000001
43
0.0000000001
44
0.0000000001
40
0
40
0
40
0
40
0
40
1
40
1
40
1
40
1
41
1
41
1
41
1
41
1
10
80.304230254479293
20
58.255876017494202
30
0
10
86.761030906029589
20
59.539373255653381
30
0
10
86.761030906029589
20
59.539373255653381
30
0
10
88.263959194807285
20
56.876309061927799
30
0
0
ARC
5
263
100
AcDbEntity
8
0
100
AcDbCircle
10
37.669394119644849
20
24.009564291106127
30
0
40
27.999999999999993
210
0
220
-0
230
1
100
AcDbArc
50
74.468309894481393
51
107.49250572469452
0
SPLINE
5
264
100
AcDbEntity
8
0
100
AcDbSpline
70
4
71
3
72
8
73
4
74
0
42
0.000000001
43
0.0000000001
44
0.0000000001
40
0.83336213742164633
40
0.83336213742164633
40
0.83336213742164633
40
0.83336213742164633
40
1
40
1
40
1
40
1
41
1
41
1
41
1
41
1
10
29.253124692602658
20
50.714739986679341
30
0
10
28.848986377208789
20
51.395220135433931
30
0
10
28.402763550459369
20
52.211765310377096
30
0
10
27.867314666100405
20
53.191585652910888
30
0
0
SPLINE
5
265
100
AcDbEntity
8
0
100
AcDbSpline
70
4
71
3
72
8
73
4
74
0
42
0.000000001
43
0.0000000001
44
0.0000000001
40
0
40
0
40
0
40
0
40
0.94188018610564905
40
0.94188018610564905
40
0.94188018610564905
40
0.94188018610564905
41
1
41
1
41
1
41
1
10
27.867314666100405
20
53.191585652910888
30
0
10
24.840827049543496
20
58.729782988716721
30
0
10
24.664928152515646
20
59.051661987183941
30
0
10
29.764488081248167
20
63.181197326926167
30
0
0
LINE
5
266
100
AcDbEntity
8
0
100
AcDbLine
10
29.764488081248174
20
63.181197326926167
30
0
11
42.926376094924464
21
64.444343856230347
31
0
0
SPLINE
5
267
100
AcDbEntity
8
0
100
AcDbSpline
70
4
71
3
72
8
73
4
74
0
42
0.000000001
43
0.0000000001
44
0.0000000001
40
0.13233917774269421
40
0.13233917774269421
40
0.13233917774269421
40
0.13233917774269421
40
1
40
1
40
1
40
1
41
1
41
1
41
1
41
1
10
42.926376094924464
20
64.444343856230347
30
0
10
45.850847720237951
20
62.172479608519438
30
0
10
45.803291309511245
20
61.311683819405914
30
0
10
45.443938837039525
20
54.807217010739642
30
0
0
SPLINE
5
268
100
AcDbEntity
8
0
100
AcDbSpline
70
4
71
3
72
8
73
4
74
0
42
0.000000001
43
0.0000000001
44
0.0000000001
40
0
40
0
40
0
40
0
40
0.21140451304480656
40
0.21140451304480656
40
0.21140451304480656
40
0.21140451304480656
41
1
41
1
41
1
41
1
10
45.443938837039525
20
54.807217010739642
30
0
10
45.356383040459143
20
53.222408102492494
30
0
10
45.287336934419081
20
51.972634949762416
30
0
10
45.166990967107417
20
50.987074211647716
30
0
0
ARC
5
269
100
AcDbEntity
8
0
100
AcDbCircle
10
37.669394119644849
20
24.009564291106127
30
0
40
27.999999999999993
210
-0
220
0
230
1
100
AcDbArc
50
323.86172810567325
51
335.67376793436574
0
SPLINE
5
270
100
AcDbEntity
8
0
100
AcDbSpline
70
4
71
3
72
8
73
4
74
0
42
0.000000001
43
0.0000000001
44
0.0000000001
40
0.013441794128064429
40
0.013441794128064429
40
0.013441794128064429
40
0.013441794128064429
40
1
40
1
40
1
40
1
41
1
41
1
41
1
41
1
10
63.183407821544286
20
12.475479809913566
30
0
10
66.823359719206096
20
17.350380344548714
30
0
10
66.901046741385471
20
17.307835373664467
30
0
10
72.680559612898065
20
14.142709462725332
30
0
0
SPLINE
5
271
100
AcDbEntity
8
0
100
AcDbSpline
70
4
71
3
72
8
73
4
74
0
42
0.000000001
43
0.0000000001
44
0.0000000001
40
0
40
0
40
0
40
0
40
1
40
1
40
1
40
1
41
1
41
1
41
1
41
1
10
72.680559612898065
20
14.142709462725332
30
0
10
78.53881798743015
20
10.934458908322647
30
0
10
78.53881798743015
20
10.934458908322647
30
0
10
76.090961910871698
20
4.140033516171771
30
0
0
SPLINE
5
272
100
AcDbEntity
8
0
100
AcDbSpline
70
4
71
3
72
8
73
4
74
0
42
0.000000001
43
0.0000000001
44
0.0000000001
40
0
40
0
40
0
40
0
40
1
40
1
40
1
40
1
41
1
41
1
41
1
41
1
10
76.090961910871698
20
4.140033516171771
30
0
10
73.643105834313275
20
-2.6543918759790963
30
0
10
73.643105834313275
20
-2.6543918759790963
30
0
10
70.954607146569145
20
-3.3621329139836598
30
0
0
SPLINE
5
273
100
AcDbEntity
8
0
100
AcDbSpline
70
4
71
3
72
8
73
4
74
0
42
0.000000001
43
0.0000000001
44
0.0000000001
40
0
40
0
40
0
40
0
40
1
40
1
40
1
40
1
41
1
41
1
41
1
41
1
10
70.954607146569145
20
-3.3621329139836598
30
0
10
68.266108458824988
20
-4.0698739519882228
30
0
10
68.266108458824988
20
-4.0698739519882228
30
0
10
63.754513686486121
20
1.5630590288670887
30
0
0
SPLINE
5
274
100
AcDbEntity
8
0
100
AcDbSpline
70
4
71
3
72
8
73
4
74
0
42
0.000000001
43
0.0000000001
44
0.0000000001
40
0
40
0
40
0
40
0
40
0.54620041701212851
40
0.54620041701212851
40
0.54620041701212851
40
0.54620041701212851
41
1
41
1
41
1
41
1
10
63.754513686486121
20
1.5630590288670887
30
0
10
61.290287560972665
20
4.6397693720116315
30
0
10
60.172022772826843
20
6.0359792427050962
30
0
10
60.282085979334788
20
7.4969579898975791
30
0
0
SPLINE
5
275
100
AcDbEntity
8
0
100
AcDbSpline
70
4
71
3
72
8
73
4
74
0
42
0.000000001
43
0.0000000001
44
0.0000000001
40
0.062609223134056785
40
0.062609223134056785
40
0.062609223134056785
40
0.062609223134056785
40
1
40
1
40
1
40
1
41
1
41
1
41
1
41
1
10
23.353057825074821
20
-0.053737957354636559
30
0
10
26.152083274681594
20
-4.3748658011463197
30
0
10
26.043496199754337
20
-4.6069161002007437
30
0
10
24.309133920657679
20
-8.313243817405704
30
0
0
SPLINE
5
276
100
AcDbEntity
8
0
100
AcDbSpline
70
4
71
3
72
8
73
4
74
0
42
0.000000001
43
0.0000000001
44
0.0000000001
40
0
40
0
40
0
40
0
40
1
40
1
40
1
40
1
41
1
41
1
41
1
41
1
10
24.309133920657679
20
-8.313243817405704
30
0
10
22.458931932437459
20
-12.26712069423675
30
0
10
22.458931932437459
20
-12.26712069423675
30
0
10
16.719480905520957
20
-13.714278808352153
30
0
0
SPLINE
5
277
100
AcDbEntity
8
0
100
AcDbSpline
70
4
71
3
72
8
73
4
74
0
42
0.000000001
43
0.0000000001
44
0.0000000001
40
0
40
0
40
0
40
0
40
1
40
1
40
1
40
1
41
1
41
1
41
1
41
1
10
16.719480905520957
20
-13.714278808352153
30
0
10
10.980021804161911
20
-15.161428848025002
30
0
10
10.980021804161911
20
-15.161428848025002
30
0
10
7.6562259769320864
20
-12.052800765749618
30
0
0
SPLINE
5
278
100
AcDbEntity
8
0
100
AcDbSpline
70
4
71
3
72
8
73
4
74
0
42
0.000000001
43
0.0000000001
44
0.0000000001
40
0
40
0
40
0
40
0
40
0.12561498019040893
40
0.12561498019040893
40
0.12561498019040893
40
0.12561498019040893
41
1
41
1
41
1
41
1
10
7.6562259769320864
20
-12.052800765749618
30
0
10
7.2387074299376497
20
-11.662311525046185
30
0
10
6.8736354669530497
20
-11.320873582578281
30
0
10
6.5584008419252093
20
-11.007652004424086
30
0
0
ARC
5
279
100
AcDbEntity
8
0
100
AcDbCircle
10
2.4999999999999947
20
-5.0000000000000018
30
0
40
7.2500000000000018
210
-0
220
0
230
1
100
AcDbArc
50
-55.959455013240557
51
52.03571892070417
0
SPLINE
5
280
100
AcDbEntity
8
0
100
AcDbSpline
70
4
71
3
72
8
73
4
74
0
42
0.000000001
43
0.0000000001
44
0.0000000001
40
0.11415816061280069
40
0.11415816061280069
40
0.11415816061280069
40
0.11415816061280069
40
1
40
1
40
1
40
1
41
1
41
1
41
1
41
1
10
6.9599832232103918
20
0.71585948468660487
30
0
10
8.4188763579635211
20
5.8632671681759172
30
0
10
8.9750341899189916
20
5.8751894202737649
30
0
10
13.846852629967575
20
5.9796256868871094
30
0
0
SPLINE
5
281
100
AcDbEntity
8
0
100
AcDbSpline
70
4
71
3
72
8
73
4
74
0
42
0.000000001
43
0.0000000001
44
0.0000000001
40
0
40
0
40
0
40
0
40
0.17065332447430689
40
0.17065332447430689
40
0.17065332447430689
40
0.17065332447430689
41
1
41
1
41
1
41
1
10
13.846852629967575
20
5.9796256868871094
30
0
10
14.785383115666624
20
5.9997448495872829
30
0
10
15.563750253860647
20
6.0164306102870313
30
0
10
16.226215934903735
20
6.0042842505890439
30
0
0
ARC
5
282
100
AcDbEntity
8
0
100
AcDbCircle
10
37.669394119644849
20
24.009564291106127
30
0
40
28
210
0
220
0
230
1
100
AcDbArc
50
220.01930759841827
51
239.24969074000572
0
SPLINE
5
283
100
AcDbEntity
8
0
100
AcDbSpline
70
4
71
3
72
8
73
4
74
0
42
0.000000001
43
0.0000000001
44
0.0000000001
40
0.58596693427033864
40
0.58596693427033864
40
0.58596693427033864
40
0.58596693427033864
40
1
40
1
40
1
40
1
41
1
41
1
41
1
41
1
10
57.353931561836191
20
4.096779812611743
30
0
10
58.277241227203405
20
3.3217000669716779
30
0
10
59.371793901361016
20
1.9550959640322469
30
0
10
61.239736630109988
20
-0.37712454708099796
30
0
0
SPLINE
5
284
100
AcDbEntity
8
0
100
AcDbSpline
70
4
71
3
72
8
73
4
74
0
42
0.000000001
43
0.0000000001
44
0.0000000001
40
0
40
0
40
0
40
0
40
1
40
1
40
1
40
1
41
1
41
1
41
1
41
1
10
61.239736630109988
20
-0.37712454708099796
30
0
10
65.75131525356376
20
-6.0100575279362918
30
0
10
65.75131525356376
20
-6.0100575279362918
30
0
10
63.364962205874953
20
-9.9166343203353886
30
0
0
SPLINE
5
285
100
AcDbEntity
8
0
100
AcDbSpline
70
4
71
3
72
8
73
4
74
0
42
0.000000001
43
0.0000000001
44
0.0000000001
40
0
40
0
40
0
40
0
40
0.073817302710968924
40
0.073817302710968924
40
0.073817302710968924
40
0.073817302710968924
41
1
41
1
41
1
41
1
10
63.364962205874953
20
-9.9166343203353886
30
0
10
63.188808060578467
20
-10.205007878017128
30
0
10
63.025657139149104
20
-10.472094477497631
30
0
10
62.872514546793766
20
-10.719495314991947
30
0
0
ARC
5
286
100
AcDbEntity
8
0
100
AcDbCircle
10
59.102859486244924
20
-14.004263301391969
30
0
40
4.9999999999999893
210
0
220
-0
230
1
100
AcDbArc
50
41.067948564724794
51
133.46404493429623
0
SPLINE
5
287
100
AcDbEntity
8
0
100
AcDbSpline
70
4
71
5
72
15
73
9
74
0
42
0.000000001
43
0.0000000001
44
0.0000000001
40
0
40
0
40
0
40
0
40
0
40
0
40
0.20000000000000001
40
0.40000000000000002
40
0.60000000000000009
40
0.71630622135635369
40
0.71630622135635369
40
0.71630622135635369
40
0.71630622135635369
40
0.71630622135635369
40
0.71630622135635369
41
1
41
1
41
1
41
1
41
1
41
1
41
1
41
1
41
1
10
55.663363271726269
20
-10.375232330139205
30
0
10
55.40043839395581
20
-10.624425332061158
30
0
10
54.858318138770272
20
-11.079268469826083
30
0
10
53.996370892212099
20
-11.631011929617385
30
0
10
52.892619418383461
20
-12.080343613312097
30
0
10
51.732336372470122
20
-12.323384051938307
30
0
10
50.878755859389969
20
-12.394234381606569
30
0
10
50.351281940465341
20
-12.396012487579275
30
0
10
50.156795045644756
20
-12.390887149883671
30
0
0
SPLINE
5
288
100
AcDbEntity
8
0
100
AcDbSpline
70
4
71
3
72
8
73
4
74
0
42
0.000000001
43
0.0000000001
44
0.0000000001
40
0.6544023494866259
40
0.6544023494866259
40
0.6544023494866259
40
0.6544023494866259
40
1
40
1
40
1
40
1
41
1
41
1
41
1
41
1
10
50.156795045644756
20
-12.390887149883676
30
0
10
49.466368984029089
20
-11.560751950358849
30
0
10
48.73044819634341
20
-10.287531450809681
30
0
10
47.605878903059207
20
-8.3419080884424819
30
0
0
SPLINE
5
289
100
AcDbEntity
8
0
100
AcDbSpline
70
4
71
3
72
8
73
4
74
0
42
0.000000001
43
0.0000000001
44
0.0000000001
40
0
40
0
40
0
40
0
40
0.4942971763127807
40
0.4942971763127807
40
0.4942971763127807
40
0.4942971763127807
41
1
41
1
41
1
41
1
10
47.605878903059207
20
-8.3419080884424819
30
0
10
45.997439711551031
20
-5.5591457266102005
30
0
10
45.18404747067617
20
-4.1518949425810998
30
0
10
45.040315802010944
20
-3.0028312626470681
30
0
0
ARC
5
290
100
AcDbEntity
8
0
100
AcDbCircle
10
37.669394119644849
20
24.009564291106127
30
0
40
28.000000000000007
210
-0
220
0
230
1
100
AcDbArc
50
285.26282728951344
51
314.66973910365141
0
ARC
5
291
100
AcDbEntity
8
0
100
AcDbCircle
10
37.669394119644849
20
24.009564291106127
30
0
40
28
210
0
220
-0
230
1
100
AcDbArc
50
54.698337825533322
51
65.103454160406883
0
SPLINE
5
292
100
AcDbEntity
8
0
100
AcDbSpline
70
4
71
3
72
8
73
4
74
0
42
0.000000001
43
0.0000000001
44
0.0000000001
40
0.68255034353119826
40
0.68255034353119826
40
0.68255034353119826
40
0.68255034353119826
40
1
40
1
40
1
40
1
41
1
41
1
41
1
41
1
10
49.456865762972427
20
49.407507362499679
30
0
10
49.504924202822835
20
50.529347472619335
30
0
10
49.594662990932349
20
52.153666249928357
30
0
10
49.726138696658673
20
54.533444961789442
30
0
0
SPLINE
5
293
100
AcDbEntity
8
0
100
AcDbSpline
70
4
71
3
72
8
73
4
74
0
42
0.000000001
43
0.0000000001
44
0.0000000001
40
0
40
0
40
0
40
0
40
1
40
1
40
1
40
1
41
1
41
1
41
1
41
1
10
49.726138696658673
20
54.533444961789442
30
0
10
50.140301078148738
20
62.03001580326081
30
0
10
50.140301078148738
20
62.03001580326081
30
0
10
56.233654921837712
20
64.282494593544016
30
0
0
SPLINE
5
294
100
AcDbEntity
8
0
100
AcDbSpline
70
4
71
3
72
8
73
4
74
0
42
0.000000001
43
0.0000000001
44
0.0000000001
40
0
40
0
40
0
40
0
40
0.3548043275509406
40
0.3548043275509406
40
0.3548043275509406
40
0.3548043275509406
41
1
41
1
41
1
41
1
10
56.233654921837712
20
64.282494593544016
30
0
10
58.395603234877704
20
65.081683816053186
30
0
10
59.790482930509654
20
65.597317243884049
30
0
10
60.863894410722281
20
65.74737639109361
30
0
0
SPLINE
5
295
100
AcDbEntity
8
0
100
AcDbSpline
70
4
71
5
72
12
73
6
74
0
42
0.000000001
43
0.0000000001
44
0.0000000001
40
-0.78779273791455784
40
-0.78779273791455784
40
-0.78779273791455784
40
-0.78779273791455784
40
-0.78779273791455784
40
-0.78779273791455784
40
-0.63450887224765418
40
-0.63450887224765418
40
-0.63450887224765418
40
-0.63450887224765418
40
-0.63450887224765418
40
-0.63450887224765418
41
1
41
1
41
1
41
1
41
1
41
1
10
60.863894410722224
20
65.747376391093638
30
0
10
61.093038134307434
20
65.653965206833618
30
0
10
61.316700328851432
20
65.542901163053585
30
0
10
61.535658199457615
20
65.416638770370938
30
0
10
61.750838114573625
20
65.278098844055563
30
0
10
61.963221028891162
20
65.130366894520762
30
0
0
SPLINE
5
296
100
AcDbEntity
8
0
100
AcDbSpline
70
4
71
5
72
15
73
9
74
0
42
0.000000001
43
0.0000000001
44
0.0000000001
40
-0.63450887224765207
40
-0.63450887224765207
40
-0.63450887224765207
40
-0.63450887224765207
40
-0.63450887224765207
40
-0.63450887224765207
40
-0.60000000000000009
40
-0.40000000000000002
40
-0.20000000000000001
40
-0.074302398979400788
40
-0.074302398979400788
40
-0.074302398979400788
40
-0.074302398979400788
40
-0.074302398979400788
40
-0.074302398979400788
41
1
41
1
41
1
41
1
41
1
41
1
41
1
41
1
41
1
10
61.963221028891191
20
65.130366894520748
30
0
10
62.011034899097822
20
65.097107927889056
30
0
10
62.334995999464752
20
64.867926947265829
30
0
10
62.924073922559913
20
64.406438767592945
30
0
10
63.672618026441938
20
63.772908154845723
30
0
10
64.446584306151621
20
63.213523121656792
30
0
10
65.233337451523298
20
62.872367213557197
30
0
10
65.749835847416591
20
62.749682729818623
30
0
10
65.953693653245381
20
62.716146920540226
30
0
0
SPLINE
5
297
100
AcDbEntity
8
0
100
AcDbSpline
70
4
71
3
72
8
73
4
74
0
42
0.000000001
43
0.0000000001
44
0.0000000001
40
0.97748684305513212
40
0.97748684305513212
40
0.97748684305513212
40
0.97748684305513212
40
1
40
1
40
1
40
1
41
1
41
1
41
1
41
1
10
65.953693653245452
20
62.71614692054019
30
0
10
66.037293402526259
20
62.628219253843668
30
0
10
66.122747463556721
20
62.53824017177395
30
0
10
66.210169674543593
20
62.446188720944718
30
0
0
SPLINE
5
298
100
AcDbEntity
8
0
100
AcDbSpline
70
4
71
3
72
8
73
4
74
0
42
0.000000001
43
0.0000000001
44
0.0000000001
40
0
40
0
40
0
40
0
40
1
40
1
40
1
40
1
41
1
41
1
41
1
41
1
10
66.210169674543593
20
62.446188720944718
30
0
10
70.093330583560515
20
58.357404058062237
30
0
10
70.093330583560515
20
58.357404058062237
30
0
10
68.551895278283013
20
53.740453959388731
30
0
0
SPLINE
5
299
100
AcDbEntity
8
0
100
AcDbSpline
70
4
71
3
72
8
73
4
74
0
42
0.000000001
43
0.0000000001
44
0.0000000001
40
0
40
0
40
0
40
0
40
1
40
1
40
1
40
1
41
1
41
1
41
1
41
1
10
68.551895278283013
20
53.740453959388731
30
0
10
67.010468047448057
20
49.123503860715232
30
0
10
67.010468047448057
20
49.123503860715232
30
0
10
58.573612222659648
20
47.66881229170481
30
0
0
SPLINE
5
300
100
AcDbEntity
8
0
100
AcDbSpline
70
4
71
3
72
8
73
4
74
0
42
0.000000001
43
0.0000000001
44
0.0000000001
40
0
40
0
40
0
40
0
40
0.23895086426072126
40
0.23895086426072126
40
0.23895086426072126
40
0.23895086426072126
41
1
41
1
41
1
41
1
10
58.573612222659648
20
47.66881229170481
30
0
10
56.557620161078376
20
47.321208625266948
30
0
10
55.023351144954717
20
47.056665155344604
30
0
10
53.850070537349467
20
46.860947414793372
30
0
0
ARC
5
301
100
AcDbEntity
8
0
100
AcDbCircle
10
37.669394119644849
20
24.009564291106127
30
0
40
28.000000000000004
210
0
220
0
230
1
100
AcDbArc
50
164.8695794021024
51
208.82758746147141
0
SPLINE
5
302
100
AcDbEntity
8
0
100
AcDbSpline
70
4
71
3
72
8
73
4
74
0
42
0.000000001
43
0.0000000001
44
0.0000000001
40
0.040368555846372403
40
0.040368555846372403
40
0.040368555846372403
40
0.040368555846372403
40
1
40
1
40
1
40
1
41
1
41
1
41
1
41
1
10
13.139304817973104
20
10.508648809109747
30
0
10
8.2757032874192831
20
10.408167652953912
30
0
10
8.1894731277225574
20
10.499938355964922
30
0
10
6.0534006849806001
20
12.773259783668534
30
0
0
SPLINE
5
303
100
AcDbEntity
8
0
100
AcDbSpline
70
4
71
3
72
8
73
4
74
0
42
0.000000001
43
0.0000000001
44
0.0000000001
40
0
40
0
40
0
40
0
40
1
40
1
40
1
40
1
41
1
41
1
41
1
41
1
10
6.0534006849806001
20
12.773259783668534
30
0
10
3.8274706617872436
20
15.142204333229079
30
0
10
3.8274706617872436
20
15.142204333229079
30
0
10
6.0702439721306636
20
23.436925745887773
30
0
0
SPLINE
5
304
100
AcDbEntity
8
0
100
AcDbSpline
70
4
71
3
72
8
73
4
74
0
42
0.000000001
43
0.0000000001
44
0.0000000001
40
0
40
0
40
0
40
0
40
0.72064148534232353
40
0.72064148534232353
40
0.72064148534232353
40
0.72064148534232353
41
1
41
1
41
1
41
1
10
6.0702439721306636
20
23.436925745887773
30
0
10
7.6864794617826648
20
29.414440286428629
30
0
10
8.1379886075088699
20
31.084309869818789
30
0
10
10.640037005559845
20
31.318042518429689
30
0
0
SPLINE
5
305
100
AcDbEntity
8
0
100
AcDbSpline
70
4
71
3
72
8
73
4
74
0
42
0.000000001
43
0.0000000001
44
0.0000000001
40
0.9402470452245183
40
0.9402470452245183
40
0.9402470452245183
40
0.9402470452245183
40
1
40
1
40
1
40
1
41
1
41
1
41
1
41
1
10
57.475558529520782
20
43.801377026905833
30
0
10
57.921092081464124
20
43.879305465401266
30
0
10
58.395095610678368
20
43.961034638744401
30
0
10
58.899222192752418
20
44.047957723223362
30
0
0
SPLINE
5
306
100
AcDbEntity
8
0
100
AcDbSpline
70
4
71
3
72
8
73
4
74
0
42
0.000000001
43
0.0000000001
44
0.0000000001
40
0
40
0
40
0
40
0
40
1
40
1
40
1
40
1
41
1
41
1
41
1
41
1
10
58.899222192752418
20
44.047957723223362
30
0
10
67.336069943098295
20
45.502665441118864
30
0
10
67.336069943098295
20
45.502665441118864
30
0
10
69.889846556969545
20
41.021979634844463
30
0
0
SPLINE
5
307
100
AcDbEntity
8
0
100
AcDbSpline
70
4
71
3
72
8
73
4
74
0
42
0.000000001
43
0.0000000001
44
0.0000000001
40
0
40
0
40
0
40
0
40
1
40
1
40
1
40
1
41
1
41
1
41
1
41
1
10
69.889846556969545
20
41.021979634844463
30
0
10
72.443623170840809
20
36.541293828570048
30
0
10
72.443623170840809
20
36.541293828570048
30
0
10
68.589279947269006
20
31.284266520423891
30
0
0
SPLINE
5
308
100
AcDbEntity
8
0
100
AcDbSpline
70
4
71
3
72
8
73
4
74
0
42
0.000000001
43
0.0000000001
44
0.0000000001
40
0
40
0
40
0
40
0
40
0.36006005191182899
40
0.36006005191182899
40
0.36006005191182899
40
0.36006005191182899
41
1
41
1
41
1
41
1
10
68.589279947269006
20
31.284266520423891
30
0
10
67.201484926103745
20
29.391420994950884
30
0
10
66.313379452302215
20
28.180113527640763
30
0
10
65.44406249585775
20
27.554673117559602
30
0
0
ARC
5
309
100
AcDbEntity
8
0
100
AcDbCircle
10
37.669394119644849
20
24.009564291106127
30
0
40
28
210
0
220
-0
230
1
100
AcDbArc
50
7.2738002292377484
51
44.979234032221264
0
CIRCLE
5
310
100
AcDbEntity
8
0
100
AcDbCircle
10
37.669394119644849
20
24.009564291106127
30
0
40
21.999999999999993
210
0
220
0
230
1
0
SPLINE
5
311
100
AcDbEntity
8
0
100
AcDbSpline
70
4
71
3
72
8
73
4
74
0
42
0.000000001
43
0.0000000001
44
0.0000000001
40
0.16293547808131545
40
0.16293547808131545
40
0.16293547808131545
40
0.16293547808131545
40
0.24063151749760231
40
0.24063151749760231
40
0.24063151749760231
40
0.24063151749760231
41
1
41
1
41
1
41
1
10
12.398889439236338
20
36.067822589776448
30
0
10
12.051036939668528
20
36.104316182409562
30
0
10
11.734196159889889
20
36.138923636319106
30
0
10
11.444880221768685
20
36.172535864167706
30
0
0
ARC
5
312
100
AcDbEntity
8
0
100
AcDbCircle
10
11.222561888131517
20
41.167590874728504
30
0
40
4.9999999999999654
210
0
220
0
230
1
100
AcDbArc
50
250.17691103495918
51
272.54842062810303
0
SPLINE
5
313
100
AcDbEntity
8
0
100
AcDbSpline
70
4
71
3
72
8
73
4
74
0
42
0.000000001
43
0.0000000001
44
0.0000000001
40
0.46762606622688108
40
0.46762606622688108
40
0.46762606622688108
40
0.46762606622688108
40
1
40
1
40
1
40
1
41
1
41
1
41
1
41
1
10
9.5269766510561951
20
36.463869932345546
30
0
10
8.4426677076463452
20
36.706440881845737
30
0
10
8.1723631003615953
20
37.02449052543767
30
0
10
7.594327300377758
20
37.70462721276602
30
0
0
SPLINE
5
314
100
AcDbEntity
8
0
100
AcDbSpline
70
4
71
3
72
8
73
4
74
0
42
0.000000001
43
0.0000000001
44
0.0000000001
40
0
40
0
40
0
40
0
40
0.35182510133493305
40
0.35182510133493305
40
0.35182510133493305
40
0.35182510133493305
41
1
41
1
41
1
41
1
10
7.594327300377758
20
37.70462721276602
30
0
10
7.2123260583875659
20
38.154102936051302
30
0
10
6.9647224420706433
20
38.445441817444149
30
0
10
6.9342682972134533
20
39.070708146065783
30
0
0
ARC
5
315
100
AcDbEntity
8
0
100
AcDbCircle
10
3.7399812863372919
20
45.579089703115727
30
0
40
7.2500000000000018
210
-0
220
0
230
1
100
AcDbArc
50
-63.858384757065465
51
34.666696591178784
0
SPLINE
5
316
100
AcDbEntity
8
0
100
AcDbSpline
70
4
71
3
72
8
73
4
74
0
42
0.000000001
43
0.0000000001
44
0.0000000001
40
0.023821340675868941
40
0.023821340675868941
40
0.023821340675868941
40
0.023821340675868941
40
0.056482351716878383
40
0.056482351716878383
40
0.056482351716878383
40
0.056482351716878383
41
1
41
1
41
1
41
1
10
9.702923573333555
20
49.702900959944998
30
0
10
9.7959386220151519
20
50.014787130344764
30
0
10
9.8859560784552496
20
50.316213949803874
30
0
10
9.9732332355944404
20
50.607498111529523
30
0
0
SPLINE
5
317
100
AcDbEntity
8
0
100
AcDbSpline
70
4
71
5
72
15
73
9
74
0
42
0.000000001
43
0.0000000001
44
0.0000000001
40
-0.66930886658085453
40
-0.66930886658085453
40
-0.66930886658085453
40
-0.66930886658085453
40
-0.66930886658085453
40
-0.66930886658085453
40
-0.60000000000000009
40
-0.40000000000000002
40
-0.20000000000000001
40
0
40
0
40
0
40
0
40
0
40
0
41
1
41
1
41
1
41
1
41
1
41
1
41
1
41
1
41
1
10
9.9732332355944369
20
50.607498111529523
30
0
10
10.069463337462683
20
50.576724596801697
30
0
10
10.441989301139714
20
50.449705414603905
30
0
10
11.082339752644423
20
50.181463399982405
30
0
10
11.979249771805289
20
49.716830532355388
30
0
10
12.865761392375429
20
49.217160405080982
30
0
10
13.661382512754429
20
48.804688118829453
30
0
10
14.193354150173658
20
48.554270751475315
30
0
10
14.459730251207255
20
48.435211768906555
30
0
0
ARC
5
318
100
AcDbEntity
8
0
100
AcDbCircle
10
16.500000134110447
20
53.000000789761543
30
0
40
5.0000000000000018
210
0
220
0
230
1
100
AcDbArc
50
-114.08264714170423
51
9.5665925552635134
0
SPLINE
5
319
100
AcDbEntity
8
0
100
AcDbSpline
70
4
71
5
72
13
73
7
74
0
42
0.000000001
43
0.0000000001
44
0.0000000001
40
0
40
0
40
0
40
0
40
0
40
0
40
0.20000000000000001
40
0.22165738897243825
40
0.22165738897243825
40
0.22165738897243825
40
0.22165738897243825
40
0.22165738897243825
40
0.22165738897243825
41
1
41
1
41
1
41
1
41
1
41
1
41
1
10
21.430465670598295
20
53.830969858683844
30
0
10
21.353878721012542
20
54.285390281295975
30
0
10
21.295210571216625
20
54.793646198256205
30
0
10
21.265572237600225
20
55.307019277062999
30
0
10
21.26402700472326
20
55.82343049269614
30
0
10
21.290297550189479
20
56.339211834355503
30
0
10
21.293129709424274
20
56.389597498314252
30
0
0
SPLINE
5
320
100
AcDbEntity
8
0
100
AcDbSpline
70
4
71
3
72
8
73
4
74
0
42
0.000000001
43
0.0000000001
44
0.0000000001
40
0.52880498235620399
40
0.52880498235620399
40
0.52880498235620399
40
0.52880498235620399
40
1
40
1
40
1
40
1
41
1
41
1
41
1
41
1
10
21.293129709424274
20
56.389597498314231
30
0
10
22.176709749208054
20
55.517364957341648
30
0
10
22.977355788615583
20
54.052263161548893
30
0
10
24.491422535566556
20
51.281673162066141
30
0
0
SPLINE
5
321
100
AcDbEntity
8
0
100
AcDbSpline
70
4
71
3
72
8
73
4
74
0
42
0.000000001
43
0.0000000001
44
0.0000000001
40
0
40
0
40
0
40
0
40
0.12979005296751706
40
0.12979005296751706
40
0.12979005296751706
40
0.12979005296751706
41
1
41
1
41
1
41
1
10
24.491422535566556
20
51.281673162066141
30
0
10
24.908469198032815
20
50.518515664793789
30
0
10
25.271387352087643
20
49.854408419514975
30
0
10
25.580285197516353
20
49.265324930392218
30
0
0
ARC
5
322
100
AcDbEntity
8
0
100
AcDbCircle
10
37.669394119644849
20
24.009564291106127
30
0
40
27.999999999999986
210
0
220
0
230
1
100
AcDbArc
50
115.57891800484775
51
154.49104997274381
0
ENDSEC
0
SECTION
2
OBJECTS
0
DICTIONARY
5
C
100
AcDbDictionary
3
ACAD_GROUP
350
D
3
ACAD_MLINESTYLE
350
17
0
DICTIONARY
5
D
100
AcDbDictionary
0
DICTIONARY
5
1A
330
C
100
AcDbDictionary
0
DICTIONARY
5
17
100
AcDbDictionary
0
ENDSEC
0
EOF
