0
SECTION
2
HEADER
9
$INSUNITS
70
4
9
$ACADVER
1
AC1014
9
$HANDSEED
5
FFFF
0
ENDSEC
0
SECTION
2
TABLES
0
TABLE
2
VPORT
5
8
100
AcDbSymbolTable
0
ENDTAB
0
TABLE
2
LTYPE
5
5
100
AcDbSymbolTable
0
LTYPE
5
14
100
AcDbSymbolTableRecord
100
AcDbLinetypeTableRecord
2
BYBLOCK
70
0
0
LTYPE
5
15
100
AcDbSymbolTableRecord
100
AcDbLinetypeTableRecord
2
BYLAYER
70
0
0
ENDTAB
0
TABLE
2
LAYER
5
2
100
AcDbSymbolTable
70
2
0
LAYER
5
50
100
AcDbSymbolTableRecord
100
AcDbLayerTableRecord
2
0
70
0
6
CONTINUOUS
0
ENDTAB
0
TABLE
2
STYLE
5
3
100
AcDbSymbolTable
70
1
0
STYLE
5
11
100
AcDbSymbolTableRecord
100
AcDbTextStyleTableRecord
2
STANDARD
70
0
0
ENDTAB
0
TABLE
2
VIEW
5
6
100
AcDbSymbolTable
70
0
0
ENDTAB
0
TABLE
2
UCS
5
7
100
AcDbSymbolTable
70
0
0
ENDTAB
0
TABLE
2
APPID
5
9
100
AcDbSymbolTable
70
2
0
APPID
5
12
100
AcDbSymbolTableRecord
100
AcDbRegAppTableRecord
2
ACAD
70
0
0
ENDTAB
0
TABLE
2
DIMSTYLE
5
A
100
AcDbSymbolTable
70
1
0
ENDTAB
0
TABLE
2
BLOCK_RECORD
5
1
100
AcDbSymbolTable
70
1
0
BLOCK_RECORD
5
1F
100
AcDbSymbolTableRecord
100
AcDbBlockTableRecord
2
*MODEL_SPACE
0
BLOCK_RECORD
5
1B
100
AcDbSymbolTableRecord
100
AcDbBlockTableRecord
2
*PAPER_SPACE
0
ENDTAB
0
ENDSEC
0
SECTION
2
BLOCKS
0
BLOCK
5
20
100
AcDbEntity
100
AcDbBlockBegin
2
*MODEL_SPACE
0
ENDBLK
5
21
100
AcDbEntity
100
AcDbBlockEnd
0
BLOCK
5
1C
100
AcDbEntity
100
AcDbBlockBegin
2
*PAPER_SPACE
0
ENDBLK
5
1D
100
AcDbEntity
100
AcDbBlockEnd
0
ENDSEC
0
SECTION
2
ENTITIES
0
LWPOLYLINE
5
100
100
AcDbEntity
8
0
100
AcDbPolyline
90
3
70
1
43
0.0
10
96.600579385309572
20
-53.330658705504845
10
96.612078016350296
20
-53.234836780165423
10
96.547690353267086
20
-53.254060400547516
42
-0.0032098111659516399
0
ARC
5
101
100
AcDbEntity
8
0
100
AcDbCircle
10
90.608245303408026
20
-57.411642931262179
30
0
40
7.2500000000000711
210
0
220
0
230
1
100
AcDbArc
50
203.68020503669803
51
226.45006123550363
0
SPLINE
5
102
100
AcDbEntity
8
0
100
AcDbSpline
70
4
71
3
72
8
73
4
74
0
42
0.000000001
43
0.0000000001
44
0.0000000001
40
0
40
0
40
0
40
0
40
1
40
1
40
1
40
1
41
1
41
1
41
1
41
1
10
90.17014780997043
20
-37.948362335446674
30
0
10
82.591140947330047
20
-37.17442701745351
30
0
10
82.591140947330047
20
-37.17442701745351
30
0
10
84.118793179182276
20
-45.400604487342832
30
0
0
ARC
5
103
100
AcDbEntity
8
0
100
AcDbCircle
10
-5.0000000000000036
20
4.9999999999999964
30
0
40
7.2500000000000018
210
0
220
0
230
1
100
AcDbArc
50
-52.035718920704156
51
55.959455013240486
0
LINE
5
104
100
AcDbEntity
8
0
100
AcDbLine
10
-9.9385400851528711
20
-41.785888724781024
30
0
11
-9.9385400851528711
21
-40.674854460623123
31
0
0
SPLINE
5
105
100
AcDbEntity
8
0
100
AcDbSpline
70
4
71
3
72
8
73
4
74
0
42
0.000000001
43
0.0000000001
44
0.0000000001
40
0
40
0
40
0
40
0
40
0.74932511163151683
40
0.74932511163151683
40
0.74932511163151683
40
0.74932511163151683
41
1
41
1
41
1
41
1
10
-5.1913481299201081
20
-24.460377487424232
30
0
10
-6.8719144910573915
20
-18.244940489313986
30
0
10
-7.2931902760313072
20
-16.686886513651363
30
0
10
-9.9385400851528711
20
-16.299192156395783
30
0
0
SPLINE
5
106
100
AcDbEntity
8
0
100
AcDbSpline
70
4
71
3
72
8
73
4
74
0
42
0.000000001
43
0.0000000001
44
0.0000000001
40
0
40
0
40
0
40
0
40
1
40
1
40
1
40
1
41
1
41
1
41
1
41
1
10
-4.0343451086798865
20
-34.032645274086015
30
0
10
-2.9485748195766881
20
-32.755090825640366
30
0
10
-2.9485748195766881
20
-32.755090825640366
30
0
10
-5.1913481299201081
20
-24.460377487424232
30
0
0
ARC
5
107
100
AcDbEntity
8
0
100
AcDbCircle
10
-3.7600187136627028
20
-45.579089703115727
30
0
40
7.2500000000000036
210
0
220
0
230
1
100
AcDbArc
50
135.43175011337729
51
148.45284393283654
0
SPLINE
5
108
100
AcDbEntity
8
0
100
AcDbSpline
70
4
71
5
72
15
73
9
74
0
42
0.000000001
43
0.0000000001
44
0.0000000001
40
0
40
0
40
0
40
0
40
0
40
0
40
0.20000000000000001
40
0.40000000000000002
40
0.60000000000000009
40
0.71630622135635269
40
0.71630622135635269
40
0.71630622135635269
40
0.71630622135635269
40
0.71630622135635269
40
0.71630622135635269
41
1
41
1
41
1
41
1
41
1
41
1
41
1
41
1
41
1
10
48.163363271726269
20
10.375232330139204
30
0
10
47.900438393955824
20
10.624425332061156
30
0
10
47.358318138770272
20
11.079268469826079
30
0
10
46.496370892212099
20
11.631011929617383
30
0
10
45.392619418383461
20
12.080343613312095
30
0
10
44.232336372470144
20
12.323384051938305
30
0
10
43.37875585938999
20
12.394234381606569
30
0
10
42.851281940465356
20
12.396012487579274
30
0
10
42.656795045644778
20
12.390887149883669
30
0
0
ARC
5
109
100
AcDbEntity
8
0
100
AcDbCircle
10
51.602859486244924
20
14.004263301391969
30
0
40
4.9999999999999991
210
0
220
0
230
1
100
AcDbArc
50
226.53595506570377
51
318.9320514352753
0
LINE
5
110
100
AcDbEntity
8
0
100
AcDbLine
10
113.27403343357588
20
37.733677715312517
30
0
11
104.59420128744277
21
48.914829456608267
31
0
0
SPLINE
5
111
100
AcDbEntity
8
0
100
AcDbSpline
70
0
71
3
72
10
73
6
74
0
42
0.000000001
43
0.0000000001
44
0.0000000001
40
0
40
0
40
0
40
0
40
0.16155381936618521
40
0.16155381936618521
40
0.2241267499801616
40
0.2241267499801616
40
0.2241267499801616
40
0.2241267499801616
10
104.59420128744277
20
48.914829456608267
30
0
10
104.26398054638682
20
49.340211900843045
30
0
10
103.88566241133645
20
49.726203673203919
30
0
10
103.27533678663684
20
50.158709623543345
30
0
10
103.09924885769929
20
50.265835010507843
30
0
10
102.91705629009896
20
50.359355757931937
30
0
0
SPLINE
5
112
100
AcDbEntity
8
0
100
AcDbSpline
70
0
71
3
72
12
73
8
74
0
42
0.000000001
43
0.0000000001
44
0.0000000001
40
0
40
0
40
0
40
0
40
0.17241385814177065
40
0.17241385814177065
40
0.41656550342665066
40
0.41656550342665066
40
0.9531403925718207
40
0.9531403925718207
40
0.9531403925718207
40
0.9531403925718207
10
102.00000151991846
20
50.702366539387775
30
0
10
101.44221900856004
20
50.840835099051212
30
0
10
100.86797937260775
20
50.867591275903948
30
0
10
99.48594773794926
20
50.755579688955635
30
0
10
98.623348681520298
20
50.539547069942955
30
0
10
95.71926509695021
20
49.487755490637213
30
0
10
93.540759870020551
20
48.22902555959547
30
0
10
91.931997074058984
20
47.129834576059338
30
0
0
SPLINE
5
113
100
AcDbEntity
8
0
100
AcDbSpline
70
0
71
3
72
10
73
6
74
0
42
0.000000001
43
0.0000000001
44
0.0000000001
40
0
40
0
40
0
40
0
40
0.6809478886201622
40
0.6809478886201622
40
0.7626186326130856
40
0.7626186326130856
40
0.7626186326130856
40
0.7626186326130856
10
91.931997074059026
20
47.129834576059352
30
0
10
90.057856471676956
20
45.849323578920043
30
0
10
86.569157103858444
20
43.453144338655711
30
0
10
83.815488562052295
20
41.443092977242053
30
0
10
83.518593119717764
20
41.224630203723663
30
0
10
83.220572508459384
20
41.003162637749341
30
0
0
SPLINE
5
114
100
AcDbEntity
8
0
100
AcDbSpline
70
0
71
3
72
8
73
4
74
0
42
0.000000001
43
0.0000000001
44
0.0000000001
40
1.270613335639446
40
1.270613335639446
40
1.270613335639446
40
1.270613335639446
40
1.2925160645548637
40
1.2925160645548637
40
1.2925160645548637
40
1.2925160645548637
10
77.744194277357963
20
36.562057056900244
30
0
10
77.669775708434955
20
36.49440889946063
30
0
10
77.595669829463361
20
36.426627647387527
30
0
10
77.521891750626992
20
36.358718639550283
30
0
0
SPLINE
5
115
100
AcDbEntity
8
0
100
AcDbSpline
70
0
71
3
72
10
73
6
74
0
42
0.000000001
43
0.0000000001
44
0.0000000001
40
0
40
0
40
0
40
0
40
0.19614362250703274
40
0.19614362250703274
40
0.36850904690606345
40
0.36850904690606345
40
0.36850904690606345
40
0.36850904690606345
10
77.52189175057039
20
36.35871863961178
30
0
10
77.040838964003399
20
35.915933764099307
30
0
10
76.300162725924793
20
35.258170361860799
30
0
10
74.914752911302031
20
34.223526034540207
30
0
10
74.34248859198712
20
33.874938240180889
30
0
10
73.73927986113722
20
33.598805755439791
30
0
0
SPLINE
5
116
100
AcDbEntity
8
0
100
AcDbSpline
70
0
71
3
72
8
73
4
74
0
42
0.000000001
43
0.0000000001
44
0.0000000001
40
0
40
0
40
0
40
0
40
0.11163241270065936
40
0.11163241270065936
40
0.11163241270065936
40
0.11163241270065936
10
73.73927986113722
20
33.598805755439784
30
0
10
73.400937718279224
20
33.443921961784532
30
0
10
73.060062482636013
20
33.297915705998527
30
0
10
72.715905868629093
20
33.160827855877699
30
0
0
SPLINE
5
117
100
AcDbEntity
8
0
100
AcDbSpline
70
0
71
3
72
10
73
6
74
0
42
0.000000001
43
0.0000000001
44
0.0000000001
40
0.11163241270065689
40
0.11163241270065689
40
0.11163241270065689
40
0.11163241270065689
40
0.26978069817554579
40
0.26978069817554579
40
0.53948561234994474
40
0.53948561234994474
40
0.53948561234994474
40
0.53948561234994474
10
72.715905868629108
20
33.160827855877699
30
0
10
72.228343366634391
20
32.966617160869397
30
0
10
71.734194877434675
20
32.79030636392357
30
0
10
70.373756629996791
20
32.362054328241278
30
0
10
69.507038921139781
20
32.149592263078368
30
0
10
68.622496606925466
20
31.988860602075757
30
0
0
LINE
5
118
100
AcDbEntity
8
0
100
AcDbLine
10
68.62249660692548
20
31.988860602075754
30
0
11
53.012857274071557
21
29.15240697255113
31
0
0
SPLINE
5
119
100
AcDbEntity
8
0
100
AcDbSpline
70
4
71
5
72
14
73
8
74
0
42
0.000000001
43
0.0000000001
44
0.0000000001
40
-0.29134070401662299
40
-0.29134070401662299
40
-0.29134070401662299
40
-0.29134070401662299
40
-0.29134070401662299
40
-0.29134070401662299
40
-0.20000000000000001
40
-0.10000000000000001
40
0
40
0
40
0
40
0
40
0
40
0
41
1
41
1
41
1
41
1
41
1
41
1
41
1
41
1
10
47.753162951844608
20
24.341636819363512
30
0
10
47.971756307870507
20
24.788728564999928
30
0
10
48.442717692908566
20
25.704933979659117
30
0
10
49.226829334912637
20
27.004826093372483
30
0
10
50.195580332575616
20
28.063367895133258
30
0
10
51.452950800539952
20
28.761483484944304
30
0
10
52.467633333258767
20
29.053333419803042
30
0
10
53.012857274071557
20
29.15240697255113
30
0
0
SPLINE
5
120
100
AcDbEntity
8
0
100
AcDbSpline
70
4
71
5
72
15
73
9
74
0
42
0.000000001
43
0.0000000001
44
0.0000000001
40
-0.53122757123177677
40
-0.53122757123177677
40
-0.53122757123177677
40
-0.53122757123177677
40
-0.53122757123177677
40
-0.53122757123177677
40
-0.5
40
-0.40000000000000002
40
-0.30000000000000004
40
-0.29134070401662415
40
-0.29134070401662415
40
-0.29134070401662415
40
-0.29134070401662415
40
-0.29134070401662415
40
-0.29134070401662415
41
1
41
1
41
1
41
1
41
1
41
1
41
1
41
1
41
1
10
44.689604510141024
20
18.568491434889101
30
0
10
44.787631978626372
20
18.698869232394642
30
0
10
45.192138917671869
20
19.255865613822554
30
0
10
45.850753067778967
20
20.302610747220491
30
0
10
46.445008820120478
20
21.488452859393004
30
0
10
46.991048860268904
20
22.717595917885482
30
0
10
47.473102880584165
20
23.766292991615749
30
0
10
47.732439829659306
20
24.299251556419968
30
0
10
47.753162951844594
20
24.341636819363476
30
0
0
SPLINE
5
121
100
AcDbEntity
8
0
100
AcDbSpline
70
4
71
5
72
13
73
7
74
0
42
0.000000001
43
0.0000000001
44
0.0000000001
40
-1
40
-1
40
-1
40
-1
40
-1
40
-1
40
-0.89999999999999991
40
-0.80760799617796031
40
-0.80760799617796031
40
-0.80760799617796031
40
-0.80760799617796031
40
-0.80760799617796031
40
-0.80760799617796031
41
1
41
1
41
1
41
1
41
1
41
1
41
1
10
34.361727924017217
20
14.004263301391966
30
0
10
34.85160455160802
20
14.004263301391966
30
0
10
35.796846733776547
20
14.037752097357687
30
0
10
36.747388547876092
20
14.135674183133771
30
0
10
37.695573328115593
20
14.302443198784449
30
0
10
38.625886636704799
20
14.546566010201449
30
0
10
39.066721272230673
20
14.682558455821745
30
0
0
LINE
5
122
100
AcDbEntity
8
0
100
AcDbLine
10
34.361727924017217
20
14.004263301391966
30
0
11
22.401695812835008
21
14.004263301391966
31
0
0
SPLINE
5
123
100
AcDbEntity
8
0
100
AcDbSpline
70
4
71
5
72
14
73
8
74
0
42
0.000000001
43
0.0000000001
44
0.0000000001
40
0.78286394046103247
40
0.78286394046103247
40
0.78286394046103247
40
0.78286394046103247
40
0.78286394046103247
40
0.78286394046103247
40
0.79999999999999993
40
0.89999999999999991
40
1
40
1
40
1
40
1
40
1
40
1
41
1
41
1
41
1
41
1
41
1
41
1
41
1
41
1
10
19.548231901883717
20
14.155097529601072
30
0
10
19.585874984713442
20
14.146170991107434
30
0
10
19.845243889411574
20
14.088327617522863
30
0
10
20.352062515645521
20
14.019824363070212
30
0
10
20.906887506159553
20
14.003764529816076
30
0
10
21.507262808274334
20
14.004142753820181
30
0
10
22.097366779384913
20
14.004263301391966
30
0
10
22.401695812835008
20
14.004263301391966
30
0
0
SPLINE
5
124
100
AcDbEntity
8
0
100
AcDbSpline
70
4
71
5
72
16
73
10
74
0
42
0.000000001
43
0.0000000001
44
0.0000000001
40
0
40
0
40
0
40
0
40
0
40
0
40
0.10000000000000001
40
0.20000000000000001
40
0.30000000000000004
40
0.40000000000000002
40
0.429236581341496
40
0.429236581341496
40
0.429236581341496
40
0.429236581341496
40
0.429236581341496
40
0.429236581341496
41
1
41
1
41
1
41
1
41
1
41
1
41
1
41
1
41
1
41
1
10
10.099999774247408
20
23.960330579485767
30
0
10
10.669717957222755
20
23.960330579485767
30
0
10
11.733048699581365
20
23.868216270644886
30
0
10
13.099742863439392
20
23.45372302858026
30
0
10
14.493450592942219
20
22.400477628432981
30
0
10
15.50851685099188
20
20.80113285817329
30
0
10
16.089877115651845
20
19.473864154864323
30
0
10
16.439784455872765
20
18.573093094743424
30
0
10
16.626404661782427
20
18.083919526083193
30
0
10
16.668154805362118
20
17.974334880026767
30
0
0
LINE
5
125
100
AcDbEntity
8
0
100
AcDbLine
10
10.099999774247408
20
23.960330579485767
30
0
11
-9.1532567165823497
21
23.960330579485767
31
0
0
SPLINE
5
126
100
AcDbEntity
8
0
100
AcDbSpline
70
4
71
5
72
15
73
9
74
0
42
0.000000001
43
0.0000000001
44
0.0000000001
40
0.26608528691014477
40
0.26608528691014477
40
0.26608528691014477
40
0.26608528691014477
40
0.26608528691014477
40
0.26608528691014477
40
0.40000000000000002
40
0.60000000000000009
40
0.80000000000000004
40
1
40
1
40
1
40
1
40
1
40
1
41
1
41
1
41
1
41
1
41
1
41
1
41
1
41
1
41
1
10
-12.73269726700256
20
19.960330579485763
30
0
10
-12.690878086949818
20
20.184214096053022
30
0
10
-12.572813633939642
20
20.738951309297153
30
0
10
-12.327131063670468
20
21.604593367163673
30
0
10
-11.848487160006417
20
22.699011746265523
30
0
10
-11.104761969144764
20
23.517740599803062
30
0
10
-10.242745906067492
20
23.879818831329423
30
0
10
-9.5381003245191955
20
23.960330579485767
30
0
10
-9.1532567165823462
20
23.960330579485767
30
0
0
SPLINE
5
127
100
AcDbEntity
8
0
100
AcDbSpline
70
4
71
5
72
13
73
7
74
0
42
0.000000001
43
0.0000000001
44
0.0000000001
40
0
40
0
40
0
40
0
40
0
40
0
40
0.20000000000000001
40
0.26608528691014466
40
0.26608528691014466
40
0.26608528691014466
40
0.26608528691014466
40
0.26608528691014466
40
0.26608528691014466
41
1
41
1
41
1
41
1
41
1
41
1
41
1
10
-12.938540085152873
20
17.725711608306721
30
0
10
-12.938540085152873
20
18.058465677057896
30
0
10
-12.923127525310749
20
18.503991214746286
30
0
10
-12.88722223321232
20
18.953258126748008
30
0
10
-12.831005849105004
20
19.403613952745427
30
0
10
-12.753334525212402
20
19.849846779121933
30
0
10
-12.73269726700256
20
19.96033057948576
30
0
0
LINE
5
128
100
AcDbEntity
8
0
100
AcDbLine
10
-12.938540085152873
20
17.725711608306721
30
0
11
-12.938540085152873
21
-49.000000730156884
31
0
0
SPLINE
5
129
100
AcDbEntity
8
0
100
AcDbSpline
70
4
71
5
72
12
73
6
74
0
42
0.000000001
43
0.0000000001
44
0.0000000001
40
-0.18452299221544952
40
-0.18452299221544952
40
-0.18452299221544952
40
-0.18452299221544952
40
-0.18452299221544952
40
-0.18452299221544952
40
0
40
0
40
0
40
0
40
0
40
0
41
1
41
1
41
1
41
1
41
1
41
1
10
-12.739905706467674
20
-50.616718719568809
30
0
10
-12.817999977828393
20
-50.312719742234975
30
0
10
-12.877799431302456
20
-49.998948753587094
30
0
10
-12.9182880377003
20
-49.675605340779413
30
0
10
-12.938540085152873
20
-49.342624497172665
30
0
10
-12.938540085152873
20
-49.000000730156898
30
0
0
SPLINE
5
130
100
AcDbEntity
8
0
100
AcDbSpline
70
4
71
5
72
16
73
10
74
0
42
0.000000001
43
0.0000000001
44
0.0000000001
40
-0.87150007615642555
40
-0.87150007615642555
40
-0.87150007615642555
40
-0.87150007615642555
40
-0.87150007615642555
40
-0.87150007615642555
40
-0.80000000000000004
40
-0.60000000000000009
40
-0.40000000000000002
40
-0.20000000000000001
40
-0.1845229922154501
40
-0.1845229922154501
40
-0.1845229922154501
40
-0.1845229922154501
40
-0.1845229922154501
40
-0.1845229922154501
41
1
41
1
41
1
41
1
41
1
41
1
41
1
41
1
41
1
41
1
10
-9.109101145722434
20
-54.489399891684002
30
0
10
-9.2284267458114027
20
-54.461392139803152
30
0
10
-9.6720865441301775
20
-54.340906338997939
30
0
10
-10.381187207354541
20
-54.040659171745496
30
0
10
-11.248673254694348
20
-53.4122776080929
30
0
10
-11.948883732760072
20
-52.550830377304962
30
0
10
-12.413195334828174
20
-51.65316392730989
30
0
10
-12.640368878734076
20
-50.996255010492995
30
0
10
-12.73335548943907
20
-50.642216867426704
30
0
10
-12.739905706467676
20
-50.616718719568816
30
0
0
SPLINE
5
131
100
AcDbEntity
8
0
100
AcDbSpline
70
4
71
5
72
12
73
6
74
0
42
0.000000001
43
0.0000000001
44
0.0000000001
40
-1
40
-1
40
-1
40
-1
40
-1
40
-1
40
-0.87150007615642566
40
-0.87150007615642566
40
-0.87150007615642566
40
-0.87150007615642566
40
-0.87150007615642566
40
-0.87150007615642566
41
1
41
1
41
1
41
1
41
1
41
1
10
-7.9547847353822299
20
-54.616718719568816
30
0
10
-8.2023153324466165
20
-54.616718719568816
30
0
10
-8.4414405469885168
20
-54.603825973035299
30
0
10
-8.6721646677443243
20
-54.578047801057423
30
0
10
-8.8946491989793905
20
-54.539735418262225
30
0
10
-9.1091011457224322
20
-54.489399891683981
30
0
0
LINE
5
132
100
AcDbEntity
8
0
100
AcDbLine
10
-7.9547847353822299
20
-54.616718719568816
30
0
11
-1.5950547713119168
21
-54.616718719568809
31
0
0
SPLINE
5
133
100
AcDbEntity
8
0
100
AcDbSpline
70
0
71
3
72
8
73
4
74
0
42
0.000000001
43
0.0000000001
44
0.0000000001
40
0.03362386851367636
40
0.03362386851367636
40
0.03362386851367636
40
0.03362386851367636
40
0.13979111546090431
40
0.13979111546090431
40
0.13979111546090431
40
0.13979111546090431
10
13.678583456224798
20
-66.326953889447168
30
0
10
12.546716454664784
20
-66.116789368064431
30
0
10
11.457127438051593
20
-65.754316720051548
30
0
10
10.467340166086903
20
-65.269933415778524
30
0
0
SPLINE
5
134
100
AcDbEntity
8
0
100
AcDbSpline
70
0
71
3
72
8
73
4
74
0
42
0.000000001
43
0.0000000001
44
0.0000000001
40
0
40
0
40
0
40
0
40
0.033623868513582553
40
0.033623868513582553
40
0.033623868513582553
40
0.033623868513582553
10
14.764887226523468
20
-66.479838820749706
30
0
10
14.399763582500377
20
-66.444797900842516
30
0
10
14.037053213423601
20
-66.393514381844184
30
0
10
13.678583456227802
20
-66.326953889447722
30
0
0
LINE
5
135
100
AcDbEntity
8
0
100
AcDbLine
10
14.764887226523468
20
-66.479838820749706
30
0
11
51.273563264411251
21
-69.983576839097083
31
0
0
SPLINE
5
136
100
AcDbEntity
8
0
100
AcDbSpline
70
0
71
3
72
11
73
7
74
0
42
0.000000001
43
0.0000000001
44
0.0000000001
40
-0.89341490714151617
40
-0.89341490714151617
40
-0.89341490714151617
40
-0.89341490714151617
40
-0.8876648911288797
40
-0.8876648911288797
40
-0.8876648911288797
40
-0.8171783485151245
40
-0.8171783485151245
40
-0.8171783485151245
40
-0.8171783485151245
10
53.163756369979026
20
-69.929938205334636
30
0
10
53.197136534519977
20
-69.924744821135079
30
0
10
53.230431533121191
20
-69.919321329674517
30
0
10
53.263632911110783
20
-69.913667411785823
30
0
10
53.670631837610401
20
-69.844358887545056
30
0
10
54.057606109002549
20
-69.741996165628535
30
0
10
54.421689315042144
20
-69.61799007777239
30
0
0
SPLINE
5
137
100
AcDbEntity
8
0
100
AcDbSpline
70
0
71
3
72
14
73
10
74
0
42
0.000000001
43
0.0000000001
44
0.0000000001
40
-0.8171783485143963
40
-0.8171783485143963
40
-0.8171783485143963
40
-0.8171783485143963
40
-0.67636728762579179
40
-0.67636728762579179
40
-0.67636728762579179
40
-0.39398882867434026
40
-0.39398882867434026
40
-0.39398882867434026
40
-0.19862249706136467
40
-0.19862249706136467
40
-0.19862249706136467
40
-0.19862249706136467
10
54.421689315053435
20
-69.617990077768553
30
0
10
55.149018824957508
20
-69.370262949436921
30
0
10
55.784994427270085
20
-69.036161245630069
30
0
10
56.306763815897149
20
-68.706657226885255
30
0
10
57.353105168336128
20
-68.045879327448247
30
0
10
58.039795254908164
20
-67.414790148534991
30
0
10
58.513207928288523
20
-67.056534445450339
30
0
10
58.840743171879168
20
-66.808671691503122
30
0
10
59.038824332110238
20
-66.696993105977924
30
0
10
59.108173770916309
20
-66.666255363326457
30
0
0
LINE
5
138
100
AcDbEntity
8
0
100
AcDbLine
10
59.108173770916309
20
-66.666255363326457
30
0
11
90.0723350274219
21
-66.666255363326457
31
0
0
SPLINE
5
139
100
AcDbEntity
8
0
100
AcDbSpline
70
0
71
3
72
8
73
4
74
0
42
0.000000001
43
0.0000000001
44
0.0000000001
40
0
40
0
40
0
40
0
40
0.11856548987200365
40
0.11856548987200365
40
0.11856548987200365
40
0.11856548987200365
10
90.0723350274219
20
-66.666255363326457
30
0
10
90.414209560767219
20
-66.666255363326457
30
0
10
90.758047509593794
20
-66.660673433934704
30
0
10
91.10855527901208
20
-66.645672404905909
30
0
0
SPLINE
5
140
100
AcDbEntity
8
0
100
AcDbSpline
70
0
71
3
72
8
73
4
74
0
42
0.000000001
43
0.0000000001
44
0.0000000001
40
0.11856548987200374
40
0.11856548987200374
40
0.11856548987200374
40
0.11856548987200374
40
0.15125806560063901
40
0.15125806560063901
40
0.15125806560063901
40
0.15125806560063901
10
91.10855527901208
20
-66.645672404905895
30
0
10
91.205202303433381
20
-66.641536106240395
30
0
10
91.302356430445073
20
-66.63668367889359
30
0
10
91.400116324752219
20
-66.631034680731446
30
0
0
LINE
5
141
100
AcDbEntity
8
0
100
AcDbLine
10
99.788796730422177
20
-60.334656328270881
30
0
11
102.78879677512566
21
-35.334655955741781
31
0
0
LINE
5
142
100
AcDbEntity
8
0
100
AcDbLine
10
102.80767421611438
20
-14.754739444979778
30
0
11
101.32179700736134
21
2.2551426000506791
31
0
0
SPLINE
5
143
100
AcDbEntity
8
0
100
AcDbSpline
70
4
71
5
72
12
73
6
74
0
42
0.000000001
43
0.0000000001
44
0.0000000001
40
0.89014651333658024
40
0.89014651333658024
40
0.89014651333658024
40
0.89014651333658024
40
0.89014651333658024
40
0.89014651333658024
40
1
40
1
40
1
40
1
40
1
40
1
41
1
41
1
41
1
41
1
41
1
41
1
10
101.17165204506748
20
4.4368952801940464
30
0
10
101.19291787783601
20
4.0069674356304317
30
0
10
101.21865099123532
20
3.5738709547275818
30
0
10
101.24873190348865
20
3.1375546266650458
30
0
10
101.28311358444395
20
2.6979789643522309
30
0
10
101.32179700736134
20
2.2551426000506791
30
0
0
SPLINE
5
144
100
AcDbEntity
8
0
100
AcDbSpline
70
4
71
5
72
14
73
8
74
0
42
0.000000001
43
0.0000000001
44
0.0000000001
40
0.54055614181608258
40
0.54055614181608258
40
0.54055614181608258
40
0.54055614181608258
40
0.54055614181608258
40
0.54055614181608258
40
0.60000000000000009
40
0.80000000000000004
40
0.8901465133365275
40
0.8901465133365275
40
0.8901465133365275
40
0.8901465133365275
40
0.8901465133365275
40
0.8901465133365275
41
1
41
1
41
1
41
1
41
1
41
1
41
1
41
1
10
101.36805412459984
20
10.971894085811027
30
0
10
101.33874426908042
20
10.759782573117111
30
0
10
101.22150995099084
20
9.8302215754193139
30
0
10
101.12346370335467
20
8.5555616126869349
30
0
10
101.09007961152095
20
7.251979478457196
30
0
10
101.10771592771906
20
5.9183605114419464
30
0
10
101.15420115902356
20
4.7896969740770761
30
0
10
101.1716520450674
20
4.4368952801950794
30
0
0
LINE
5
145
100
AcDbEntity
8
0
100
AcDbLine
10
105.75924584845851
20
19.766013139087224
30
0
11
110.96135150937766
21
24.546464239728571
31
0
0
SPLINE
5
146
100
AcDbEntity
8
0
100
AcDbSpline
70
0
71
3
72
10
73
6
74
0
42
0.000000001
43
0.0000000001
44
0.0000000001
40
0
40
0
40
0
40
0
40
0.2566817701913911
40
0.2566817701913911
40
0.34354793774020564
40
0.34354793774020564
40
0.34354793774020564
40
0.34354793774020564
10
114.92730856843698
20
31.53613686509533
30
0
10
115.05896608651553
20
32.38155259427235
30
0
10
115.10948167544329
20
33.453795457594111
30
0
10
114.72233300318088
20
35.03976650831973
30
0
10
114.59153012447915
20
35.427895717514318
30
0
10
114.42974279477581
20
35.804932748338317
30
0
0
CIRCLE
5
147
100
AcDbEntity
8
0
100
AcDbCircle
10
94.000001400709152
20
-8.0000001192092896
30
0
40
2.0000000000000107
210
0
220
-0
230
1
0
CIRCLE
5
148
100
AcDbEntity
8
0
100
AcDbCircle
10
9.0000001341104507
20
-53.000000789761543
30
0
40
2.0000000000000018
210
0
220
-0
230
1
0
CIRCLE
5
149
100
AcDbEntity
8
0
100
AcDbCircle
10
51.602859486244924
20
14.004263301391969
30
0
40
2.0000000000000018
210
0
220
-0
230
1
0
CIRCLE
5
150
100
AcDbEntity
8
0
100
AcDbCircle
10
-6.0009711696082944
20
15.97503485020075
30
0
40
2.0000000000000018
210
0
220
-0
230
1
0
SPLINE
5
151
100
AcDbEntity
8
0
100
AcDbSpline
70
0
71
3
72
8
73
4
74
0
42
0.000000001
43
0.0000000001
44
0.0000000001
40
-0.22155611042319917
40
-0.22155611042319917
40
-0.22155611042319917
40
-0.22155611042319917
40
-0.14575081131157228
40
-0.14575081131157228
40
-0.14575081131157228
40
-0.14575081131157228
10
77.52189175057039
20
33.094758068750345
30
0
10
77.321649846030439
20
32.93795709288905
30
0
10
77.125412852428056
20
32.751430031811438
30
0
10
76.943370703737912
20
32.560386095925026
30
0
0
SPLINE
5
152
100
AcDbEntity
8
0
100
AcDbSpline
70
0
71
3
72
10
73
6
74
0
42
0.000000001
43
0.0000000001
44
0.0000000001
40
-0.0085466073068867637
40
-0.0085466073068867637
40
-0.0085466073068867637
40
-0.0085466073068867637
40
-0.0042733102875169285
40
-0.0042733102875169285
40
0
40
0
40
0
40
0
10
77.589797837834283
20
33.146660470020294
30
0
10
77.578376810265823
20
33.138148062675626
30
0
10
77.567006640118905
20
33.129562516387487
30
0
10
77.544373945142041
20
33.112260301679413
30
0
10
77.533106816573053
20
33.103540113136134
30
0
10
77.52189175057039
20
33.094758068750352
30
0
0
SPLINE
5
153
100
AcDbEntity
8
0
100
AcDbSpline
70
0
71
3
72
10
73
6
74
0
42
0.000000001
43
0.0000000001
44
0.0000000001
40
-0.83195397837317431
40
-0.83195397837317431
40
-0.83195397837317431
40
-0.83195397837317431
40
-0.41596679417525051
40
-0.41596679417525051
40
0
40
0
40
0
40
0
10
84.266899690641395
20
38.352691757399406
30
0
10
83.106442266138345
20
37.50096107501755
30
0
10
82.081929644851556
20
36.702218602806241
30
0
10
79.743159397499454
20
34.842203144886184
30
0
10
78.69092076503253
20
33.989314483534798
30
0
10
77.589797837834297
20
33.146660470020286
30
0
0
SPLINE
5
154
100
AcDbEntity
8
0
100
AcDbSpline
70
0
71
3
72
10
73
6
74
0
42
0.000000001
43
0.0000000001
44
0.0000000001
40
-0.077436563066929642
40
-0.077436563066929642
40
-0.077436563066929642
40
-0.077436563066929642
40
-0.03871827520287828
40
-0.03871827520287828
40
0
40
0
40
0
40
0
10
84.893317785479553
20
38.80765640031359
30
0
10
84.788511529238974
20
38.732340096431457
30
0
10
84.683962091903254
20
38.656805837481201
30
0
10
84.475113891290889
20
38.505117108378684
30
0
10
84.370943899739999
20
38.429056166245687
30
0
10
84.266899690641395
20
38.352691757399406
30
0
0
LINE
5
155
100
AcDbEntity
8
0
100
AcDbLine
10
84.893317785479553
20
38.807656400313583
30
0
11
91.856228606369982
21
43.811372076280449
31
0
0
ARC
5
156
100
AcDbEntity
8
0
100
AcDbCircle
10
59.615704076027988
20
22.056368872586614
30
0
40
7.2500000000000595
210
0
220
0
230
1
100
AcDbArc
50
-104.01901249397955
51
30.105668018043374
0
SPLINE
5
157
100
AcDbEntity
8
0
100
AcDbSpline
70
4
71
3
72
8
73
4
74
0
42
0.000000001
43
0.0000000001
44
0.0000000001
40
0
40
0
40
0
40
0
40
0.26244290600297776
40
0.26244290600297776
40
0.26244290600297776
40
0.26244290600297776
41
1
41
1
41
1
41
1
10
10.1948251183709
20
17.893376111106871
30
0
10
11.701105443816807
20
17.513581849272807
30
0
10
12.812073183397581
20
17.233461897197731
30
0
10
13.709263154793984
20
17.135241247141877
30
0
0
SPLINE
5
158
100
AcDbEntity
8
0
100
AcDbSpline
70
4
71
3
72
8
73
4
74
0
42
0.000000001
43
0.0000000001
44
0.0000000001
40
0.49977592891804007
40
0.49977592891804007
40
0.49977592891804007
40
0.49977592891804007
40
1
40
1
40
1
40
1
41
1
41
1
41
1
41
1
10
5.0404036440835398
20
19.960330579485767
30
0
10
5.8889571489883163
20
18.979062832678363
30
0
10
7.3238175989417158
20
18.617275395418442
30
0
10
10.1948251183709
20
17.893376111106871
30
0
0
LINE
5
159
100
AcDbEntity
8
0
100
AcDbLine
10
6.9234961688086214
20
19.960330579485763
30
0
11
10.076752795984003
21
20.000000298023224
31
0
0
SPLINE
5
160
100
AcDbEntity
8
0
100
AcDbSpline
70
4
71
5
72
13
73
7
74
0
42
0.000000001
43
0.0000000001
44
0.0000000001
40
-1
40
-1
40
-1
40
-1
40
-1
40
-1
40
-0.89999999999999991
40
-0.8585512896161307
40
-0.8585512896161307
40
-0.8585512896161307
40
-0.8585512896161307
40
-0.8585512896161307
40
-0.8585512896161307
41
1
41
1
41
1
41
1
41
1
41
1
41
1
10
22.401695812835008
20
11.004263301391966
30
0
10
22.129273193305437
20
11.004263301391966
30
0
10
21.736025749979369
20
11.006635658400102
30
0
10
21.331597468264153
20
11.012373604800921
30
0
10
20.918421013609407
20
11.024994031932618
30
0
10
20.500774399619775
20
11.05064777161942
30
0
10
20.378123974230895
20
11.059450922739536
30
0
0
LINE
5
161
100
AcDbEntity
8
0
100
AcDbLine
10
22.401695812835008
20
11.004263301391966
30
0
11
34.361727924017217
21
11.004263301391966
31
0
0
SPLINE
5
162
100
AcDbEntity
8
0
100
AcDbSpline
70
4
71
3
72
8
73
4
74
0
42
0.000000001
43
0.0000000001
44
0.0000000001
40
0
40
0
40
0
40
0
40
0.8561027289178843
40
0.8561027289178843
40
0.8561027289178843
40
0.8561027289178843
41
1
41
1
41
1
41
1
10
-5.2236297512173202
20
-9.2193907905451589
30
0
10
-3.318004983981238
20
-7.1913308970112277
30
0
10
-3.0437907802694744
20
-6.8994986127406088
30
0
10
-4.2638628884654848
20
-2.21253091175502
30
0
0
SPLINE
5
163
100
AcDbEntity
8
0
100
AcDbSpline
70
4
71
3
72
8
73
4
74
0
42
0.000000001
43
0.0000000001
44
0.0000000001
40
0.25216119539782306
40
0.25216119539782306
40
0.25216119539782306
40
0.25216119539782306
40
1
40
1
40
1
40
1
41
1
41
1
41
1
41
1
10
-9.9385400851528711
20
-11.553209283539484
30
0
10
-7.308023416302829
20
-11.437705364944488
30
0
10
-6.8882665988903371
20
-10.990979450657367
30
0
10
-5.2236297512173202
20
-9.2193907905451589
30
0
0
SPLINE
5
164
100
AcDbEntity
8
0
100
AcDbSpline
70
4
71
5
72
15
73
9
74
0
42
0.000000001
43
0.0000000001
44
0.0000000001
40
-0.6693088665808542
40
-0.6693088665808542
40
-0.6693088665808542
40
-0.6693088665808542
40
-0.6693088665808542
40
-0.6693088665808542
40
-0.60000000000000009
40
-0.40000000000000002
40
-0.20000000000000001
40
0
40
0
40
0
40
0
40
0
40
0
41
1
41
1
41
1
41
1
41
1
41
1
41
1
41
1
41
1
10
2.4732332355944449
20
-50.607498111529523
30
0
10
2.5694633374626901
20
-50.576724596801697
30
0
10
2.9419893011397207
20
-50.449705414603926
30
0
10
3.5823397526444287
20
-50.18146339998242
30
0
10
4.4792497718052937
20
-49.716830532355388
30
0
10
5.3657613923754353
20
-49.217160405080989
30
0
10
6.1613825127544342
20
-48.804688118829461
30
0
10
6.693354150173664
20
-48.554270751475315
30
0
10
6.959730251207259
20
-48.435211768906555
30
0
0
SPLINE
5
165
100
AcDbEntity
8
0
100
AcDbSpline
70
4
71
3
72
8
73
4
74
0
42
0.000000001
43
0.0000000001
44
0.0000000001
40
0
40
0
40
0
40
0
40
1
40
1
40
1
40
1
41
1
41
1
41
1
41
1
10
42.224370393741196
20
-46.625497421506246
30
0
10
41.811976315168593
20
-47.036890269203191
30
0
10
41.811976315168593
20
-47.036890269203191
30
0
10
42.226138696658673
20
-54.533444961789456
30
0
0
SPLINE
5
166
100
AcDbEntity
8
0
100
AcDbSpline
70
4
71
3
72
8
73
4
74
0
42
0.000000001
43
0.0000000001
44
0.0000000001
40
0
40
0
40
0
40
0
40
1
40
1
40
1
40
1
41
1
41
1
41
1
41
1
10
51.073612222659648
20
-47.66881229170481
30
0
10
42.636764472313772
20
-46.214104573809315
30
0
10
42.636764472313772
20
-46.214104573809315
30
0
10
42.224370393741196
20
-46.625497421506246
30
0
0
SPLINE
5
167
100
AcDbEntity
8
0
100
AcDbSpline
70
4
71
3
72
8
73
4
74
0
42
0.000000001
43
0.0000000001
44
0.0000000001
40
0
40
0
40
0
40
0
40
1
40
1
40
1
40
1
41
1
41
1
41
1
41
1
10
61.051895278283013
20
-53.740453959388731
30
0
10
59.510468047448057
20
-49.123503860715232
30
0
10
59.510468047448057
20
-49.123503860715232
30
0
10
51.073612222659648
20
-47.66881229170481
30
0
0
LINE
5
168
100
AcDbEntity
8
0
100
AcDbLine
10
85.613092834384048
20
-62.666255363326457
30
0
11
83.561662663492001
21
-62.666255363326457
31
0
0
SPLINE
5
169
100
AcDbEntity
8
0
100
AcDbSpline
70
4
71
5
72
12
73
6
74
0
42
0.000000001
43
0.0000000001
44
0.0000000001
40
-0.78779273791455218
40
-0.78779273791455218
40
-0.78779273791455218
40
-0.78779273791455218
40
-0.78779273791455218
40
-0.78779273791455218
40
-0.63450887224765418
40
-0.63450887224765418
40
-0.63450887224765418
40
-0.63450887224765418
40
-0.63450887224765418
40
-0.63450887224765418
41
1
41
1
41
1
41
1
41
1
41
1
10
53.363894410722246
20
-65.74737639109361
30
0
10
53.593038134307463
20
-65.653965206833604
30
0
10
53.816700328851461
20
-65.542901163053557
30
0
10
54.035658199457629
20
-65.416638770370923
30
0
10
54.250838114573639
20
-65.278098844055563
30
0
10
54.463221028891169
20
-65.130366894520762
30
0
0
LINE
5
170
100
AcDbEntity
8
0
100
AcDbLine
10
35.426376094924478
20
-64.444343856230361
30
0
11
22.264488081248182
21
-63.181197326926188
31
0
0
SPLINE
5
171
100
AcDbEntity
8
0
100
AcDbSpline
70
4
71
3
72
8
73
4
74
0
42
0.000000001
43
0.0000000001
44
0.0000000001
40
0
40
0
40
0
40
0
40
1
40
1
40
1
40
1
41
1
41
1
41
1
41
1
10
65.818351755130351
20
-43.257808924598692
30
0
10
63.264575141259094
20
-47.738494730873107
30
0
10
63.264575141259094
20
-47.738494730873107
30
0
10
64.806002372094042
20
-52.355444829546613
30
0
0
SPLINE
5
172
100
AcDbEntity
8
0
100
AcDbSpline
70
4
71
3
72
8
73
4
74
0
42
0.000000001
43
0.0000000001
44
0.0000000001
40
0
40
0
40
0
40
0
40
1
40
1
40
1
40
1
41
1
41
1
41
1
41
1
10
73.748342523562954
20
-38.225880925738011
30
0
10
68.372120294559053
20
-38.777106969439181
30
0
10
68.372120294559053
20
-38.777106969439181
30
0
10
65.818351755130351
20
-43.257808924598692
30
0
0
SPLINE
5
173
100
AcDbEntity
8
0
100
AcDbSpline
70
4
71
3
72
8
73
4
74
0
42
0.000000001
43
0.0000000001
44
0.0000000001
40
0
40
0
40
0
40
0
40
1
40
1
40
1
40
1
41
1
41
1
41
1
41
1
10
79.168077923444969
20
-37.717756256345105
30
0
10
79.124564752566869
20
-37.67465488203684
30
0
10
79.124564752566869
20
-37.67465488203684
30
0
10
73.748342523562954
20
-38.225880925738011
30
0
0
SPLINE
5
174
100
AcDbEntity
8
0
100
AcDbSpline
70
4
71
3
72
8
73
4
74
0
42
0.000000001
43
0.0000000001
44
0.0000000001
40
0
40
0
40
0
40
0
40
1
40
1
40
1
40
1
41
1
41
1
41
1
41
1
10
80.739243326175256
20
-45.987051249427793
30
0
10
79.211591094323069
20
-37.760873779538464
30
0
10
79.211591094323069
20
-37.760873779538464
30
0
10
79.168077923444969
20
-37.717756256345105
30
0
0
SPLINE
5
175
100
AcDbEntity
8
0
100
AcDbSpline
70
4
71
3
72
8
73
4
74
0
42
0.000000001
43
0.0000000001
44
0.0000000001
40
0
40
0
40
0
40
0
40
1
40
1
40
1
40
1
41
1
41
1
41
1
41
1
10
80.763959194807285
20
-56.876309061927799
30
0
10
82.266891520806212
20
-54.213244868202196
30
0
10
82.266891520806212
20
-54.213244868202196
30
0
10
80.739243326175256
20
-45.987051249427793
30
0
0
SPLINE
5
176
100
AcDbEntity
8
0
100
AcDbSpline
70
4
71
3
72
8
73
4
74
0
42
0.000000001
43
0.0000000001
44
0.0000000001
40
0
40
0
40
0
40
0
40
0.77960636618733437
40
0.77960636618733437
40
0.77960636618733437
40
0.77960636618733437
41
1
41
1
41
1
41
1
10
90.302689784356005
20
-34.924596644325248
30
0
10
96.211331783847939
20
-35.527961545249944
30
0
10
97.51355886501409
20
-35.660939328279753
30
0
10
98.90710303901686
20
-34.06738055248983
30
0
0
SPLINE
5
177
100
AcDbEntity
8
0
100
AcDbSpline
70
4
71
3
72
8
73
4
74
0
42
0.000000001
43
0.0000000001
44
0.0000000001
40
0
40
0
40
0
40
0
40
1
40
1
40
1
40
1
41
1
41
1
41
1
41
1
10
82.680173788058809
20
-34.10755995202382
30
0
10
82.723682921715636
20
-34.150661326332084
30
0
10
82.723682921715636
20
-34.150661326332084
30
0
10
90.302689784356005
20
-34.924596644325248
30
0
0
SPLINE
5
178
100
AcDbEntity
8
0
100
AcDbSpline
70
4
71
3
72
8
73
4
74
0
42
0.000000001
43
0.0000000001
44
0.0000000001
40
0
40
0
40
0
40
0
40
1
40
1
40
1
40
1
41
1
41
1
41
1
41
1
10
83.661053031273724
20
-28.830411133054092
30
0
10
82.636664654401983
20
-34.064458577715548
30
0
10
82.636664654401983
20
-34.064458577715548
30
0
10
82.680173788058809
20
-34.10755995202382
30
0
0
SPLINE
5
179
100
AcDbEntity
8
0
100
AcDbSpline
70
4
71
3
72
8
73
4
74
0
42
0.000000001
43
0.0000000001
44
0.0000000001
40
0
40
0
40
0
40
0
40
1
40
1
40
1
40
1
41
1
41
1
41
1
41
1
10
91.506859661726196
20
-22.188479662818914
30
0
10
84.685441408145465
20
-23.596363688392643
30
0
10
84.685441408145465
20
-23.596363688392643
30
0
10
83.661053031273724
20
-28.830411133054092
30
0
0
SPLINE
5
180
100
AcDbEntity
8
0
100
AcDbSpline
70
4
71
3
72
8
73
4
74
0
42
0.000000001
43
0.0000000001
44
0.0000000001
40
0.21915218387685539
40
0.21915218387685539
40
0.21915218387685539
40
0.21915218387685539
40
1
40
1
40
1
40
1
41
1
41
1
41
1
41
1
10
99.262007266567892
20
-22.715993703751334
30
0
10
98.000661024337901
20
-20.848197666985754
30
0
10
96.833349207897271
20
-21.089123886273349
30
0
10
91.506859661726196
20
-22.188479662818914
30
0
0
SPLINE
5
181
100
AcDbEntity
8
0
100
AcDbSpline
70
4
71
5
72
15
73
9
74
0
42
0.000000001
43
0.0000000001
44
0.0000000001
40
-0.95990027084372087
40
-0.95990027084372087
40
-0.95990027084372087
40
-0.95990027084372087
40
-0.95990027084372087
40
-0.95990027084372087
40
-0.80000000000000004
40
-0.60000000000000009
40
-0.40000000000000002
40
-0.3852515751432975
40
-0.3852515751432975
40
-0.3852515751432975
40
-0.3852515751432975
40
-0.3852515751432975
40
-0.3852515751432975
41
1
41
1
41
1
41
1
41
1
41
1
41
1
41
1
41
1
10
98.907103039016874
20
-34.067380552489823
30
0
10
98.974709671668649
20
-33.436690917322458
30
0
10
99.108899042077141
20
-32.016698847174339
30
0
10
99.255894541800103
20
-29.806074361839748
30
0
10
99.319829473174011
20
-27.535197193824619
30
0
10
99.317567428957588
20
-25.263276677263605
30
0
10
99.286887032236876
20
-23.623393123264709
30
0
10
99.263638517877581
20
-22.774306904481495
30
0
10
99.262007266567863
20
-22.715993703751295
30
0
0
SPLINE
5
182
100
AcDbEntity
8
0
100
AcDbSpline
70
4
71
3
72
8
73
4
74
0
42
0.000000001
43
0.0000000001
44
0.0000000001
40
0
40
0
40
0
40
0
40
0.054920992573228584
40
0.054920992573228584
40
0.054920992573228584
40
0.054920992573228584
41
1
41
1
41
1
41
1
10
36.849948765424934
20
10.365678293622338
30
0
10
37.028661250797114
20
10.674868955295352
30
0
10
37.197558669087435
20
10.967078558934906
30
0
10
37.35660330252766
20
11.244071058274683
30
0
0
SPLINE
5
183
100
AcDbEntity
8
0
100
AcDbSpline
70
4
71
3
72
8
73
4
74
0
42
0.000000001
43
0.0000000001
44
0.0000000001
40
0
40
0
40
0
40
0
40
1
40
1
40
1
40
1
41
1
41
1
41
1
41
1
10
28.07513714789156
20
5.5705656201807585
30
0
10
33.595964568444131
20
4.7359427920150665
30
0
10
33.595964568444131
20
4.7359427920150665
30
0
10
36.849948765424934
20
10.365678293622338
30
0
0
SPLINE
5
184
100
AcDbEntity
8
0
100
AcDbSpline
70
4
71
3
72
8
73
4
74
0
42
0.000000001
43
0.0000000001
44
0.0000000001
40
0
40
0
40
0
40
0
40
1
40
1
40
1
40
1
41
1
41
1
41
1
41
1
10
20.704107739118793
20
10.359065325177514
30
0
10
22.55430972733901
20
6.4051884483464505
30
0
10
22.55430972733901
20
6.4051884483464505
30
0
10
28.07513714789156
20
5.5705656201807585
30
0
0
SPLINE
5
185
100
AcDbEntity
8
0
100
AcDbSpline
70
4
71
3
72
8
73
4
74
0
42
0.000000001
43
0.0000000001
44
0.0000000001
40
0.93721989985620324
40
0.93721989985620324
40
0.93721989985620324
40
0.93721989985620324
40
1
40
1
40
1
40
1
41
1
41
1
41
1
41
1
10
20.378123974230895
20
11.059450922739533
30
0
10
20.479088283811826
20
10.839931320803844
30
0
10
20.587951873012077
20
10.607290111461209
30
0
10
20.704107739118793
20
10.359065325177514
30
0
0
SPLINE
5
186
100
AcDbEntity
8
0
100
AcDbSpline
70
4
71
5
72
13
73
7
74
0
42
0.000000001
43
0.0000000001
44
0.0000000001
40
-0.10660526476105779
40
-0.10660526476105779
40
-0.10660526476105779
40
-0.10660526476105779
40
-0.10660526476105779
40
-0.10660526476105779
40
-0.10000000000000001
40
0
40
0
40
0
40
0
40
0
40
0
41
1
41
1
41
1
41
1
41
1
41
1
41
1
10
37.35660330252766
20
11.244071058274685
30
0
10
37.319584648073203
20
11.238110569570644
30
0
10
36.721959421296965
20
11.14341755235905
30
0
10
36.121820354433929
20
11.073015704782595
30
0
10
35.52150521038282
20
11.026687770157565
30
0
10
34.922488365100463
20
11.004263301391966
30
0
10
34.361727924017217
20
11.004263301391966
30
0
0
SPLINE
5
187
100
AcDbEntity
8
0
100
AcDbSpline
70
4
71
5
72
13
73
7
74
0
42
0.000000001
43
0.0000000001
44
0.0000000001
40
0
40
0
40
0
40
0
40
0
40
0
40
0.20000000000000001
40
0.22165738897243772
40
0.22165738897243772
40
0.22165738897243772
40
0.22165738897243772
40
0.22165738897243772
40
0.22165738897243772
41
1
41
1
41
1
41
1
41
1
41
1
41
1
10
13.9304656705983
20
-53.830969858683851
30
0
10
13.853878721012547
20
-54.285390281295982
30
0
10
13.795210571216632
20
-54.793646198256198
30
0
10
13.765572237600235
20
-55.307019277062999
30
0
10
13.764027004723275
20
-55.823430492696147
30
0
10
13.790297550189489
20
-56.339211834355503
30
0
10
13.793129709424285
20
-56.389597498314252
30
0
0
SPLINE
5
188
100
AcDbEntity
8
0
100
AcDbSpline
70
4
71
3
72
8
73
4
74
0
42
0.000000001
43
0.0000000001
44
0.0000000001
40
0
40
0
40
0
40
0
40
1
40
1
40
1
40
1
41
1
41
1
41
1
41
1
10
16.991422535566567
20
-51.281673162066149
30
0
10
20.204663095462401
20
-45.401734909299222
30
0
10
20.204663095462401
20
-45.401734909299222
30
0
10
17.040910793928372
20
-40.292469899737043
30
0
0
SPLINE
5
189
100
AcDbEntity
8
0
100
AcDbSpline
70
4
71
3
72
8
73
4
74
0
42
0.000000001
43
0.0000000001
44
0.0000000001
40
0
40
0
40
0
40
0
40
1
40
1
40
1
40
1
41
1
41
1
41
1
41
1
10
30.555169877994111
20
-47.311146784706118
30
0
10
23.580563300438797
20
-47.31164740014394
30
0
10
23.580563300438797
20
-47.31164740014394
30
0
10
20.367314666100409
20
-53.191585652910888
30
0
0
SPLINE
5
190
100
AcDbEntity
8
0
100
AcDbSpline
70
4
71
3
72
8
73
4
74
0
42
0.000000001
43
0.0000000001
44
0.0000000001
40
0
40
0
40
0
40
0
40
1
40
1
40
1
40
1
41
1
41
1
41
1
41
1
10
37.943938837039525
20
-54.807217010739649
30
0
10
37.52977645554946
20
-47.310646169268296
30
0
10
37.52977645554946
20
-47.310646169268296
30
0
10
30.555169877994111
20
-47.311146784706118
30
0
0
SPLINE
5
191
100
AcDbEntity
8
0
100
AcDbSpline
70
4
71
3
72
8
73
4
74
0
42
0.000000001
43
0.0000000001
44
0.0000000001
40
0
40
0
40
0
40
0
40
1
40
1
40
1
40
1
41
1
41
1
41
1
41
1
10
85.199573462792273
20
7.8964087954330431
30
0
10
90.376191434848351
20
4.2782026441065391
30
0
10
90.376191434848351
20
4.2782026441065391
30
0
10
94.881649630852564
20
9.0469361137517446
30
0
0
SPLINE
5
192
100
AcDbEntity
8
0
100
AcDbSpline
70
4
71
3
72
8
73
4
74
0
42
0.000000001
43
0.0000000001
44
0.0000000001
40
0
40
0
40
0
40
0
40
1
40
1
40
1
40
1
41
1
41
1
41
1
41
1
10
80.663787660586877
20
16.519687349713639
30
0
10
80.022959527957482
20
11.514606872316993
30
0
10
80.022959527957482
20
11.514606872316993
30
0
10
85.199573462792273
20
7.8964087954330431
30
0
0
SPLINE
5
193
100
AcDbEntity
8
0
100
AcDbSpline
70
4
71
3
72
8
73
4
74
0
42
0.000000001
43
0.0000000001
44
0.0000000001
40
0
40
0
40
0
40
0
40
1
40
1
40
1
40
1
41
1
41
1
41
1
41
1
10
87.267066774356408
20
22.227413891868597
30
0
10
81.304615793216271
20
21.524775901552839
30
0
10
81.304615793216271
20
21.524775901552839
30
0
10
80.663787660586877
20
16.519687349713639
30
0
0
SPLINE
5
194
100
AcDbEntity
8
0
100
AcDbSpline
70
4
71
3
72
8
73
4
74
0
42
0.000000001
43
0.0000000001
44
0.0000000001
40
0
40
0
40
0
40
0
40
1
40
1
40
1
40
1
41
1
41
1
41
1
41
1
10
96.308310772566031
20
18.372860732790635
30
0
10
93.229517755496545
20
22.930059956626891
30
0
10
93.229517755496545
20
22.930059956626891
30
0
10
87.267066774356408
20
22.227413891868597
30
0
0
SPLINE
5
195
100
AcDbEntity
8
0
100
AcDbSpline
70
4
71
5
72
13
73
7
74
0
42
0.000000001
43
0.0000000001
44
0.0000000001
40
-0.21958178186013191
40
-0.21958178186013191
40
-0.21958178186013191
40
-0.21958178186013191
40
-0.21958178186013191
40
-0.21958178186013191
40
-0.20000000000000001
40
0
40
0
40
0
40
0
40
0
40
0
41
1
41
1
41
1
41
1
41
1
41
1
41
1
10
101.36167945880709
20
17.675057643597693
30
0
10
101.40762472444143
20
17.743899245791948
30
0
10
101.9267861804411
20
18.513464023201628
30
0
10
102.49048938707799
20
19.255879366889378
30
0
10
103.10143837226386
20
19.967993194969083
30
0
10
103.76241141707456
20
20.647249755816112
30
0
10
104.40597412149819
20
21.238648746768177
30
0
0
SPLINE
5
196
100
AcDbEntity
8
0
100
AcDbSpline
70
4
71
5
72
15
73
9
74
0
42
0.000000001
43
0.0000000001
44
0.0000000001
40
0.36685366795006874
40
0.36685366795006874
40
0.36685366795006874
40
0.36685366795006874
40
0.36685366795006874
40
0.36685366795006874
40
0.40000000000000002
40
0.60000000000000009
40
0.80000000000000004
40
1
40
1
40
1
40
1
40
1
40
1
41
1
41
1
41
1
41
1
41
1
41
1
41
1
41
1
41
1
10
93.997623834069955
20
-1.3302956618862187
30
0
10
94.052685502628961
20
-1.2864415208004725
30
0
10
94.43834381575526
20
-0.97708208549665865
30
0
10
95.132197516523505
20
-0.38971845636563529
30
0
10
96.060410241385767
20
0.52125943181875067
30
0
10
96.780018686826082
20
1.5686146609681209
30
0
10
97.155459686647703
20
2.7672041367997973
30
0
10
97.245709765338717
20
3.6742882499821676
30
0
10
97.250786788881783
20
4.1548616278535331
30
0
0
ARC
5
197
100
AcDbEntity
8
0
100
AcDbCircle
10
94.000001400709152
20
-8.0000001192092896
30
0
40
5.3485786592906273
210
0
220
0
230
1
100
AcDbArc
50
131.50074904671226
51
239.47723219525332
0
SPLINE
5
198
100
AcDbEntity
8
0
100
AcDbSpline
70
4
71
3
72
8
73
4
74
0
42
0.000000001
43
0.0000000001
44
0.0000000001
40
0
40
0
40
0
40
0
40
1
40
1
40
1
40
1
41
1
41
1
41
1
41
1
10
88.681676810570593
20
0.30229061356861209
30
0
10
88.580899693159296
20
1.5200376660791903
30
0
10
88.580899693159296
20
1.5200376660791903
30
0
10
83.404281721103231
20
5.1382357429631575
30
0
0
SPLINE
5
199
100
AcDbEntity
8
0
100
AcDbSpline
70
4
71
3
72
8
73
4
74
0
42
0.000000001
43
0.0000000001
44
0.0000000001
40
0
40
0
40
0
40
0
40
1
40
1
40
1
40
1
41
1
41
1
41
1
41
1
10
83.216304661421034
20
-5.9839535880915307
30
0
10
88.782453927981891
20
-0.91545643894196616
30
0
10
88.782453927981891
20
-0.91545643894196616
30
0
10
88.681676810570593
20
0.30229061356861209
30
0
0
SPLINE
5
200
100
AcDbEntity
8
0
100
AcDbSpline
70
4
71
3
72
8
73
4
74
0
42
0.000000001
43
0.0000000001
44
0.0000000001
40
0
40
0
40
0
40
0
40
1
40
1
40
1
40
1
41
1
41
1
41
1
41
1
10
75.963573910383417
20
-10.54776578037262
30
0
10
77.65015539486015
20
-11.052450737241104
30
0
10
77.65015539486015
20
-11.052450737241104
30
0
10
83.216304661421034
20
-5.9839535880915307
30
0
0
SPLINE
5
201
100
AcDbEntity
8
0
100
AcDbSpline
70
4
71
3
72
8
73
4
74
0
42
0.000000001
43
0.0000000001
44
0.0000000001
40
0
40
0
40
0
40
0
40
1
40
1
40
1
40
1
41
1
41
1
41
1
41
1
10
71.829136349348275
20
-3.2486554313532601
30
0
10
74.276992425906712
20
-10.043080823504127
30
0
10
74.276992425906712
20
-10.043080823504127
30
0
10
75.963573910383417
20
-10.54776578037262
30
0
0
SPLINE
5
202
100
AcDbEntity
8
0
100
AcDbSpline
70
4
71
3
72
8
73
4
74
0
42
0.000000001
43
0.0000000001
44
0.0000000001
40
0
40
0
40
0
40
0
40
1
40
1
40
1
40
1
41
1
41
1
41
1
41
1
10
73.804476048139776
20
6.1511099647649026
30
0
10
69.381288347232385
20
3.5457699607976245
30
0
10
69.381288347232385
20
3.5457699607976245
30
0
10
71.829136349348275
20
-3.2486554313532601
30
0
0
SPLINE
5
203
100
AcDbEntity
8
0
100
AcDbSpline
70
4
71
3
72
8
73
4
74
0
42
0.000000001
43
0.0000000001
44
0.0000000001
40
0
40
0
40
0
40
0
40
1
40
1
40
1
40
1
41
1
41
1
41
1
41
1
10
83.404281721103231
20
5.1382357429631575
30
0
10
78.227663749047167
20
8.7564418942896438
30
0
10
78.227663749047167
20
8.7564418942896438
30
0
10
73.804476048139776
20
6.1511099647649026
30
0
0
SPLINE
5
204
100
AcDbEntity
8
0
100
AcDbSpline
70
4
71
3
72
8
73
4
74
0
42
0.000000001
43
0.0000000001
44
0.0000000001
40
0.94480325329020176
40
0.94480325329020176
40
0.94480325329020176
40
0.94480325329020176
40
1
40
1
40
1
40
1
41
1
41
1
41
1
41
1
10
99.05953657987078
20
30.843872673496826
30
0
10
98.946684262992889
20
30.59146740043294
30
0
10
98.8286516211042
20
30.323948922508031
30
0
10
98.703723344790973
20
30.040801635500607
30
0
0
SPLINE
5
205
100
AcDbEntity
8
0
100
AcDbSpline
70
4
71
3
72
8
73
4
74
0
42
0.000000001
43
0.0000000001
44
0.0000000001
40
0
40
0
40
0
40
0
40
0.64675465135074972
40
0.64675465135074972
40
0.64675465135074972
40
0.64675465135074972
41
1
41
1
41
1
41
1
10
91.062046696333141
20
-19.255769460283911
30
0
10
95.473830680645392
20
-18.345213918181681
30
0
10
97.032272852348939
20
-18.023564408247275
30
0
10
97.839132825210442
20
-16.999017614153956
30
0
0
SPLINE
5
206
100
AcDbEntity
8
0
100
AcDbSpline
70
4
71
3
72
8
73
4
74
0
42
0.000000001
43
0.0000000001
44
0.0000000001
40
0
40
0
40
0
40
0
40
1
40
1
40
1
40
1
41
1
41
1
41
1
41
1
10
81.882802400577106
20
-16.817780352516174
30
0
10
84.24062844275241
20
-20.663653485857651
30
0
10
84.24062844275241
20
-20.663653485857651
30
0
10
91.062046696333141
20
-19.255769460283911
30
0
0
SPLINE
5
207
100
AcDbEntity
8
0
100
AcDbSpline
70
4
71
3
72
8
73
4
74
0
42
0.000000001
43
0.0000000001
44
0.0000000001
40
0
40
0
40
0
40
0
40
1
40
1
40
1
40
1
41
1
41
1
41
1
41
1
10
85.0911256249627
20
-7.9034181444676754
30
0
10
79.52497635840183
20
-12.971915293617249
30
0
10
79.52497635840183
20
-12.971915293617249
30
0
10
81.882802400577106
20
-16.817780352516174
30
0
0
SPLINE
5
208
100
AcDbEntity
8
0
100
AcDbSpline
70
4
71
3
72
8
73
4
74
0
42
0.000000001
43
0.0000000001
44
0.0000000001
40
0.50994802234374781
40
0.50994802234374781
40
0.50994802234374781
40
0.50994802234374781
40
1
40
1
40
1
40
1
41
1
41
1
41
1
41
1
10
90.4558735821212
20
-3.9941978674587042
30
0
10
89.209814553954217
20
-4.1529683999307592
30
0
10
87.818828080970732
20
-5.4195910927818458
30
0
10
85.0911256249627
20
-7.9034181444676754
30
0
0
SPLINE
5
209
100
AcDbEntity
8
0
100
AcDbSpline
70
4
71
3
72
8
73
4
74
0
42
0.000000001
43
0.0000000001
44
0.0000000001
40
0
40
0
40
0
40
0
40
1
40
1
40
1
40
1
41
1
41
1
41
1
41
1
10
50.787058331159791
20
-29.234730769081114
30
0
10
44.339179938622365
20
-32.442222325884501
30
0
10
44.339179938622365
20
-32.442222325884501
30
0
10
43.650777190514475
20
-37.517736165606188
30
0
0
SPLINE
5
210
100
AcDbEntity
8
0
100
AcDbSpline
70
4
71
3
72
8
73
4
74
0
42
0.000000001
43
0.0000000001
44
0.0000000001
40
0
40
0
40
0
40
0
40
1
40
1
40
1
40
1
41
1
41
1
41
1
41
1
10
61.089279947269013
20
-31.284266520423891
30
0
10
57.234936723697217
20
-26.027239212277742
30
0
10
57.234936723697217
20
-26.027239212277742
30
0
10
50.787058331159791
20
-29.234730769081114
30
0
0
SPLINE
5
211
100
AcDbEntity
8
0
100
AcDbSpline
70
4
71
3
72
8
73
4
74
0
42
0.000000001
43
0.0000000001
44
0.0000000001
40
0
40
0
40
0
40
0
40
1
40
1
40
1
40
1
41
1
41
1
41
1
41
1
10
62.389846556969545
20
-41.021979634844463
30
0
10
64.943623170840809
20
-36.541293828570048
30
0
10
64.943623170840809
20
-36.541293828570048
30
0
10
61.089279947269013
20
-31.284266520423891
30
0
0
SPLINE
5
212
100
AcDbEntity
8
0
100
AcDbSpline
70
4
71
3
72
8
73
4
74
0
42
0.000000001
43
0.0000000001
44
0.0000000001
40
0
40
0
40
0
40
0
40
1
40
1
40
1
40
1
41
1
41
1
41
1
41
1
10
51.399222192752418
20
-44.047957723223369
30
0
10
59.836069943098295
20
-45.502665441118879
30
0
10
59.836069943098295
20
-45.502665441118879
30
0
10
62.389846556969545
20
-41.021979634844463
30
0
0
SPLINE
5
213
100
AcDbEntity
8
0
100
AcDbSpline
70
4
71
3
72
8
73
4
74
0
42
0.000000001
43
0.0000000001
44
0.0000000001
40
0
40
0
40
0
40
0
40
1
40
1
40
1
40
1
41
1
41
1
41
1
41
1
10
43.650777190514475
20
-37.517736165606188
30
0
10
42.962374442406542
20
-42.593250005327867
30
0
10
42.962374442406542
20
-42.593250005327867
30
0
10
51.399222192752418
20
-44.047957723223369
30
0
0
SPLINE
5
214
100
AcDbEntity
8
0
100
AcDbSpline
70
4
71
3
72
8
73
4
74
0
42
0.000000001
43
0.0000000001
44
0.0000000001
40
0
40
0
40
0
40
0
40
1
40
1
40
1
40
1
41
1
41
1
41
1
41
1
10
45.255798730838336
20
-4.893637387835188
30
0
10
49.228158006656209
20
-5.2558084337743161
30
0
10
49.228158006656209
20
-5.2558084337743161
30
0
10
53.739736630109988
20
0.37712454708099585
30
0
0
SPLINE
5
215
100
AcDbEntity
8
0
100
AcDbSpline
70
4
71
3
72
8
73
4
74
0
42
0.000000001
43
0.0000000001
44
0.0000000001
40
0
40
0
40
0
40
0
40
1
40
1
40
1
40
1
41
1
41
1
41
1
41
1
10
39.067667080549441
20
-0.90965091475169402
30
0
10
41.283447529463011
20
-4.5314744163386145
30
0
10
41.283447529463011
20
-4.5314744163386145
30
0
10
45.255798730838336
20
-4.893637387835188
30
0
0
SPLINE
5
216
100
AcDbEntity
8
0
100
AcDbSpline
70
4
71
3
72
8
73
4
74
0
42
0.000000001
43
0.0000000001
44
0.0000000001
40
0
40
0
40
0
40
0
40
1
40
1
40
1
40
1
41
1
41
1
41
1
41
1
10
40.105878903059207
20
8.3419080884424801
30
0
10
36.851886631635864
20
2.7121725868352264
30
0
10
36.851886631635864
20
2.7121725868352264
30
0
10
39.067667080549441
20
-0.90965091475169402
30
0
0
SPLINE
5
217
100
AcDbEntity
8
0
100
AcDbSpline
70
4
71
3
72
8
73
4
74
0
42
0.000000001
43
0.0000000001
44
0.0000000001
40
0.65440234948662612
40
0.65440234948662612
40
0.65440234948662612
40
0.65440234948662612
40
1
40
1
40
1
40
1
41
1
41
1
41
1
41
1
10
42.656795045644756
20
12.390887149883671
30
0
10
41.966368984029103
20
11.560751950358846
30
0
10
41.23044819634341
20
10.287531450809677
30
0
10
40.105878903059207
20
8.3419080884424801
30
0
0
SPLINE
5
218
100
AcDbEntity
8
0
100
AcDbSpline
70
4
71
3
72
8
73
4
74
0
42
0.000000001
43
0.0000000001
44
0.0000000001
40
0
40
0
40
0
40
0
40
0.073817302710968924
40
0.073817302710968924
40
0.073817302710968924
40
0.073817302710968924
41
1
41
1
41
1
41
1
10
55.864962205874953
20
9.9166343203353868
30
0
10
55.688808060578467
20
10.205007878017124
30
0
10
55.525657139149118
20
10.472094477497629
30
0
10
55.372514546793774
20
10.719495314991946
30
0
0
SPLINE
5
219
100
AcDbEntity
8
0
100
AcDbSpline
70
4
71
3
72
8
73
4
74
0
42
0.000000001
43
0.0000000001
44
0.0000000001
40
0
40
0
40
0
40
0
40
1
40
1
40
1
40
1
41
1
41
1
41
1
41
1
10
53.739736630109988
20
0.37712454708099585
30
0
10
58.25131525356376
20
6.01005752793629
30
0
10
58.25131525356376
20
6.01005752793629
30
0
10
55.864962205874953
20
9.9166343203353868
30
0
0
SPLINE
5
220
100
AcDbEntity
8
0
100
AcDbSpline
70
4
71
3
72
8
73
4
74
0
42
0.000000001
43
0.0000000001
44
0.0000000001
40
0
40
0
40
0
40
0
40
1
40
1
40
1
40
1
41
1
41
1
41
1
41
1
10
56.254513686486121
20
-1.5630590288670909
30
0
10
51.742935063032348
20
-7.1959920097224028
30
0
10
51.742935063032348
20
-7.1959920097224028
30
0
10
55.532618150699179
20
-12.273476013425197
30
0
0
SPLINE
5
221
100
AcDbEntity
8
0
100
AcDbSpline
70
4
71
3
72
8
73
4
74
0
42
0.000000001
43
0.0000000001
44
0.0000000001
40
0
40
0
40
0
40
0
40
1
40
1
40
1
40
1
41
1
41
1
41
1
41
1
10
63.454607146569145
20
3.3621329139836575
30
0
10
60.766108458824988
20
4.069873951988221
30
0
10
60.766108458824988
20
4.069873951988221
30
0
10
56.254513686486121
20
-1.5630590288670909
30
0
0
SPLINE
5
222
100
AcDbEntity
8
0
100
AcDbSpline
70
4
71
3
72
8
73
4
74
0
42
0.000000001
43
0.0000000001
44
0.0000000001
40
0
40
0
40
0
40
0
40
1
40
1
40
1
40
1
41
1
41
1
41
1
41
1
10
68.590961910871712
20
-4.1400335161717727
30
0
10
66.143105834313275
20
2.6543918759790941
30
0
10
66.143105834313275
20
2.6543918759790941
30
0
10
63.454607146569145
20
3.3621329139836575
30
0
0
SPLINE
5
223
100
AcDbEntity
8
0
100
AcDbSpline
70
4
71
3
72
8
73
4
74
0
42
0.000000001
43
0.0000000001
44
0.0000000001
40
0
40
0
40
0
40
0
40
1
40
1
40
1
40
1
41
1
41
1
41
1
41
1
10
65.180559612898065
20
-14.142709462725334
30
0
10
71.03881798743015
20
-10.934458908322648
30
0
10
71.03881798743015
20
-10.934458908322648
30
0
10
68.590961910871712
20
-4.1400335161717727
30
0
0
SPLINE
5
224
100
AcDbEntity
8
0
100
AcDbSpline
70
4
71
3
72
8
73
4
74
0
42
0.000000001
43
0.0000000001
44
0.0000000001
40
0
40
0
40
0
40
0
40
1
40
1
40
1
40
1
41
1
41
1
41
1
41
1
10
55.532618150699179
20
-12.273476013425197
30
0
10
59.322301238366002
20
-17.350960017128003
30
0
10
59.322301238366002
20
-17.350960017128003
30
0
10
65.180559612898065
20
-14.142709462725334
30
0
0
SPLINE
5
225
100
AcDbEntity
8
0
100
AcDbSpline
70
4
71
3
72
8
73
4
74
0
42
0.000000001
43
0.0000000001
44
0.0000000001
40
0
40
0
40
0
40
0
40
1
40
1
40
1
40
1
41
1
41
1
41
1
41
1
10
44.979281371422658
20
-9.0490604250462958
30
0
10
41.006922095604779
20
-8.6868893791071677
30
0
10
41.006922095604779
20
-8.6868893791071677
30
0
10
37.839390954959441
20
-14.375301854693099
30
0
0
SPLINE
5
226
100
AcDbEntity
8
0
100
AcDbSpline
70
4
71
3
72
8
73
4
74
0
42
0.000000001
43
0.0000000001
44
0.0000000001
40
0
40
0
40
0
40
0
40
1
40
1
40
1
40
1
41
1
41
1
41
1
41
1
10
52.741315660464792
20
-14.488707400245673
30
0
10
48.951632572797976
20
-9.4112233965428782
30
0
10
48.951632572797976
20
-9.4112233965428782
30
0
10
44.979281371422658
20
-9.0490604250462958
30
0
0
SPLINE
5
227
100
AcDbEntity
8
0
100
AcDbSpline
70
4
71
3
72
8
73
4
74
0
42
0.000000001
43
0.0000000001
44
0.0000000001
40
0
40
0
40
0
40
0
40
1
40
1
40
1
40
1
41
1
41
1
41
1
41
1
10
56.178702745425738
20
-21.236745119972234
30
0
10
56.530998748131637
20
-19.566183329505932
30
0
10
56.530998748131637
20
-19.566183329505932
30
0
10
52.741315660464792
20
-14.488707400245673
30
0
0
SPLINE
5
228
100
AcDbEntity
8
0
100
AcDbSpline
70
4
71
3
72
8
73
4
74
0
42
0.000000001
43
0.0000000001
44
0.0000000001
40
0
40
0
40
0
40
0
40
1
40
1
40
1
40
1
41
1
41
1
41
1
41
1
10
49.378528350182407
20
-26.114798467241933
30
0
10
55.826406742719854
20
-22.90730691043855
30
0
10
55.826406742719854
20
-22.90730691043855
30
0
10
56.178702745425738
20
-21.236745119972234
30
0
0
SPLINE
5
229
100
AcDbEntity
8
0
100
AcDbSpline
70
4
71
3
72
8
73
4
74
0
42
0.000000001
43
0.0000000001
44
0.0000000001
40
0
40
0
40
0
40
0
40
1
40
1
40
1
40
1
41
1
41
1
41
1
41
1
10
38.801250848758251
20
-24.693002177162178
30
0
10
42.930658032087536
20
-29.322290024045312
30
0
10
42.930658032087536
20
-29.322290024045312
30
0
10
49.378528350182407
20
-26.114798467241933
30
0
0
SPLINE
5
230
100
AcDbEntity
8
0
100
AcDbSpline
70
4
71
3
72
8
73
4
74
0
42
0.000000001
43
0.0000000001
44
0.0000000001
40
0
40
0
40
0
40
0
40
1
40
1
40
1
40
1
41
1
41
1
41
1
41
1
10
37.839390954959441
20
-14.375301854693099
30
0
10
34.671851739871542
20
-20.063714330279041
30
0
10
34.671851739871542
20
-20.063714330279041
30
0
10
38.801250848758251
20
-24.693002177162178
30
0
0
SPLINE
5
231
100
AcDbEntity
8
0
100
AcDbSpline
70
4
71
3
72
8
73
4
74
0
42
0.000000001
43
0.0000000001
44
0.0000000001
40
0
40
0
40
0
40
0
40
1
40
1
40
1
40
1
41
1
41
1
41
1
41
1
10
19.911011768964979
20
-28.123848963661207
30
0
10
17.362435096093076
20
-32.641822545611063
30
0
10
17.362435096093076
20
-32.641822545611063
30
0
10
20.526195472069659
20
-37.75110370405833
30
0
0
SPLINE
5
232
100
AcDbEntity
8
0
100
AcDbSpline
70
4
71
3
72
8
73
4
74
0
42
0.000000001
43
0.0000000001
44
0.0000000001
40
0
40
0
40
0
40
0
40
1
40
1
40
1
40
1
41
1
41
1
41
1
41
1
10
27.02076836584812
20
-23.116426897926338
30
0
10
22.459580367394345
20
-23.605875381711332
30
0
10
22.459580367394345
20
-23.605875381711332
30
0
10
19.911011768964979
20
-28.123848963661207
30
0
0
SPLINE
5
233
100
AcDbEntity
8
0
100
AcDbSpline
70
4
71
3
72
8
73
4
74
0
42
0.000000001
43
0.0000000001
44
0.0000000001
40
0
40
0
40
0
40
0
40
1
40
1
40
1
40
1
41
1
41
1
41
1
41
1
10
35.711355473188604
20
-27.256282409909574
30
0
10
31.581948289859341
20
-22.626994563026443
30
0
10
31.581948289859341
20
-22.626994563026443
30
0
10
27.02076836584812
20
-23.116426897926338
30
0
0
SPLINE
5
234
100
AcDbEntity
8
0
100
AcDbSpline
70
4
71
3
72
8
73
4
74
0
42
0.000000001
43
0.0000000001
44
0.0000000001
40
0
40
0
40
0
40
0
40
1
40
1
40
1
40
1
41
1
41
1
41
1
41
1
10
39.152359908409977
20
-36.961100245399479
30
0
10
39.840762656517867
20
-31.885586405677799
30
0
10
39.840762656517867
20
-31.885586405677799
30
0
10
35.711355473188604
20
-27.256282409909574
30
0
0
SPLINE
5
235
100
AcDbEntity
8
0
100
AcDbSpline
70
4
71
3
72
8
73
4
74
0
42
0.000000001
43
0.0000000001
44
0.0000000001
40
0
40
0
40
0
40
0
40
1
40
1
40
1
40
1
41
1
41
1
41
1
41
1
10
38.051563081729469
20
-42.448006932818096
30
0
10
38.463957160302051
20
-42.036614085121158
30
0
10
38.463957160302051
20
-42.036614085121158
30
0
10
39.152359908409977
20
-36.961100245399479
30
0
0
SPLINE
5
236
100
AcDbEntity
8
0
100
AcDbSpline
70
4
71
3
72
8
73
4
74
0
42
0.000000001
43
0.0000000001
44
0.0000000001
40
0
40
0
40
0
40
0
40
1
40
1
40
1
40
1
41
1
41
1
41
1
41
1
10
30.664554351158984
20
-42.859884247067768
30
0
10
37.639160928714332
20
-42.859383631629946
30
0
10
37.639160928714332
20
-42.859383631629946
30
0
10
38.051563081729469
20
-42.448006932818096
30
0
0
SPLINE
5
237
100
AcDbEntity
8
0
100
AcDbSpline
70
4
71
3
72
8
73
4
74
0
42
0.000000001
43
0.0000000001
44
0.0000000001
40
0
40
0
40
0
40
0
40
1
40
1
40
1
40
1
41
1
41
1
41
1
41
1
10
20.526195472069659
20
-37.75110370405833
30
0
10
23.68994777360367
20
-42.86036871362051
30
0
10
23.68994777360367
20
-42.86036871362051
30
0
10
30.664554351158984
20
-42.859884247067768
30
0
0
SPLINE
5
238
100
AcDbEntity
8
0
100
AcDbSpline
70
4
71
3
72
8
73
4
74
0
42
0.000000001
43
0.0000000001
44
0.0000000001
40
0
40
0
40
0
40
0
40
1
40
1
40
1
40
1
41
1
41
1
41
1
41
1
10
26.601454490013978
20
-18.760693090044668
30
0
10
31.162634414025181
20
-18.271244606259671
30
0
10
31.162634414025181
20
-18.271244606259671
30
0
10
34.330173629113077
20
-12.582840205116277
30
0
0
SPLINE
5
239
100
AcDbEntity
8
0
100
AcDbSpline
70
4
71
3
72
8
73
4
74
0
42
0.000000001
43
0.0000000001
44
0.0000000001
40
0
40
0
40
0
40
0
40
1
40
1
40
1
40
1
41
1
41
1
41
1
41
1
10
18.625964237837049
20
-13.844286140683497
30
0
10
22.040266491560203
20
-19.250141573829662
30
0
10
22.040266491560203
20
-19.250141573829662
30
0
10
26.601454490013978
20
-18.760693090044668
30
0
0
SPLINE
5
240
100
AcDbEntity
8
0
100
AcDbSpline
70
4
71
3
72
8
73
4
74
0
42
0.000000001
43
0.0000000001
44
0.0000000001
40
0
40
0
40
0
40
0
40
1
40
1
40
1
40
1
41
1
41
1
41
1
41
1
10
18.618083581912579
20
-3.2099869260025038
30
0
10
15.211661984113913
20
-8.4384307075373322
30
0
10
15.211661984113913
20
-8.4384307075373322
30
0
10
18.625964237837049
20
-13.844286140683497
30
0
0
SPLINE
5
241
100
AcDbEntity
8
0
100
AcDbSpline
70
4
71
3
72
8
73
4
74
0
42
0.000000001
43
0.0000000001
44
0.0000000001
40
0
40
0
40
0
40
0
40
1
40
1
40
1
40
1
41
1
41
1
41
1
41
1
10
27.545332600263812
20
1.1838340273666326
30
0
10
22.024505179711245
20
2.0184568555323246
30
0
10
22.024505179711245
20
2.0184568555323246
30
0
10
18.618083581912579
20
-3.2099869260025038
30
0
0
SPLINE
5
242
100
AcDbEntity
8
0
100
AcDbSpline
70
4
71
3
72
8
73
4
74
0
42
0.000000001
43
0.0000000001
44
0.0000000001
40
0
40
0
40
0
40
0
40
1
40
1
40
1
40
1
41
1
41
1
41
1
41
1
10
35.281940469729932
20
-3.2726123023859799
30
0
10
33.066160020816362
20
0.34921119920094057
30
0
10
33.066160020816362
20
0.34921119920094057
30
0
10
27.545332600263812
20
1.1838340273666326
30
0
0
SPLINE
5
243
100
AcDbEntity
8
0
100
AcDbSpline
70
4
71
3
72
8
73
4
74
0
42
0.000000001
43
0.0000000001
44
0.0000000001
40
0
40
0
40
0
40
0
40
1
40
1
40
1
40
1
41
1
41
1
41
1
41
1
10
34.330173629113077
20
-12.582840205116277
30
0
10
37.497712844200976
20
-6.8944277295303458
30
0
10
37.497712844200976
20
-6.8944277295303458
30
0
10
35.281940469729932
20
-3.2726123023859799
30
0
0
SPLINE
5
244
100
AcDbEntity
8
0
100
AcDbSpline
70
4
71
3
72
8
73
4
74
0
42
0.000000001
43
0.0000000001
44
0.0000000001
40
0
40
0
40
0
40
0
40
1
40
1
40
1
40
1
41
1
41
1
41
1
41
1
10
60.580170195885543
20
-22.249853500607813
30
0
10
60.227874193179645
20
-23.920415291074129
30
0
10
60.227874193179645
20
-23.920415291074129
30
0
10
64.082225491193981
20
-29.17743452477773
30
0
0
SPLINE
5
245
100
AcDbEntity
8
0
100
AcDbSpline
70
4
71
3
72
8
73
4
74
0
42
0.000000001
43
0.0000000001
44
0.0000000001
40
0
40
0
40
0
40
0
40
1
40
1
40
1
40
1
41
1
41
1
41
1
41
1
10
66.790716498680951
20
-17.371057304623932
30
0
10
60.932458124148887
20
-20.579307859026599
30
0
10
60.932458124148887
20
-20.579307859026599
30
0
10
60.580170195885543
20
-22.249853500607813
30
0
0
SPLINE
5
246
100
AcDbEntity
8
0
100
AcDbSpline
70
4
71
3
72
8
73
4
74
0
42
0.000000001
43
0.0000000001
44
0.0000000001
40
0
40
0
40
0
40
0
40
1
40
1
40
1
40
1
41
1
41
1
41
1
41
1
10
74.335556357689754
20
-14.667491707089741
30
0
10
72.648974873213035
20
-14.162806750221248
30
0
10
72.648974873213035
20
-14.162806750221248
30
0
10
66.790716498680951
20
-17.371057304623932
30
0
0
SPLINE
5
247
100
AcDbEntity
8
0
100
AcDbSpline
70
4
71
3
72
8
73
4
74
0
42
0.000000001
43
0.0000000001
44
0.0000000001
40
0
40
0
40
0
40
0
40
1
40
1
40
1
40
1
41
1
41
1
41
1
41
1
10
78.379963884341777
20
-19.018041722857156
30
0
10
76.022137842166472
20
-15.172168589515689
30
0
10
76.022137842166472
20
-15.172168589515689
30
0
10
74.335556357689754
20
-14.667491707089741
30
0
0
SPLINE
5
248
100
AcDbEntity
8
0
100
AcDbSpline
70
4
71
3
72
8
73
4
74
0
42
0.000000001
43
0.0000000001
44
0.0000000001
40
0
40
0
40
0
40
0
40
1
40
1
40
1
40
1
41
1
41
1
41
1
41
1
10
79.713401549645312
20
-28.097962300860083
30
0
10
80.737789926517081
20
-22.863914856198626
30
0
10
80.737789926517081
20
-22.863914856198626
30
0
10
78.379963884341777
20
-19.018041722857156
30
0
0
SPLINE
5
249
100
AcDbEntity
8
0
100
AcDbSpline
70
4
71
3
72
8
73
4
74
0
42
0.000000001
43
0.0000000001
44
0.0000000001
40
0
40
0
40
0
40
0
40
1
40
1
40
1
40
1
41
1
41
1
41
1
41
1
10
73.31279094376967
20
-33.883235789222709
30
0
10
78.689013172773571
20
-33.332009745521546
30
0
10
78.689013172773571
20
-33.332009745521546
30
0
10
79.713401549645312
20
-28.097962300860083
30
0
0
SPLINE
5
250
100
AcDbEntity
8
0
100
AcDbSpline
70
4
71
3
72
8
73
4
74
0
42
0.000000001
43
0.0000000001
44
0.0000000001
40
0
40
0
40
0
40
0
40
1
40
1
40
1
40
1
41
1
41
1
41
1
41
1
10
64.082225491193981
20
-29.17743452477773
30
0
10
67.936568714765741
20
-34.434461832923887
30
0
10
67.936568714765741
20
-34.434461832923887
30
0
10
73.31279094376967
20
-33.883235789222709
30
0
0
SPLINE
5
251
100
AcDbEntity
8
0
100
AcDbSpline
70
4
71
3
72
8
73
4
74
0
42
0.000000001
43
0.0000000001
44
0.0000000001
40
0.11415816061280069
40
0.11415816061280069
40
0.11415816061280069
40
0.11415816061280069
40
1
40
1
40
1
40
1
41
1
41
1
41
1
41
1
10
-0.54001677678960247
20
-0.71585948468660687
30
0
10
0.91887635796352785
20
-5.8632671681759199
30
0
10
1.4750341899189978
20
-5.8751894202737676
30
0
10
6.3468526299675787
20
-5.9796256868871112
30
0
0
SPLINE
5
252
100
AcDbEntity
8
0
100
AcDbSpline
70
4
71
3
72
8
73
4
74
0
42
0.000000001
43
0.0000000001
44
0.0000000001
40
0
40
0
40
0
40
0
40
0.12561498019040893
40
0.12561498019040893
40
0.12561498019040893
40
0.12561498019040893
41
1
41
1
41
1
41
1
10
0.15622597693209173
20
12.052800765749616
30
0
10
-0.26129257006234413
20
11.662311525046183
30
0
10
-0.62636453304694462
20
11.32087358257828
30
0
10
-0.94159915807478534
20
11.007652004424084
30
0
0
SPLINE
5
253
100
AcDbEntity
8
0
100
AcDbSpline
70
4
71
3
72
8
73
4
74
0
42
0.000000001
43
0.0000000001
44
0.0000000001
40
0
40
0
40
0
40
0
40
1
40
1
40
1
40
1
41
1
41
1
41
1
41
1
10
9.2194809055209603
20
13.714278808352152
30
0
10
3.4800218041619146
20
15.161428848025
30
0
10
3.4800218041619146
20
15.161428848025
30
0
10
0.15622597693209173
20
12.052800765749616
30
0
0
SPLINE
5
254
100
AcDbEntity
8
0
100
AcDbSpline
70
4
71
3
72
8
73
4
74
0
42
0.000000001
43
0.0000000001
44
0.0000000001
40
0
40
0
40
0
40
0
40
1
40
1
40
1
40
1
41
1
41
1
41
1
41
1
10
16.809133920657686
20
8.3132438174057022
30
0
10
14.958931932437469
20
12.267120694236748
30
0
10
14.958931932437469
20
12.267120694236748
30
0
10
9.2194809055209603
20
13.714278808352152
30
0
0
SPLINE
5
255
100
AcDbEntity
8
0
100
AcDbSpline
70
4
71
3
72
8
73
4
74
0
42
0.000000001
43
0.0000000001
44
0.0000000001
40
0
40
0
40
0
40
0
40
1
40
1
40
1
40
1
41
1
41
1
41
1
41
1
10
15.252914311079238
20
-0.86907684096019011
30
0
10
18.659335908877903
20
4.3593669405746382
30
0
10
18.659335908877903
20
4.3593669405746382
30
0
10
16.809133920657686
20
8.3132438174057022
30
0
0
SPLINE
5
256
100
AcDbEntity
8
0
100
AcDbSpline
70
4
71
3
72
8
73
4
74
0
42
0.000000001
43
0.0000000001
44
0.0000000001
40
0
40
0
40
0
40
0
40
1
40
1
40
1
40
1
41
1
41
1
41
1
41
1
10
6.3468526299675787
20
-5.9796256868871112
30
0
10
11.846484638838017
20
-6.0975206224950185
30
0
10
11.846484638838017
20
-6.0975206224950185
30
0
10
15.252914311079238
20
-0.86907684096019011
30
0
0
SPLINE
5
257
100
AcDbEntity
8
0
100
AcDbSpline
70
4
71
3
72
8
73
4
74
0
42
0.000000001
43
0.0000000001
44
0.0000000001
40
0
40
0
40
0
40
0
40
1
40
1
40
1
40
1
41
1
41
1
41
1
41
1
10
6.2789627170444007
20
-10.522202095273352
30
0
10
0.77933070817396199
20
-10.404307159665445
30
0
10
0.77933070817396199
20
-10.404307159665445
30
0
10
-1.4465993150193945
20
-12.773259783668536
30
0
0
SPLINE
5
258
100
AcDbEntity
8
0
100
AcDbSpline
70
4
71
3
72
8
73
4
74
0
42
0.000000001
43
0.0000000001
44
0.0000000001
40
0
40
0
40
0
40
0
40
1
40
1
40
1
40
1
41
1
41
1
41
1
41
1
10
15.192921202965639
20
-16.045952464027415
30
0
10
11.778610874799949
20
-10.640097030881259
30
0
10
11.778610874799949
20
-10.640097030881259
30
0
10
6.2789627170444007
20
-10.522202095273352
30
0
0
SPLINE
5
259
100
AcDbEntity
8
0
100
AcDbSpline
70
4
71
3
72
8
73
4
74
0
42
0.000000001
43
0.0000000001
44
0.0000000001
40
0
40
0
40
0
40
0
40
1
40
1
40
1
40
1
41
1
41
1
41
1
41
1
10
16.058654858259409
20
-25.969781479123448
30
0
10
18.60723153113133
20
-21.451799822731026
30
0
10
18.60723153113133
20
-21.451799822731026
30
0
10
15.192921202965639
20
-16.045952464027415
30
0
0
SPLINE
5
260
100
AcDbEntity
8
0
100
AcDbSpline
70
4
71
3
72
8
73
4
74
0
42
0.000000001
43
0.0000000001
44
0.0000000001
40
0
40
0
40
0
40
0
40
1
40
1
40
1
40
1
41
1
41
1
41
1
41
1
10
7.1615477339308065
20
-31.10969707258861
30
0
10
13.510078185387506
20
-30.487755061073312
30
0
10
13.510078185387506
20
-30.487755061073312
30
0
10
16.058654858259409
20
-25.969781479123448
30
0
0
SPLINE
5
261
100
AcDbEntity
8
0
100
AcDbSpline
70
4
71
3
72
8
73
4
74
0
42
0.000000001
43
0.0000000001
44
0.0000000001
40
0
40
0
40
0
40
0
40
1
40
1
40
1
40
1
41
1
41
1
41
1
41
1
10
-1.4297560278693311
20
-23.436925745887773
30
0
10
0.81301728247408889
20
-31.731639084103911
30
0
10
0.81301728247408889
20
-31.731639084103911
30
0
10
7.1615477339308065
20
-31.10969707258861
30
0
0
SPLINE
5
262
100
AcDbEntity
8
0
100
AcDbSpline
70
4
71
3
72
8
73
4
74
0
42
0.000000001
43
0.0000000001
44
0.0000000001
40
0
40
0
40
0
40
0
40
1
40
1
40
1
40
1
41
1
41
1
41
1
41
1
10
-1.4465993150193945
20
-12.773259783668536
30
0
10
-3.6725293382127511
20
-15.142204333229081
30
0
10
-3.6725293382127511
20
-15.142204333229081
30
0
10
-1.4297560278693311
20
-23.436925745887773
30
0
0
SPLINE
5
263
100
AcDbEntity
8
0
100
AcDbSpline
70
4
71
3
72
8
73
4
74
0
42
0.000000001
43
0.0000000001
44
0.0000000001
40
0.19012486184036967
40
0.19012486184036967
40
0.19012486184036967
40
0.19012486184036967
40
1
40
1
40
1
40
1
41
1
41
1
41
1
41
1
10
76.943370703737926
20
32.56038609592504
30
0
10
76.528472704941933
20
30.06530188117506
30
0
10
76.865758856510325
20
29.68903387645382
30
0
10
78.639783296573214
20
27.709976529197693
30
0
0
SPLINE
5
264
100
AcDbEntity
8
0
100
AcDbSpline
70
4
71
3
72
8
73
4
74
0
42
0.000000001
43
0.0000000001
44
0.0000000001
40
0
40
0
40
0
40
0
40
0.6342380824874847
40
0.6342380824874847
40
0.6342380824874847
40
0.6342380824874847
41
1
41
1
41
1
41
1
10
95.513959226596398
20
40.811470110333765
30
0
10
94.392713275939713
20
43.272510884267092
30
0
10
93.982604207024394
20
44.172665876817433
30
0
10
91.856228606369967
20
43.811372076280449
30
0
0
SPLINE
5
265
100
AcDbEntity
8
0
100
AcDbSpline
70
4
71
3
72
8
73
4
74
0
42
0.000000001
43
0.0000000001
44
0.0000000001
40
0
40
0
40
0
40
0
40
1
40
1
40
1
40
1
41
1
41
1
41
1
41
1
10
95.018499320336218
20
31.801377311464947
30
0
10
97.28182208695813
20
36.931159479535424
30
0
10
97.28182208695813
20
36.931159479535424
30
0
10
95.513959226596398
20
40.811470110333765
30
0
0
SPLINE
5
266
100
AcDbEntity
8
0
100
AcDbSpline
70
4
71
3
72
8
73
4
74
0
42
0.000000001
43
0.0000000001
44
0.0000000001
40
0
40
0
40
0
40
0
40
1
40
1
40
1
40
1
41
1
41
1
41
1
41
1
10
86.792725572574184
20
25.968957153078716
30
0
10
92.755176553714307
20
26.671595143394473
30
0
10
92.755176553714307
20
26.671595143394473
30
0
10
95.018499320336218
20
31.801377311464947
30
0
0
SPLINE
5
267
100
AcDbEntity
8
0
100
AcDbSpline
70
4
71
3
72
8
73
4
74
0
42
0.000000001
43
0.0000000001
44
0.0000000001
40
0
40
0
40
0
40
0
40
1
40
1
40
1
40
1
41
1
41
1
41
1
41
1
10
78.639783296573214
20
27.709976529197693
30
0
10
80.830270554212774
20
25.266319162762958
30
0
10
80.830270554212774
20
25.266319162762958
30
0
10
86.792725572574184
20
25.968957153078716
30
0
0
SPLINE
5
268
100
AcDbEntity
8
0
100
AcDbSpline
70
4
71
3
72
8
73
4
74
0
42
0.000000001
43
0.0000000001
44
0.0000000001
40
0
40
0
40
0
40
0
40
1
40
1
40
1
40
1
41
1
41
1
41
1
41
1
10
59.44034958838229
20
12.149572959658297
30
0
10
61.82670263607109
20
8.2429880928166632
30
0
10
61.82670263607109
20
8.2429880928166632
30
0
10
64.515209398257767
20
7.5352551292546543
30
0
0
SPLINE
5
269
100
AcDbEntity
8
0
100
AcDbSpline
70
4
71
3
72
8
73
4
74
0
42
0.000000001
43
0.0000000001
44
0.0000000001
40
0.67274224239964964
40
0.67274224239964964
40
0.67274224239964964
40
0.67274224239964964
40
1
40
1
40
1
40
1
41
1
41
1
41
1
41
1
10
57.859436119259598
20
15.02230725329229
30
0
10
58.134017273322058
20
14.288107347109078
30
0
10
58.659397041152886
20
13.428033163056355
30
0
10
59.44034958838229
20
12.149572959658297
30
0
0
SPLINE
5
270
100
AcDbEntity
8
0
100
AcDbSpline
70
4
71
3
72
8
73
4
74
0
42
0.000000001
43
0.0000000001
44
0.0000000001
40
0
40
0
40
0
40
0
40
0.087121517378101199
40
0.087121517378101199
40
0.087121517378101199
40
0.087121517378101199
41
1
41
1
41
1
41
1
10
67.252518091189899
20
25.935238281008406
30
0
10
66.756077449924419
20
25.848078466729163
30
0
10
66.302887470614152
20
25.768512147724323
30
0
10
65.887692155734655
20
25.692942194825097
30
0
0
SPLINE
5
271
100
AcDbEntity
8
0
100
AcDbSpline
70
4
71
3
72
8
73
4
74
0
42
0.000000001
43
0.0000000001
44
0.0000000001
40
0
40
0
40
0
40
0
40
1
40
1
40
1
40
1
41
1
41
1
41
1
41
1
10
75.141256532657195
20
24.492012420412692
30
0
10
72.950765237796347
20
26.935669786847427
30
0
10
72.950765237796347
20
26.935669786847427
30
0
10
67.252518091189899
20
25.935238281008406
30
0
0
SPLINE
5
272
100
AcDbEntity
8
0
100
AcDbSpline
70
4
71
3
72
8
73
4
74
0
42
0.000000001
43
0.0000000001
44
0.0000000001
40
0
40
0
40
0
40
0
40
1
40
1
40
1
40
1
41
1
41
1
41
1
41
1
10
76.690919694888635
20
17.043274576581311
30
0
10
77.331747827518029
20
22.048355053977957
30
0
10
77.331747827518029
20
22.048355053977957
30
0
10
75.141256532657195
20
24.492012420412692
30
0
0
SPLINE
5
273
100
AcDbEntity
8
0
100
AcDbSpline
70
4
71
3
72
8
73
4
74
0
42
0.000000001
43
0.0000000001
44
0.0000000001
40
0
40
0
40
0
40
0
40
1
40
1
40
1
40
1
41
1
41
1
41
1
41
1
10
71.626903861351849
20
9.4328540952173867
30
0
10
76.050091562259254
20
12.038194099184665
30
0
10
76.050091562259254
20
12.038194099184665
30
0
10
76.690919694888635
20
17.043274576581311
30
0
0
SPLINE
5
274
100
AcDbEntity
8
0
100
AcDbSpline
70
4
71
3
72
8
73
4
74
0
42
0.000000001
43
0.0000000001
44
0.0000000001
40
0
40
0
40
0
40
0
40
1
40
1
40
1
40
1
41
1
41
1
41
1
41
1
10
64.515209398257767
20
7.5352551292546543
30
0
10
67.203716160444458
20
6.8275140912500909
30
0
10
67.203716160444458
20
6.8275140912500909
30
0
10
71.626903861351849
20
9.4328540952173867
30
0
0
ARC
5
275
100
AcDbEntity
8
0
100
AcDbCircle
10
104.99999999999999
20
35
30
0
40
7.249999999999984
210
0
220
0
230
1
100
AcDbArc
50
214.97779576722263
51
338.67971775606105
0
SPLINE
5
276
100
AcDbEntity
8
0
100
AcDbSpline
70
0
71
3
72
8
73
4
74
0
42
0.000000001
43
0.0000000001
44
0.0000000001
40
-0.57304592817493261
40
-0.57304592817493261
40
-0.57304592817493261
40
-0.57304592817493261
40
-0.48307394048533692
40
-0.48307394048533692
40
-0.48307394048533692
40
-0.48307394048533692
10
112.84332779638974
20
31.150643441891109
30
0
10
112.91652572205813
20
31.441207514554989
30
0
10
112.97265710075027
20
31.735888291486653
30
0
10
113.00858605120865
20
32.032984285496639
30
0
0
SPLINE
5
277
100
AcDbEntity
8
0
100
AcDbSpline
70
4
71
5
72
14
73
8
74
0
42
0.000000001
43
0.0000000001
44
0.0000000001
40
0
40
0
40
0
40
0
40
0
40
0
40
0.20000000000000001
40
0.40000000000000002
40
0.51366367456889239
40
0.51366367456889239
40
0.51366367456889239
40
0.51366367456889239
40
0.51366367456889239
40
0.51366367456889239
41
1
41
1
41
1
41
1
41
1
41
1
41
1
41
1
10
109.60807978241732
20
26.019099847409528
30
0
10
109.99341979953894
20
26.373206286040517
30
0
10
110.71244461417565
20
27.102443507058645
30
0
10
111.50320953071687
20
28.092847243458241
30
0
10
112.13070454906341
20
29.142096738167741
30
0
10
112.58166622053771
20
30.230169944975998
30
0
10
112.78143239835731
20
30.904945510327629
30
0
10
112.84332779638973
20
31.150643441891095
30
0
0
LINE
5
278
100
AcDbEntity
8
0
100
AcDbLine
10
109.60807978241732
20
26.019099847409528
30
0
11
104.4059741214982
21
21.238648746768177
31
0
0
SPLINE
5
279
100
AcDbEntity
8
0
100
AcDbSpline
70
4
71
3
72
8
73
4
74
0
42
0.000000001
43
0.0000000001
44
0.0000000001
40
0
40
0
40
0
40
0
40
0.23205342987267236
40
0.23205342987267236
40
0.23205342987267236
40
0.23205342987267236
41
1
41
1
41
1
41
1
10
99.507844966240782
20
42.891139681256618
30
0
10
99.918083606532235
20
41.990700290408469
30
0
10
100.23312496327776
20
41.299210948599089
30
0
10
100.5742354976539
20
40.742395716926261
30
0
0
SPLINE
5
280
100
AcDbEntity
8
0
100
AcDbSpline
70
0
71
3
72
12
73
8
74
0
42
0.000000001
43
0.0000000001
44
0.0000000001
40
-1.3659140627843742
40
-1.3659140627843742
40
-1.3659140627843742
40
-1.3659140627843742
40
-1.2779348447757695
40
-1.2779348447757695
40
-1.1897236612383291
40
-1.1897236612383291
40
-1.1727760581479527
40
-1.1727760581479527
40
-1.1727760581479527
40
-1.1727760581479527
10
102.00000151991841
20
48.649927238916959
30
0
10
101.83991764579514
20
48.752407146677754
30
0
10
101.67168925621397
20
48.839153846903152
30
0
10
101.31652838280598
20
48.976223714248583
30
0
10
101.13367541250356
20
49.024860114343909
30
0
10
100.90909745280314
20
49.059375787226813
30
0
10
100.87288698846145
20
49.064183058008204
30
0
10
100.83666635288284
20
49.068259240582613
30
0
0
SPLINE
5
281
100
AcDbEntity
8
0
100
AcDbSpline
70
0
71
3
72
10
73
6
74
0
42
0.000000001
43
0.0000000001
44
0.0000000001
40
-0.14040019920448243
40
-0.14040019920448243
40
-0.14040019920448243
40
-0.14040019920448243
40
-0.070190965522535634
40
-0.070190965522535634
40
0
40
0
40
0
40
0
10
103.01435955084881
20
47.688411873843023
30
0
10
102.87095358346475
20
47.873144004019395
30
0
10
102.71553835356332
20
48.050633276687236
30
0
10
102.37896110165075
20
48.375578323452402
30
0
10
102.19705300299756
20
48.523782004609828
30
0
10
102.00000151991847
20
48.649927238916952
30
0
0
LINE
5
282
100
AcDbEntity
8
0
100
AcDbLine
10
103.01435955084881
20
47.688411873843023
30
0
11
107.61500487609993
21
41.76197082942344
31
0
0
SPLINE
5
283
100
AcDbEntity
8
0
100
AcDbSpline
70
4
71
3
72
8
73
4
74
0
42
0.000000001
43
0.0000000001
44
0.0000000001
40
0
40
0
40
0
40
0
40
0.42381721300593594
40
0.42381721300593594
40
0.42381721300593594
40
0.42381721300593594
41
1
41
1
41
1
41
1
10
84.118793179182276
20
-45.400604487342832
30
0
10
84.766238490528167
20
-48.887000096323554
30
0
10
85.139285334445702
20
-50.895801234869928
30
0
10
85.921694555245764
20
-51.880029958096074
30
0
0
LINE
5
284
100
AcDbEntity
8
0
100
AcDbLine
10
5.0404036440835398
20
19.960330579485767
30
0
11
6.9234961688086214
21
19.960330579485763
31
0
0
SPLINE
5
285
100
AcDbEntity
8
0
100
AcDbSpline
70
4
71
3
72
8
73
4
74
0
42
0.000000001
43
0.0000000001
44
0.0000000001
40
0
40
0
40
0
40
0
40
0.24063151749760231
40
0.24063151749760231
40
0.24063151749760231
40
0.24063151749760231
41
1
41
1
41
1
41
1
10
7.5286280409376438
20
-35.805130752805084
30
0
10
6.0009715245238793
20
-35.954789602831525
30
0
10
4.84091731386986
20
-36.068435816669151
30
0
10
3.9448802217686909
20
-36.172535864167706
30
0
0
SPLINE
5
286
100
AcDbEntity
8
0
100
AcDbSpline
70
4
71
3
72
8
73
4
74
0
42
0.000000001
43
0.0000000001
44
0.0000000001
40
0
40
0
40
0
40
0
40
0.62848160908078332
40
0.62848160908078332
40
0.62848160908078332
40
0.62848160908078332
41
1
41
1
41
1
41
1
10
92.769859927483438
20
0.85256387304941228
30
0
10
92.833196492392602
20
0.087232246034182961
30
0
10
92.856727191074015
20
-0.19710252855410115
30
0
10
93.997623834069955
20
-1.3302956618862207
30
0
0
SPLINE
5
287
100
AcDbEntity
8
0
100
AcDbSpline
70
4
71
3
72
8
73
4
74
0
42
0.000000001
43
0.0000000001
44
0.0000000001
40
0
40
0
40
0
40
0
40
1
40
1
40
1
40
1
41
1
41
1
41
1
41
1
10
97.174541006076382
20
6.8390363207626415
30
0
10
92.669082810072155
20
2.0703028511174537
30
0
10
92.669082810072155
20
2.0703028511174537
30
0
10
92.769859927483438
20
0.85256387304941228
30
0
0
SPLINE
5
288
100
AcDbEntity
8
0
100
AcDbSpline
70
4
71
5
72
15
73
9
74
0
42
0.000000001
43
0.0000000001
44
0.0000000001
40
-0.6810542807404345
40
-0.6810542807404345
40
-0.6810542807404345
40
-0.6810542807404345
40
-0.6810542807404345
40
-0.6810542807404345
40
-0.60000000000000009
40
-0.40000000000000002
40
-0.20000000000000001
40
0
40
0
40
0
40
0
40
0
40
0
41
1
41
1
41
1
41
1
41
1
41
1
41
1
41
1
41
1
10
97.839132825210442
20
-16.999017614153956
30
0
10
97.721464903238697
20
-16.864012149387623
30
0
10
97.295930218114421
20
-16.407655713852446
30
0
10
96.471106892680865
20
-15.691942079037117
30
0
10
95.133952596133199
20
-14.799080152769022
30
0
10
93.702696847278276
20
-13.993936383497005
30
0
10
92.470418570738417
20
-13.299921691467375
30
0
10
91.674848152908936
20
-12.838107340289213
30
0
10
91.283561467430786
20
-12.607412382455296
30
0
0
SPLINE
5
289
100
AcDbEntity
8
0
100
AcDbSpline
70
4
71
3
72
8
73
4
74
0
42
0.000000001
43
0.0000000001
44
0.0000000001
40
0
40
0
40
0
40
0
40
0.25526330893339877
40
0.25526330893339877
40
0.25526330893339877
40
0.25526330893339877
41
1
41
1
41
1
41
1
10
99.519193595238562
20
20.353820243593859
30
0
10
100.30509648829677
20
19.190534490248702
30
0
10
100.8903872083726
20
18.324192907537508
30
0
10
101.36167945880709
20
17.67505764359769
30
0
0
SPLINE
5
290
100
AcDbEntity
8
0
100
AcDbSpline
70
4
71
3
72
8
73
4
74
0
42
0.000000001
43
0.0000000001
44
0.0000000001
40
0
40
0
40
0
40
0
40
1
40
1
40
1
40
1
41
1
41
1
41
1
41
1
10
98.703723344790973
20
30.040801635500607
30
0
10
96.440400578169061
20
24.911019467430133
30
0
10
96.440400578169061
20
24.911019467430133
30
0
10
99.519193595238562
20
20.353820243593859
30
0
0
SPLINE
5
291
100
AcDbEntity
8
0
100
AcDbSpline
70
4
71
3
72
8
73
4
74
0
42
0.000000001
43
0.0000000001
44
0.0000000001
40
0
40
0
40
0
40
0
40
1
40
1
40
1
40
1
41
1
41
1
41
1
41
1
10
97.791896734225787
20
46.995653358217879
30
0
10
97.739978068657763
20
46.771446274833686
30
0
10
97.739978068657763
20
46.771446274833686
30
0
10
99.507844966240782
20
42.891139681256618
30
0
0
SPLINE
5
292
100
AcDbEntity
8
0
100
AcDbSpline
70
4
71
3
72
8
73
4
74
0
42
0.000000001
43
0.0000000001
44
0.0000000001
40
0.27411853187088148
40
0.27411853187088148
40
0.27411853187088148
40
0.27411853187088148
40
1
40
1
40
1
40
1
41
1
41
1
41
1
41
1
10
100.8366663528829
20
49.068259240582613
30
0
10
97.839914180927124
20
47.203013303984449
30
0
10
97.829583531411615
20
47.158401125069744
30
0
10
97.791896734225787
20
46.995653358217879
30
0
0
SPLINE
5
293
100
AcDbEntity
8
0
100
AcDbSpline
70
4
71
3
72
8
73
4
74
0
42
0.000000001
43
0.0000000001
44
0.0000000001
40
0
40
0
40
0
40
0
40
1
40
1
40
1
40
1
41
1
41
1
41
1
41
1
10
94.881649630852564
20
9.0469361137517446
30
0
10
99.38710782685682
20
13.815669583396932
30
0
10
99.38710782685682
20
13.815669583396932
30
0
10
96.308310772566031
20
18.372860732790635
30
0
0
SPLINE
5
294
100
AcDbEntity
8
0
100
AcDbSpline
70
4
71
3
72
8
73
4
74
0
42
0.000000001
43
0.0000000001
44
0.0000000001
40
0.18765428525628347
40
0.18765428525628347
40
0.18765428525628347
40
0.18765428525628347
40
0.94243409051574856
40
0.94243409051574856
40
0.94243409051574856
40
0.94243409051574856
41
1
41
1
41
1
41
1
10
83.968685106026129
20
-60.323470602217824
30
0
10
83.232849560419865
20
-61.679206204246462
30
0
10
83.243835176963685
20
-61.920389862442498
30
0
10
83.561662663492029
20
-62.666255363326435
30
0
0
SPLINE
5
295
100
AcDbEntity
8
0
100
AcDbSpline
70
4
71
3
72
8
73
4
74
0
42
0.000000001
43
0.0000000001
44
0.0000000001
40
0.91041621913687054
40
0.91041621913687054
40
0.91041621913687054
40
0.91041621913687054
40
0.97179791795387804
40
0.97179791795387804
40
0.97179791795387804
40
0.97179791795387804
41
1
41
1
41
1
41
1
10
-8.925027685230182
20
-40.491341446408484
30
0
10
-9.2419000372296072
20
-40.545807464504868
30
0
10
-9.5790294139267456
20
-40.607661012386032
30
0
10
-9.9385400851528694
20
-40.674854460623123
30
0
0
SPLINE
5
296
100
AcDbEntity
8
0
100
AcDbSpline
70
4
71
3
72
8
73
4
74
0
42
0.000000001
43
0.0000000001
44
0.0000000001
40
0.78477965341516231
40
0.78477965341516231
40
0.78477965341516231
40
0.78477965341516231
40
0.86223988854960365
40
0.86223988854960365
40
0.86223988854960365
40
0.86223988854960365
41
1
41
1
41
1
41
1
10
113.00858605120864
20
32.032984285496646
30
0
10
112.62846199875447
20
32.134160144393917
30
0
10
112.21150363679175
20
32.244073995066337
30
0
10
111.75382871374711
20
32.364037613059544
30
0
0
LINE
5
297
100
AcDbEntity
8
0
100
AcDbLine
10
114.92279963747676
20
31.507480464929735
30
0
11
114.92730856843698
21
31.53613686509533
31
0
0
SPLINE
5
298
100
AcDbEntity
8
0
100
AcDbSpline
70
0
71
3
72
10
73
6
74
0
42
0.000000001
43
0.0000000001
44
0.0000000001
40
0.3435479377402052
40
0.3435479377402052
40
0.3435479377402052
40
0.3435479377402052
40
0.37956249519858998
40
0.37956249519858998
40
0.50201653707816263
40
0.50201653707816263
40
0.50201653707816263
40
0.50201653707816263
10
114.42974279477583
20
35.804932748338317
30
0
10
114.36266605769791
20
35.961251625914208
30
0
10
114.29026164558505
20
36.115663118382422
30
0
10
113.94883362260948
20
36.787261626604668
30
0
10
113.63091738032918
20
37.273948368534889
30
0
10
113.27403343357588
20
37.73367771531251
30
0
0
SPLINE
5
299
100
AcDbEntity
8
0
100
AcDbSpline
70
0
71
3
72
8
73
4
74
0
42
0.000000001
43
0.0000000001
44
0.0000000001
40
0.22412674998016055
40
0.22412674998016055
40
0.22412674998016055
40
0.22412674998016055
40
0.32362285417759673
40
0.32362285417759673
40
0.32362285417759673
40
0.32362285417759673
10
102.91705629009896
20
50.35935575793193
30
0
10
102.62735512839708
20
50.508061435275586
30
0
10
102.32222236312597
20
50.622375763155063
30
0
10
102.00000151992
20
50.702366539387356
30
0
0
SPLINE
5
300
100
AcDbEntity
8
0
100
AcDbSpline
70
0
71
3
72
8
73
4
74
0
42
0.000000001
43
0.0000000001
44
0.0000000001
40
0.76261848223982664
40
0.76261848223982664
40
0.76261848223982664
40
0.76261848223982664
40
1.2706133356394445
40
1.2706133356394445
40
1.2706133356394445
40
1.2706133356394445
10
83.220572508459369
20
41.003162637749313
30
0
10
81.366867753308881
20
39.625622076293581
30
0
10
79.470199522684851
20
38.131034756306207
30
0
10
77.744194277357963
20
36.562057056900244
30
0
0
SPLINE
5
301
100
AcDbEntity
8
0
100
AcDbSpline
70
0
71
3
72
20
73
16
74
0
42
0.000000001
43
0.0000000001
44
0.0000000001
40
-1
40
-1
40
-1
40
-1
40
-0.99032961220498306
40
-0.99032961220498306
40
-0.99032961220498306
40
-0.80778318786144321
40
-0.80778318786144321
40
-0.80778318786144321
40
-0.61976440982799463
40
-0.61976440982799463
40
-0.61976440982799463
40
-0.36291265934012851
40
-0.36291265934012851
40
-0.36291265934012851
40
-0.15125806560064095
40
-0.15125806560064095
40
-0.15125806560064095
40
-0.15125806560064095
10
99.788796730422177
20
-60.334656328270881
30
0
10
99.782363093753673
20
-60.388269967175191
30
0
10
99.775352402229046
20
-60.442044611941903
30
0
10
99.767738682517091
20
-60.495965774327487
30
0
10
99.624015665526116
20
-61.513827270534293
30
0
10
99.227688393274974
20
-62.607909761929065
30
0
10
98.586194716044389
20
-63.49394511380811
30
0
10
97.925470422249973
20
-64.406541921736931
30
0
10
97.069280838726414
20
-65.049498767945494
30
0
10
96.28695173264596
20
-65.462335562459728
30
0
10
95.218214862551932
20
-66.026310365646239
30
0
10
94.263949775159958
20
-66.247423004044975
30
0
10
93.40177770611399
20
-66.399328140391475
30
0
10
92.691318545680602
20
-66.524503148384582
30
0
10
92.033022428123914
20
-66.594462572710071
30
0
10
91.400116324752219
20
-66.631034680731446
30
0
0
SPLINE
5
302
100
AcDbEntity
8
0
100
AcDbSpline
70
0
71
3
72
8
73
4
74
0
42
0.000000001
43
0.0000000001
44
0.0000000001
40
0.031101603399339893
40
0.031101603399339893
40
0.031101603399339893
40
0.031101603399339893
40
0.14534287605048793
40
0.14534287605048793
40
0.14534287605048793
40
0.14534287605048793
10
102.86167227388887
20
-15.38806967864334
30
0
10
102.92613653813999
20
-16.16336852814149
30
0
10
102.98448974729916
20
-16.938193080133512
30
0
10
103.03618936160905
20
-17.713103776760889
30
0
0
SPLINE
5
303
100
AcDbEntity
8
0
100
AcDbSpline
70
4
71
5
72
14
73
8
74
0
42
0.000000001
43
0.0000000001
44
0.0000000001
40
0.4510681144609045
40
0.4510681144609045
40
0.4510681144609045
40
0.4510681144609045
40
0.4510681144609045
40
0.4510681144609045
40
0.60000000000000009
40
0.80000000000000004
40
1
40
1
40
1
40
1
40
1
40
1
41
1
41
1
41
1
41
1
41
1
41
1
41
1
41
1
10
114.92279963747676
20
31.507480464929735
30
0
10
114.85770983907531
20
31.098000609310379
30
0
10
114.6506643035522
20
30.142968535672082
30
0
10
114.1366475750354
20
28.661950303022763
30
0
10
113.36212190735809
20
27.236355660033617
30
0
10
112.33431539149936
20
25.902713919157478
30
0
10
111.44278624032845
20
24.988876474210965
30
0
10
110.96135150937764
20
24.546464239728571
30
0
0
SPLINE
5
304
100
AcDbEntity
8
0
100
AcDbSpline
70
4
71
5
72
14
73
8
74
0
42
0.000000001
43
0.0000000001
44
0.0000000001
40
-0.28169301738664193
40
-0.28169301738664193
40
-0.28169301738664193
40
-0.28169301738664193
40
-0.28169301738664193
40
-0.28169301738664193
40
-0.20000000000000001
40
-0.10000000000000001
40
0
40
0
40
0
40
0
40
0
40
0
41
1
41
1
41
1
41
1
41
1
41
1
41
1
41
1
10
13.709263154793979
20
17.135241247141874
30
0
10
13.56432594120907
20
17.415299386100219
30
0
10
13.232567968639273
20
18.022907205781532
30
0
10
12.672868901436871
20
18.888558848631806
30
0
10
11.997906272952314
20
19.553946207456601
30
0
10
11.149698814291169
20
19.91463588618986
30
0
10
10.45055568176976
20
20.000000298023224
30
0
10
10.076752795984003
20
20.000000298023224
30
0
0
SPLINE
5
305
100
AcDbEntity
8
0
100
AcDbSpline
70
4
71
3
72
8
73
4
74
0
42
0.000000001
43
0.0000000001
44
0.0000000001
40
0.080530936982679491
40
0.080530936982679491
40
0.080530936982679491
40
0.080530936982679491
40
1
40
1
40
1
40
1
41
1
41
1
41
1
41
1
10
-9.9385400851528711
20
-36.217140289417088
30
0
10
-5.1130739257643842
20
-35.301914485781907
30
0
10
-5.032677299053617
20
-35.20731706575193
30
0
10
-4.0343451086798865
20
-34.032645274086015
30
0
0
LINE
5
306
100
AcDbEntity
8
0
100
AcDbLine
10
-9.9385400851528711
20
-36.217140289417088
30
0
11
-9.9385400851528711
21
-16.299192156395787
31
0
0
ARC
5
307
100
AcDbEntity
8
0
100
AcDbCircle
10
-3.7600187136627028
20
-45.579089703115727
30
0
40
7.2500000000000044
210
-0
220
0
230
1
100
AcDbArc
50
-34.666696591178699
51
63.858384757065416
0
SPLINE
5
308
100
AcDbEntity
8
0
100
AcDbSpline
70
4
71
3
72
8
73
4
74
0
42
0.000000001
43
0.0000000001
44
0.0000000001
40
0
40
0
40
0
40
0
40
0.35182510133493305
40
0.35182510133493305
40
0.35182510133493305
40
0.35182510133493305
41
1
41
1
41
1
41
1
10
0.094327300377763379
20
-37.70462721276602
30
0
10
-0.28767394161242898
20
-38.154102936051302
30
0
10
-0.5352775579293515
20
-38.445441817444149
30
0
10
-0.56573170278654139
20
-39.070708146065783
30
0
0
SPLINE
5
309
100
AcDbEntity
8
0
100
AcDbSpline
70
4
71
3
72
8
73
4
74
0
42
0.000000001
43
0.0000000001
44
0.0000000001
40
0.46762606622688108
40
0.46762606622688108
40
0.46762606622688108
40
0.46762606622688108
40
1
40
1
40
1
40
1
41
1
41
1
41
1
41
1
10
2.0269766510562008
20
-36.463869932345546
30
0
10
0.94266770764635022
20
-36.706440881845737
30
0
10
0.6723631003616003
20
-37.02449052543767
30
0
10
0.094327300377763379
20
-37.70462721276602
30
0
0
ARC
5
310
100
AcDbEntity
8
0
100
AcDbCircle
10
3.722561888131537
20
-41.167590874728539
30
0
40
5.0000000000000089
210
0
220
-0
230
1
100
AcDbArc
50
87.451579371897097
51
109.82308896504277
0
SPLINE
5
311
100
AcDbEntity
8
0
100
AcDbSpline
70
4
71
3
72
8
73
4
74
0
42
0.000000001
43
0.0000000001
44
0.0000000001
40
0
40
0
40
0
40
0
40
1
40
1
40
1
40
1
41
1
41
1
41
1
41
1
10
17.040910793928372
20
-40.292469899737043
30
0
10
13.877158492394344
20
-35.183204890174878
30
0
10
13.877158492394344
20
-35.183204890174878
30
0
10
7.5286280409376438
20
-35.805130752805084
30
0
0
SPLINE
5
312
100
AcDbEntity
8
0
100
AcDbSpline
70
4
71
3
72
8
73
4
74
0
42
0.000000001
43
0.0000000001
44
0.0000000001
40
0.52880498235620466
40
0.52880498235620466
40
0.52880498235620466
40
0.52880498235620466
40
1
40
1
40
1
40
1
41
1
41
1
41
1
41
1
10
13.793129709424283
20
-56.389597498314231
30
0
10
14.676709749208054
20
-55.517364957341641
30
0
10
15.47735578861559
20
-54.052263161548893
30
0
10
16.991422535566567
20
-51.281673162066149
30
0
0
ARC
5
313
100
AcDbEntity
8
0
100
AcDbCircle
10
9.0000001341104507
20
-53.000000789761543
30
0
40
5.0000000000000018
210
0
220
0
230
1
100
AcDbArc
50
-9.5665925552636022
51
114.08264714170429
0
SPLINE
5
314
100
AcDbEntity
8
0
100
AcDbSpline
70
4
71
3
72
8
73
4
74
0
42
0.000000001
43
0.0000000001
44
0.0000000001
40
0.02382134067586917
40
0.02382134067586917
40
0.02382134067586917
40
0.02382134067586917
40
0.056482351716878335
40
0.056482351716878335
40
0.056482351716878335
40
0.056482351716878335
41
1
41
1
41
1
41
1
10
2.2029235733335639
20
-49.702900959944991
30
0
10
2.295938622015159
20
-50.014787130344743
30
0
10
2.3859560784552549
20
-50.316213949803867
30
0
10
2.4732332355944449
20
-50.607498111529509
30
0
0
SPLINE
5
315
100
AcDbEntity
8
0
100
AcDbSpline
70
4
71
3
72
8
73
4
74
0
42
0.000000001
43
0.0000000001
44
0.0000000001
40
0
40
0
40
0
40
0
40
0.94188018610564905
40
0.94188018610564905
40
0.94188018610564905
40
0.94188018610564905
41
1
41
1
41
1
41
1
10
20.367314666100409
20
-53.191585652910888
30
0
10
17.340827049543503
20
-58.729782988716721
30
0
10
17.164928152515657
20
-59.051661987183948
30
0
10
22.264488081248174
20
-63.181197326926181
30
0
0
SPLINE
5
316
100
AcDbEntity
8
0
100
AcDbSpline
70
4
71
3
72
8
73
4
74
0
42
0.000000001
43
0.0000000001
44
0.0000000001
40
0.13233917774269421
40
0.13233917774269421
40
0.13233917774269421
40
0.13233917774269421
40
1
40
1
40
1
40
1
41
1
41
1
41
1
41
1
10
35.426376094924464
20
-64.444343856230361
30
0
10
38.350847720237958
20
-62.172479608519453
30
0
10
38.303291309511245
20
-61.311683819405914
30
0
10
37.943938837039525
20
-54.807217010739649
30
0
0
SPLINE
5
317
100
AcDbEntity
8
0
100
AcDbSpline
70
4
71
3
72
8
73
4
74
0
42
0.000000001
43
0.0000000001
44
0.0000000001
40
0
40
0
40
0
40
0
40
0.68295528611728606
40
0.68295528611728606
40
0.68295528611728606
40
0.68295528611728606
41
1
41
1
41
1
41
1
10
72.079411770490864
20
-62.606369512163802
30
0
10
67.669705634109064
20
-61.729798288646052
30
0
10
66.271631613793033
20
-61.451886015888036
30
0
10
64.59140357031049
20
-62.666255363325917
30
0
0
LINE
5
318
100
AcDbEntity
8
0
100
AcDbLine
10
72.380655009875142
20
-62.666255363326442
30
0
11
72.079411770490864
21
-62.606369512163802
31
0
0
LINE
5
319
100
AcDbEntity
8
0
100
AcDbLine
10
72.380655009875142
20
-62.666255363326442
30
0
11
64.59140357031049
21
-62.666255363325917
31
0
0
ARC
5
320
100
AcDbEntity
8
0
100
AcDbCircle
10
104.99999999999999
20
35
30
0
40
7.2500000000000009
210
0
220
-0
230
1
100
AcDbArc
50
68.857402539572021
51
127.62206798962222
0
SPLINE
5
321
100
AcDbEntity
8
0
100
AcDbSpline
70
4
71
3
72
8
73
4
74
0
42
0.000000001
43
0.0000000001
44
0.0000000001
40
0
40
0
40
0
40
0
40
0.35480432755093627
40
0.35480432755093627
40
0.35480432755093627
40
0.35480432755093627
41
1
41
1
41
1
41
1
10
48.733654921837712
20
-64.282494593544016
30
0
10
50.895603234877676
20
-65.081683816053172
30
0
10
52.290482930509619
20
-65.597317243884021
30
0
10
53.363894410722246
20
-65.747376391093596
30
0
0
SPLINE
5
322
100
AcDbEntity
8
0
100
AcDbSpline
70
4
71
3
72
8
73
4
74
0
42
0.000000001
43
0.0000000001
44
0.0000000001
40
0
40
0
40
0
40
0
40
1
40
1
40
1
40
1
41
1
41
1
41
1
41
1
10
42.226138696658673
20
-54.533444961789456
30
0
10
42.640301078148738
20
-62.03001580326081
30
0
10
42.640301078148738
20
-62.03001580326081
30
0
10
48.733654921837712
20
-64.282494593544016
30
0
0
SPLINE
5
323
100
AcDbEntity
8
0
100
AcDbSpline
70
4
71
3
72
8
73
4
74
0
42
0.000000001
43
0.0000000001
44
0.0000000001
40
0
40
0
40
0
40
0
40
1
40
1
40
1
40
1
41
1
41
1
41
1
41
1
10
58.710169674543593
20
-62.446188720944718
30
0
10
62.593330583560522
20
-58.357404058062237
30
0
10
62.593330583560522
20
-58.357404058062237
30
0
10
61.051895278283013
20
-53.740453959388731
30
0
0
SPLINE
5
324
100
AcDbEntity
8
0
100
AcDbSpline
70
4
71
3
72
8
73
4
74
0
42
0.000000001
43
0.0000000001
44
0.0000000001
40
0
40
0
40
0
40
0
40
1
40
1
40
1
40
1
41
1
41
1
41
1
41
1
10
72.804230254479293
20
-58.255876017494202
30
0
10
79.261030906029589
20
-59.539373255653381
30
0
10
79.261030906029589
20
-59.539373255653381
30
0
10
80.763959194807285
20
-56.876309061927799
30
0
0
SPLINE
5
325
100
AcDbEntity
8
0
100
AcDbSpline
70
4
71
3
72
8
73
4
74
0
42
0.000000001
43
0.0000000001
44
0.0000000001
40
0
40
0
40
0
40
0
40
1
40
1
40
1
40
1
41
1
41
1
41
1
41
1
10
64.806002372094042
20
-52.355444829546613
30
0
10
66.347429602929026
20
-56.972378779335024
30
0
10
66.347429602929026
20
-56.972378779335024
30
0
10
72.804230254479293
20
-58.255876017494202
30
0
0
SPLINE
5
326
100
AcDbEntity
8
0
100
AcDbSpline
70
4
71
5
72
13
73
7
74
0
42
0.000000001
43
0.0000000001
44
0.0000000001
40
-0.89537870350125115
40
-0.89537870350125115
40
-0.89537870350125115
40
-0.89537870350125115
40
-0.89537870350125115
40
-0.89537870350125115
40
-0.80000000000000004
40
-0.75392777264713218
40
-0.75392777264713218
40
-0.75392777264713218
40
-0.75392777264713218
40
-0.75392777264713218
40
-0.75392777264713218
41
1
41
1
41
1
41
1
41
1
41
1
41
1
10
97.250786788881783
20
4.1548616278535349
30
0
10
97.255095198764906
20
4.5626807118554291
30
0
10
97.27479764401582
20
5.1660712940196118
30
0
10
97.313872012407728
20
5.7672531904540048
30
0
10
97.371612808620142
20
6.3660118259145815
30
0
10
97.447333515638775
20
6.9620179125220822
30
0
10
97.473881166563729
20
7.1558393986680979
30
0
0
LINE
5
327
100
AcDbEntity
8
0
100
AcDbLine
10
97.473881166563743
20
7.1558393986680979
30
0
11
97.174541006076382
21
6.8390363207626415
31
0
0
LINE
5
328
100
AcDbEntity
8
0
100
AcDbLine
10
-9.9385400851528711
20
-11.553209283539484
30
0
11
-9.9385400851528676
21
-0.30785472929867774
31
0
0
ARC
5
329
100
AcDbEntity
8
0
100
AcDbCircle
10
-5.0000000000000036
20
4.9999999999999964
30
0
40
7.2499999999999973
210
0
220
0
230
1
100
AcDbArc
50
227.06423963809047
51
275.82763588186907
0
ARC
5
330
100
AcDbEntity
8
0
100
AcDbCircle
10
90.608245303408026
20
-57.411642931262179
30
0
40
7.249999999999952
210
0
220
-0
230
1
100
AcDbArc
50
61.334810815622873
51
130.27228540512314
0
SPLINE
5
331
100
AcDbEntity
8
0
100
AcDbSpline
70
4
71
3
72
8
73
4
74
0
42
0.000000001
43
0.0000000001
44
0.0000000001
40
0.27649399990900858
40
0.27649399990900858
40
0.27649399990900858
40
0.27649399990900858
40
1
40
1
40
1
40
1
41
1
41
1
41
1
41
1
10
98.120265244454117
20
-40.666609879300225
30
0
10
97.169743963869763
20
-38.663146039273336
30
0
10
95.65360182886775
20
-38.508320865512317
30
0
10
90.17014780997043
20
-37.948362335446674
30
0
0
LINE
5
332
100
AcDbEntity
8
0
100
AcDbLine
10
98.120265244454117
20
-40.666609879300225
30
0
11
96.987494367105228
21
-50.106367190541036
31
0
0
SPLINE
5
333
100
AcDbEntity
8
0
100
AcDbSpline
70
4
71
3
72
8
73
4
74
0
42
0.000000001
43
0.0000000001
44
0.0000000001
40
0.04616452162291116
40
0.04616452162291116
40
0.04616452162291116
40
0.04616452162291116
40
0.21887577157504592
40
0.21887577157504592
40
0.21887577157504592
40
0.21887577157504592
41
1
41
1
41
1
41
1
10
94.086001334034123
20
-51.050219113323088
30
0
10
95.256795138799291
20
-50.690791727612243
30
0
10
96.21356762447877
20
-50.388971992131964
30
0
10
96.987494367105228
20
-50.106367190541022
30
0
0
SPLINE
5
334
100
AcDbEntity
8
0
100
AcDbSpline
70
0
71
3
72
11
73
7
74
0
42
0.000000001
43
0.0000000001
44
0.0000000001
40
-0.99712181869952765
40
-0.99712181869952765
40
-0.99712181869952765
40
-0.99712181869952765
40
-0.67801271907320482
40
-0.67801271907320482
40
-0.67801271907320482
40
-0.34645100138415097
40
-0.34645100138415097
40
-0.34645100138415097
40
-0.34645100138415097
10
102.79601011506131
20
-35.274303961923067
30
0
10
103.06152586207475
20
-33.043880271432485
30
0
10
103.2085592979613
20
-30.815831442649394
30
0
10
103.27040996196048
20
-28.615002245336456
30
0
10
103.33467422900831
20
-26.328289927023405
30
0
10
103.32158488879276
20
-24.064314676744441
30
0
10
103.24440536411436
20
-21.809375413654053
30
0
0
SPLINE
5
335
100
AcDbEntity
8
0
100
AcDbSpline
70
4
71
5
72
13
73
7
74
0
42
0.000000001
43
0.0000000001
44
0.0000000001
40
-0.54055614181608225
40
-0.54055614181608225
40
-0.54055614181608225
40
-0.54055614181608225
40
-0.54055614181608225
40
-0.54055614181608225
40
-0.40000000000000002
40
-0.24395833588783972
40
-0.24395833588783972
40
-0.24395833588783972
40
-0.24395833588783972
40
-0.24395833588783972
40
-0.24395833588783972
41
1
41
1
41
1
41
1
41
1
41
1
41
1
10
101.36805412459984
20
10.971894085811027
30
0
10
101.43735783964891
20
11.473435822331348
30
0
10
101.61249476112408
20
12.521514032505408
30
0
10
101.85534677472876
20
13.54745071904274
30
0
10
102.18250223475681
20
14.549486225622756
30
0
10
102.61404197553568
20
15.524456504130784
30
0
10
102.87269418049959
20
16.029437605646628
30
0
0
SPLINE
5
336
100
AcDbEntity
8
0
100
AcDbSpline
70
4
71
5
72
15
73
9
74
0
42
0.000000001
43
0.0000000001
44
0.0000000001
40
0.53122757123183928
40
0.53122757123183928
40
0.53122757123183928
40
0.53122757123183928
40
0.53122757123183928
40
0.53122757123183928
40
0.59999999999999998
40
0.69999999999999996
40
0.79999999999999993
40
0.80760799617794221
40
0.80760799617794221
40
0.80760799617794221
40
0.80760799617794221
40
0.80760799617794221
40
0.80760799617794221
41
1
41
1
41
1
41
1
41
1
41
1
41
1
41
1
41
1
10
44.689604510141024
20
18.568491434889101
30
0
10
44.473718777507656
20
18.281360625856649
30
0
10
43.922864643344951
20
17.602524190098297
30
0
10
42.960363641950238
20
16.629413200471014
30
0
10
41.830494494457746
20
15.823098567049161
30
0
10
40.589459594869687
20
15.212284287459077
30
0
10
39.61588865008116
20
14.853944685057009
30
0
10
39.103021688754225
20
14.693756719347897
30
0
10
39.066721272230673
20
14.682558455821745
30
0
0
SPLINE
5
337
100
AcDbEntity
8
0
100
AcDbSpline
70
4
71
5
72
15
73
9
74
0
42
0.000000001
43
0.0000000001
44
0.0000000001
40
-0.78286394046103003
40
-0.78286394046103003
40
-0.78286394046103003
40
-0.78286394046103003
40
-0.78286394046103003
40
-0.78286394046103003
40
-0.69999999999999996
40
-0.59999999999999998
40
-0.5
40
-0.42923658134149623
40
-0.42923658134149623
40
-0.42923658134149623
40
-0.42923658134149623
40
-0.42923658134149623
40
-0.42923658134149623
41
1
41
1
41
1
41
1
41
1
41
1
41
1
41
1
41
1
10
19.548231901883717
20
14.155097529601072
30
0
10
19.366203229114539
20
14.19826312158434
30
0
10
18.980009041900143
20
14.317491295592424
30
0
10
18.435587102827956
20
14.59863065570465
30
0
10
17.854429111373133
20
15.198161353128793
30
0
10
17.367340880048548
20
16.168202707189497
30
0
10
17.006440733542487
20
17.084293700298268
30
0
10
16.769205706446403
20
17.709099211845931
30
0
10
16.668154805362118
20
17.974334880026767
30
0
0
SPLINE
5
338
100
AcDbEntity
8
0
100
AcDbSpline
70
0
71
3
72
11
73
7
74
0
42
0.000000001
43
0.0000000001
44
0.0000000001
40
0.80466223765500389
40
0.80466223765500389
40
0.80466223765500389
40
0.80466223765500389
40
0.82115989298640035
40
0.82115989298640035
40
0.82115989298640035
40
1
40
1
40
1
40
1
10
0.36512287861234083
20
-55.111521884458618
30
0
10
0.31737109299419231
20
-55.083077986987199
30
0
10
0.27012605884558988
20
-55.056363537452228
30
0
10
0.22336572609860245
20
-55.031325281366428
30
0
10
-0.28353193568900747
20
-54.759902202882216
30
0
10
-0.75971442033622261
20
-54.616718719568809
30
0
10
-1.5950547713119168
20
-54.616718719568809
30
0
0
SPLINE
5
339
100
AcDbEntity
8
0
100
AcDbSpline
70
0
71
3
72
14
73
10
74
0
42
0.000000001
43
0.0000000001
44
0.0000000001
40
-0.80466223765499723
40
-0.80466223765499723
40
-0.80466223765499723
40
-0.80466223765499723
40
-0.63272958992324757
40
-0.63272958992324757
40
-0.63272958992324757
40
-0.38593495030313996
40
-0.38593495030313996
40
-0.38593495030313996
40
-0.25423906196570956
40
-0.25423906196570956
40
-0.25423906196570956
40
-0.25423906196570956
10
0.36512287861234083
20
-55.111521884458618
30
0
10
0.86277486432350026
20
-55.407953983798528
30
0
10
1.4154654359459657
20
-55.892222477404765
30
0
10
2.0481530835205568
20
-56.624606163257496
30
0
10
2.9563221952932182
20
-57.675880427908353
30
0
10
3.9592340678107352
20
-59.19501066751485
30
0
10
5.2449673132594938
20
-60.801058242162149
30
0
10
5.9310672309278267
20
-61.658086021942651
30
0
10
6.7156591862840216
20
-62.549997721377828
30
0
10
7.6517765277672307
20
-63.370051113467824
30
0
0
SPLINE
5
340
100
AcDbEntity
8
0
100
AcDbSpline
70
0
71
3
72
11
73
7
74
0
42
0.000000001
43
0.0000000001
44
0.0000000001
40
0.13979111546090439
40
0.13979111546090439
40
0.13979111546090439
40
0.13979111546090439
40
0.17112855423075315
40
0.17112855423075315
40
0.17112855423075315
40
0.25423906196567458
40
0.25423906196567458
40
0.25423906196567458
40
0.25423906196567458
10
10.467340166086899
20
-65.269933415778524
30
0
10
10.175184167676324
20
-65.126957756380122
30
0
10
9.8917234582212537
20
-64.97336055537771
30
0
10
9.6184373712197324
20
-64.809923541858652
30
0
10
8.893651098340289
20
-64.376469701677024
30
0
10
8.2425405108522511
20
-63.88756957700339
30
0
10
7.6517765277672307
20
-63.370051113467824
30
0
0
SPLINE
5
341
100
AcDbEntity
8
0
100
AcDbSpline
70
0
71
3
72
8
73
4
74
0
42
0.000000001
43
0.0000000001
44
0.0000000001
40
0.95083620476514141
40
0.95083620476514141
40
0.95083620476514141
40
0.95083620476514141
40
1
40
1
40
1
40
1
10
52.146665064951776
20
-70.017000952054758
30
0
10
51.853923288538269
20
-70.022382278970809
30
0
10
51.561127766212408
20
-70.011174407320098
30
0
10
51.273563264411251
20
-69.983576839097083
30
0
0
SPLINE
5
342
100
AcDbEntity
8
0
100
AcDbSpline
70
0
71
3
72
8
73
4
74
0
42
0.000000001
43
0.0000000001
44
0.0000000001
40
-0.95083620476539121
40
-0.95083620476539121
40
-0.95083620476539121
40
-0.95083620476539121
40
-0.89341490714151628
40
-0.89341490714151628
40
-0.89341490714151628
40
-0.89341490714151628
10
52.146665064951776
20
-70.017000952054758
30
0
10
52.488575460397882
20
-70.010715782796112
30
0
10
52.830412539522207
20
-69.981800819133042
30
0
10
53.163756369979026
20
-69.929938205334636
30
0
0
LINE
5
343
100
AcDbEntity
8
0
100
AcDbLine
10
102.79601011506131
20
-35.274303961923067
30
0
11
102.78879677512566
21
-35.334655955741781
31
0
0
SPLINE
5
344
100
AcDbEntity
8
0
100
AcDbSpline
70
0
71
3
72
8
73
4
74
0
42
0.000000001
43
0.0000000001
44
0.0000000001
40
0.14534287605048807
40
0.14534287605048807
40
0.14534287605048807
40
0.14534287605048807
40
0.3464510013841513
40
0.3464510013841513
40
0.3464510013841513
40
0.3464510013841513
10
103.03618936160905
20
-17.713103776760892
30
0
10
103.12720036203865
20
-19.077241569374749
30
0
10
103.19759227112399
20
-20.44164631904648
30
0
10
103.24440536411436
20
-21.809375413654053
30
0
0
SPLINE
5
345
100
AcDbEntity
8
0
100
AcDbSpline
70
0
71
3
72
8
73
4
74
0
42
0.000000001
43
0.0000000001
44
0.0000000001
40
-0.031101603399362524
40
-0.031101603399362524
40
-0.031101603399362524
40
-0.031101603399362524
40
0
40
0
40
0
40
0
10
102.86167227388887
20
-15.38806967864334
30
0
10
102.84412220696785
20
-15.176998523941608
30
0
10
102.82611920524457
20
-14.965892215597645
30
0
10
102.80767421611438
20
-14.754739444979778
30
0
0
SPLINE
5
346
100
AcDbEntity
8
0
100
AcDbSpline
70
4
71
5
72
13
73
7
74
0
42
0.000000001
43
0.0000000001
44
0.0000000001
40
0
40
0
40
0
40
0
40
0
40
0
40
0.20000000000000001
40
0.24395833588782276
40
0.24395833588782276
40
0.24395833588782276
40
0.24395833588782276
40
0.24395833588782276
40
0.24395833588782276
41
1
41
1
41
1
41
1
41
1
41
1
41
1
10
105.75924584845851
20
19.766013139087224
30
0
10
105.13253622959071
20
19.190101213690145
30
0
10
104.44814534144638
20
18.468594470417756
30
0
10
103.8613283132936
20
17.723914047595088
30
0
10
103.36386530733586
20
16.95768781821679
30
0
10
102.94555882577637
20
16.17169530972674
30
0
10
102.87269418049959
20
16.029437605646628
30
0
0
SPLINE
5
347
100
AcDbEntity
8
0
100
AcDbSpline
70
4
71
3
72
8
73
4
74
0
42
0.000000001
43
0.0000000001
44
0.0000000001
40
0.97748684305513023
40
0.97748684305513023
40
0.97748684305513023
40
0.97748684305513023
40
1
40
1
40
1
40
1
41
1
41
1
41
1
41
1
10
58.453693653245423
20
-62.716146920540211
30
0
10
58.537293402526238
20
-62.628219253843696
30
0
10
58.622747463556706
20
-62.538240171773971
30
0
10
58.710169674543593
20
-62.446188720944718
30
0
0
SPLINE
5
348
100
AcDbEntity
8
0
100
AcDbSpline
70
4
71
5
72
15
73
9
74
0
42
0.000000001
43
0.0000000001
44
0.0000000001
40
-0.63450887224756392
40
-0.63450887224756392
40
-0.63450887224756392
40
-0.63450887224756392
40
-0.63450887224756392
40
-0.63450887224756392
40
-0.60000000000000009
40
-0.40000000000000002
40
-0.20000000000000001
40
-0.074302398979395695
40
-0.074302398979395695
40
-0.074302398979395695
40
-0.074302398979395695
40
-0.074302398979395695
40
-0.074302398979395695
41
1
41
1
41
1
41
1
41
1
41
1
41
1
41
1
41
1
10
54.463221028891795
20
-65.130366894520336
30
0
10
54.511034899098298
20
-65.097107927888715
30
0
10
54.834995999465107
20
-64.867926947265559
30
0
10
55.424073922560154
20
-64.406438767592761
30
0
10
56.172618026442073
20
-63.772908154845638
30
0
10
56.946584306151628
20
-63.213523121656763
30
0
10
57.733337451523347
20
-62.872367213557212
30
0
10
58.249835847416598
20
-62.749682729818602
30
0
10
58.453693653245402
20
-62.716146920540197
30
0
0
ENDSEC
0
SECTION
2
OBJECTS
0
DICTIONARY
5
C
100
AcDbDictionary
3
ACAD_GROUP
350
D
3
ACAD_MLINESTYLE
350
17
0
DICTIONARY
5
D
100
AcDbDictionary
0
DICTIONARY
5
1A
330
C
100
AcDbDictionary
0
DICTIONARY
5
17
100
AcDbDictionary
0
ENDSEC
0
EOF
